G04 (created by PCBNEW (2013-07-07 BZR 4022)-stable) date 27/11/2016 22:58:01*
%MOIN*%
G04 Gerber Fmt 3.4, Leading zero omitted, Abs format*
%FSLAX34Y34*%
G01*
G70*
G90*
G04 APERTURE LIST*
%ADD10C,0.00590551*%
%ADD11C,0.011811*%
%ADD12C,0.012*%
%ADD13C,0.008*%
%ADD14C,0.01*%
%ADD15C,0.015*%
%ADD16C,0.0393701*%
%ADD17C,0.005*%
%ADD18C,0.0035*%
%ADD19C,0.01125*%
%ADD20C,0.023622*%
G04 APERTURE END LIST*
G54D10*
G54D11*
X31791Y-40317D02*
X31791Y-39727D01*
X32128Y-40317D02*
X31875Y-39980D01*
X32128Y-39727D02*
X31791Y-40064D01*
X32381Y-40317D02*
X32381Y-39924D01*
X32381Y-39727D02*
X32353Y-39755D01*
X32381Y-39783D01*
X32410Y-39755D01*
X32381Y-39727D01*
X32381Y-39783D01*
X32578Y-39924D02*
X32803Y-39924D01*
X32663Y-39727D02*
X32663Y-40233D01*
X32691Y-40289D01*
X32747Y-40317D01*
X32803Y-40317D01*
X32859Y-40374D02*
X33309Y-40374D01*
X33562Y-39727D02*
X33675Y-39727D01*
X33731Y-39755D01*
X33787Y-39811D01*
X33816Y-39924D01*
X33816Y-40120D01*
X33787Y-40233D01*
X33731Y-40289D01*
X33675Y-40317D01*
X33562Y-40317D01*
X33506Y-40289D01*
X33450Y-40233D01*
X33422Y-40120D01*
X33422Y-39924D01*
X33450Y-39811D01*
X33506Y-39755D01*
X33562Y-39727D01*
X34069Y-39924D02*
X34069Y-40514D01*
X34069Y-39952D02*
X34125Y-39924D01*
X34237Y-39924D01*
X34294Y-39952D01*
X34322Y-39980D01*
X34350Y-40036D01*
X34350Y-40205D01*
X34322Y-40261D01*
X34294Y-40289D01*
X34237Y-40317D01*
X34125Y-40317D01*
X34069Y-40289D01*
X34828Y-40289D02*
X34772Y-40317D01*
X34659Y-40317D01*
X34603Y-40289D01*
X34575Y-40233D01*
X34575Y-40008D01*
X34603Y-39952D01*
X34659Y-39924D01*
X34772Y-39924D01*
X34828Y-39952D01*
X34856Y-40008D01*
X34856Y-40064D01*
X34575Y-40120D01*
X35109Y-39924D02*
X35109Y-40317D01*
X35109Y-39980D02*
X35137Y-39952D01*
X35194Y-39924D01*
X35278Y-39924D01*
X35334Y-39952D01*
X35362Y-40008D01*
X35362Y-40317D01*
X35643Y-40317D02*
X35643Y-39924D01*
X35643Y-40036D02*
X35672Y-39980D01*
X35700Y-39952D01*
X35756Y-39924D01*
X35812Y-39924D01*
X36262Y-40317D02*
X36262Y-40008D01*
X36234Y-39952D01*
X36178Y-39924D01*
X36065Y-39924D01*
X36009Y-39952D01*
X36262Y-40289D02*
X36206Y-40317D01*
X36065Y-40317D01*
X36009Y-40289D01*
X35981Y-40233D01*
X35981Y-40177D01*
X36009Y-40120D01*
X36065Y-40092D01*
X36206Y-40092D01*
X36262Y-40064D01*
X36796Y-40317D02*
X36796Y-39727D01*
X36796Y-40289D02*
X36740Y-40317D01*
X36628Y-40317D01*
X36571Y-40289D01*
X36543Y-40261D01*
X36515Y-40205D01*
X36515Y-40036D01*
X36543Y-39980D01*
X36571Y-39952D01*
X36628Y-39924D01*
X36740Y-39924D01*
X36796Y-39952D01*
X37078Y-40317D02*
X37078Y-39924D01*
X37078Y-39727D02*
X37050Y-39755D01*
X37078Y-39783D01*
X37106Y-39755D01*
X37078Y-39727D01*
X37078Y-39783D01*
X37612Y-40317D02*
X37612Y-40008D01*
X37584Y-39952D01*
X37528Y-39924D01*
X37415Y-39924D01*
X37359Y-39952D01*
X37612Y-40289D02*
X37556Y-40317D01*
X37415Y-40317D01*
X37359Y-40289D01*
X37331Y-40233D01*
X37331Y-40177D01*
X37359Y-40120D01*
X37415Y-40092D01*
X37556Y-40092D01*
X37612Y-40064D01*
X37809Y-39924D02*
X38034Y-39924D01*
X37893Y-39727D02*
X37893Y-40233D01*
X37921Y-40289D01*
X37978Y-40317D01*
X38034Y-40317D01*
X38231Y-40317D02*
X38231Y-39924D01*
X38231Y-39727D02*
X38203Y-39755D01*
X38231Y-39783D01*
X38259Y-39755D01*
X38231Y-39727D01*
X38231Y-39783D01*
X38596Y-40317D02*
X38540Y-40289D01*
X38512Y-40261D01*
X38484Y-40205D01*
X38484Y-40036D01*
X38512Y-39980D01*
X38540Y-39952D01*
X38596Y-39924D01*
X38681Y-39924D01*
X38737Y-39952D01*
X38765Y-39980D01*
X38793Y-40036D01*
X38793Y-40205D01*
X38765Y-40261D01*
X38737Y-40289D01*
X38681Y-40317D01*
X38596Y-40317D01*
X39046Y-39924D02*
X39046Y-40317D01*
X39046Y-39980D02*
X39074Y-39952D01*
X39131Y-39924D01*
X39215Y-39924D01*
X39271Y-39952D01*
X39299Y-40008D01*
X39299Y-40317D01*
X39440Y-40374D02*
X39890Y-40374D01*
X40368Y-40317D02*
X40171Y-40036D01*
X40030Y-40317D02*
X40030Y-39727D01*
X40255Y-39727D01*
X40312Y-39755D01*
X40340Y-39783D01*
X40368Y-39839D01*
X40368Y-39924D01*
X40340Y-39980D01*
X40312Y-40008D01*
X40255Y-40036D01*
X40030Y-40036D01*
X40846Y-40289D02*
X40790Y-40317D01*
X40677Y-40317D01*
X40621Y-40289D01*
X40593Y-40233D01*
X40593Y-40008D01*
X40621Y-39952D01*
X40677Y-39924D01*
X40790Y-39924D01*
X40846Y-39952D01*
X40874Y-40008D01*
X40874Y-40064D01*
X40593Y-40120D01*
X41071Y-39924D02*
X41212Y-40317D01*
X41352Y-39924D01*
X41577Y-40092D02*
X42027Y-40092D01*
X42308Y-40317D02*
X42308Y-39727D01*
X42449Y-39727D01*
X42533Y-39755D01*
X42589Y-39811D01*
X42618Y-39867D01*
X42646Y-39980D01*
X42646Y-40064D01*
X42618Y-40177D01*
X42589Y-40233D01*
X42533Y-40289D01*
X42449Y-40317D01*
X42308Y-40317D01*
G54D12*
X52250Y-37500D02*
X53750Y-36000D01*
X53750Y-36000D02*
X53750Y-35500D01*
X53750Y-35500D02*
X53250Y-35000D01*
X53250Y-35000D02*
X52250Y-35000D01*
X52250Y-35000D02*
X51250Y-36000D01*
X51250Y-36000D02*
X51250Y-37000D01*
X51250Y-37000D02*
X51750Y-37500D01*
X51750Y-37500D02*
X52250Y-37500D01*
X46400Y-44300D02*
X47900Y-42800D01*
X47900Y-42800D02*
X47900Y-42300D01*
X47900Y-42300D02*
X47400Y-41800D01*
X47400Y-41800D02*
X46400Y-41800D01*
X46400Y-41800D02*
X45400Y-42800D01*
X45400Y-42800D02*
X45400Y-43800D01*
X45400Y-43800D02*
X45900Y-44300D01*
X45900Y-44300D02*
X46400Y-44300D01*
X76267Y-30173D02*
X77767Y-28673D01*
X77767Y-28673D02*
X77767Y-28173D01*
X77767Y-28173D02*
X77267Y-27673D01*
X77267Y-27673D02*
X76267Y-27673D01*
X76267Y-27673D02*
X75267Y-28673D01*
X75267Y-28673D02*
X75267Y-29673D01*
X75267Y-29673D02*
X75767Y-30173D01*
X75767Y-30173D02*
X76267Y-30173D01*
G54D13*
X51000Y-41630D02*
X49500Y-41630D01*
G54D14*
X49499Y-41650D02*
G75*
G03X51000Y-41650I750J-999D01*
G74*
G01*
G54D12*
X46250Y-37000D02*
X45850Y-37000D01*
X45850Y-37000D02*
X45850Y-37400D01*
X45850Y-37400D02*
X42650Y-37400D01*
X42650Y-37400D02*
X42650Y-36600D01*
X42650Y-36600D02*
X45850Y-36600D01*
X45850Y-36600D02*
X45850Y-37000D01*
X45850Y-37200D02*
X45650Y-37400D01*
X42250Y-37000D02*
X42650Y-37000D01*
X55750Y-33000D02*
X55750Y-33400D01*
X55750Y-33400D02*
X56150Y-33400D01*
X56150Y-33400D02*
X56150Y-36600D01*
X56150Y-36600D02*
X55350Y-36600D01*
X55350Y-36600D02*
X55350Y-33400D01*
X55350Y-33400D02*
X55750Y-33400D01*
X55950Y-33400D02*
X56150Y-33600D01*
X55750Y-37000D02*
X55750Y-36600D01*
X54750Y-33000D02*
X54350Y-33000D01*
X54350Y-33000D02*
X54350Y-33400D01*
X54350Y-33400D02*
X51150Y-33400D01*
X51150Y-33400D02*
X51150Y-32600D01*
X51150Y-32600D02*
X54350Y-32600D01*
X54350Y-32600D02*
X54350Y-33000D01*
X54350Y-33200D02*
X54150Y-33400D01*
X50750Y-33000D02*
X51150Y-33000D01*
X82767Y-29173D02*
X82367Y-29173D01*
X82367Y-29173D02*
X82367Y-29573D01*
X82367Y-29573D02*
X79167Y-29573D01*
X79167Y-29573D02*
X79167Y-28773D01*
X79167Y-28773D02*
X82367Y-28773D01*
X82367Y-28773D02*
X82367Y-29173D01*
X82367Y-29373D02*
X82167Y-29573D01*
X78767Y-29173D02*
X79167Y-29173D01*
X34000Y-37750D02*
X34000Y-37350D01*
X34000Y-37350D02*
X33600Y-37350D01*
X33600Y-37350D02*
X33600Y-34150D01*
X33600Y-34150D02*
X34400Y-34150D01*
X34400Y-34150D02*
X34400Y-37350D01*
X34400Y-37350D02*
X34000Y-37350D01*
X33800Y-37350D02*
X33600Y-37150D01*
X34000Y-33750D02*
X34000Y-34150D01*
X30019Y-22204D02*
X30019Y-22604D01*
X30019Y-27204D02*
X30019Y-26804D01*
X30519Y-26804D02*
X29519Y-26804D01*
X29519Y-26804D02*
X29519Y-22604D01*
X29519Y-22604D02*
X30519Y-22604D01*
X30519Y-22604D02*
X30519Y-26804D01*
X30319Y-22604D02*
X30519Y-22804D01*
X50250Y-44500D02*
X50250Y-44900D01*
X50250Y-44900D02*
X50650Y-44900D01*
X50650Y-44900D02*
X50650Y-48100D01*
X50650Y-48100D02*
X49850Y-48100D01*
X49850Y-48100D02*
X49850Y-44900D01*
X49850Y-44900D02*
X50250Y-44900D01*
X50450Y-44900D02*
X50650Y-45100D01*
X50250Y-48500D02*
X50250Y-48100D01*
X72750Y-40500D02*
X72350Y-40500D01*
X72350Y-40500D02*
X72350Y-40900D01*
X72350Y-40900D02*
X69150Y-40900D01*
X69150Y-40900D02*
X69150Y-40100D01*
X69150Y-40100D02*
X72350Y-40100D01*
X72350Y-40100D02*
X72350Y-40500D01*
X72350Y-40700D02*
X72150Y-40900D01*
X68750Y-40500D02*
X69150Y-40500D01*
X75000Y-38900D02*
X75400Y-38900D01*
X75400Y-38900D02*
X75400Y-38500D01*
X75400Y-38500D02*
X78600Y-38500D01*
X78600Y-38500D02*
X78600Y-39300D01*
X78600Y-39300D02*
X75400Y-39300D01*
X75400Y-39300D02*
X75400Y-38900D01*
X75400Y-38700D02*
X75600Y-38500D01*
X79000Y-38900D02*
X78600Y-38900D01*
X53250Y-41000D02*
X53250Y-41400D01*
X53250Y-41400D02*
X53650Y-41400D01*
X53650Y-41400D02*
X53650Y-44600D01*
X53650Y-44600D02*
X52850Y-44600D01*
X52850Y-44600D02*
X52850Y-41400D01*
X52850Y-41400D02*
X53250Y-41400D01*
X53450Y-41400D02*
X53650Y-41600D01*
X53250Y-45000D02*
X53250Y-44600D01*
X43250Y-41000D02*
X43250Y-41400D01*
X43250Y-41400D02*
X43650Y-41400D01*
X43650Y-41400D02*
X43650Y-44600D01*
X43650Y-44600D02*
X42850Y-44600D01*
X42850Y-44600D02*
X42850Y-41400D01*
X42850Y-41400D02*
X43250Y-41400D01*
X43450Y-41400D02*
X43650Y-41600D01*
X43250Y-45000D02*
X43250Y-44600D01*
X81267Y-32173D02*
X80867Y-32173D01*
X80867Y-32173D02*
X80867Y-32573D01*
X80867Y-32573D02*
X77667Y-32573D01*
X77667Y-32573D02*
X77667Y-31773D01*
X77667Y-31773D02*
X80867Y-31773D01*
X80867Y-31773D02*
X80867Y-32173D01*
X80867Y-32373D02*
X80667Y-32573D01*
X77267Y-32173D02*
X77667Y-32173D01*
X77267Y-35173D02*
X77667Y-35173D01*
X77667Y-35173D02*
X77667Y-34773D01*
X77667Y-34773D02*
X80867Y-34773D01*
X80867Y-34773D02*
X80867Y-35573D01*
X80867Y-35573D02*
X77667Y-35573D01*
X77667Y-35573D02*
X77667Y-35173D01*
X77667Y-34973D02*
X77867Y-34773D01*
X81267Y-35173D02*
X80867Y-35173D01*
X66850Y-42900D02*
X66850Y-40100D01*
X66850Y-40100D02*
X67650Y-40100D01*
X67650Y-40100D02*
X67650Y-42900D01*
X67650Y-42900D02*
X66850Y-42900D01*
X67050Y-42900D02*
X66850Y-42700D01*
X64750Y-45500D02*
X64750Y-45800D01*
X64750Y-45800D02*
X64350Y-45800D01*
X64350Y-45800D02*
X64350Y-48200D01*
X64350Y-48200D02*
X64750Y-48200D01*
X64750Y-48200D02*
X64750Y-48500D01*
X64750Y-48200D02*
X65150Y-48200D01*
X65150Y-48200D02*
X65150Y-45800D01*
X65150Y-45800D02*
X64750Y-45800D01*
X64350Y-46000D02*
X65150Y-46000D01*
X65150Y-46100D02*
X64350Y-46100D01*
G54D15*
X63500Y-44000D02*
X63500Y-43500D01*
X63500Y-43500D02*
X64500Y-43500D01*
X64500Y-43500D02*
X64500Y-44000D01*
X63000Y-44000D02*
X63000Y-40000D01*
X63000Y-40000D02*
X65000Y-40000D01*
X65000Y-40000D02*
X65000Y-44000D01*
X65000Y-44000D02*
X63000Y-44000D01*
G54D12*
X59330Y-40992D02*
X59330Y-41392D01*
X59330Y-41392D02*
X59730Y-41392D01*
X59730Y-41392D02*
X59730Y-44592D01*
X59730Y-44592D02*
X58930Y-44592D01*
X58930Y-44592D02*
X58930Y-41392D01*
X58930Y-41392D02*
X59330Y-41392D01*
X59530Y-41392D02*
X59730Y-41592D01*
X59330Y-44992D02*
X59330Y-44592D01*
X61500Y-49000D02*
X61500Y-48600D01*
X61500Y-48600D02*
X61100Y-48600D01*
X61100Y-48600D02*
X61100Y-45400D01*
X61100Y-45400D02*
X61900Y-45400D01*
X61900Y-45400D02*
X61900Y-48600D01*
X61900Y-48600D02*
X61500Y-48600D01*
X61300Y-48600D02*
X61100Y-48400D01*
X61500Y-45000D02*
X61500Y-45400D01*
X67250Y-49000D02*
X67250Y-48600D01*
X67250Y-48600D02*
X66850Y-48600D01*
X66850Y-48600D02*
X66850Y-45400D01*
X66850Y-45400D02*
X67650Y-45400D01*
X67650Y-45400D02*
X67650Y-48600D01*
X67650Y-48600D02*
X67250Y-48600D01*
X67050Y-48600D02*
X66850Y-48400D01*
X67250Y-45000D02*
X67250Y-45400D01*
X43700Y-46100D02*
X43700Y-48900D01*
X43700Y-48900D02*
X42900Y-48900D01*
X42900Y-48900D02*
X42900Y-46100D01*
X42900Y-46100D02*
X43700Y-46100D01*
X43500Y-46100D02*
X43700Y-46300D01*
X43707Y-50096D02*
X43707Y-52896D01*
X43707Y-52896D02*
X42907Y-52896D01*
X42907Y-52896D02*
X42907Y-50096D01*
X42907Y-50096D02*
X43707Y-50096D01*
X43507Y-50096D02*
X43707Y-50296D01*
X70100Y-27850D02*
X72900Y-27850D01*
X72900Y-27850D02*
X72900Y-28650D01*
X72900Y-28650D02*
X70100Y-28650D01*
X70100Y-28650D02*
X70100Y-27850D01*
X70100Y-28050D02*
X70300Y-27850D01*
X76867Y-26573D02*
X76867Y-23773D01*
X76867Y-23773D02*
X77667Y-23773D01*
X77667Y-23773D02*
X77667Y-26573D01*
X77667Y-26573D02*
X76867Y-26573D01*
X77067Y-26573D02*
X76867Y-26373D01*
X34167Y-22773D02*
X34167Y-25573D01*
X34167Y-25573D02*
X33367Y-25573D01*
X33367Y-25573D02*
X33367Y-22773D01*
X33367Y-22773D02*
X34167Y-22773D01*
X33967Y-22773D02*
X34167Y-22973D01*
X37850Y-25600D02*
X40650Y-25600D01*
X40650Y-25600D02*
X40650Y-26400D01*
X40650Y-26400D02*
X37850Y-26400D01*
X37850Y-26400D02*
X37850Y-25600D01*
X37850Y-25800D02*
X38050Y-25600D01*
X36350Y-36900D02*
X36350Y-34100D01*
X36350Y-34100D02*
X37150Y-34100D01*
X37150Y-34100D02*
X37150Y-36900D01*
X37150Y-36900D02*
X36350Y-36900D01*
X36550Y-36900D02*
X36350Y-36700D01*
X73350Y-40100D02*
X76150Y-40100D01*
X76150Y-40100D02*
X76150Y-40900D01*
X76150Y-40900D02*
X73350Y-40900D01*
X73350Y-40900D02*
X73350Y-40100D01*
X73350Y-40300D02*
X73550Y-40100D01*
X35667Y-29773D02*
X35667Y-32573D01*
X35667Y-32573D02*
X34867Y-32573D01*
X34867Y-32573D02*
X34867Y-29773D01*
X34867Y-29773D02*
X35667Y-29773D01*
X35467Y-29773D02*
X35667Y-29973D01*
X44850Y-41400D02*
X44850Y-38600D01*
X44850Y-38600D02*
X45650Y-38600D01*
X45650Y-38600D02*
X45650Y-41400D01*
X45650Y-41400D02*
X44850Y-41400D01*
X45050Y-41400D02*
X44850Y-41200D01*
X56150Y-45100D02*
X56150Y-47900D01*
X56150Y-47900D02*
X55350Y-47900D01*
X55350Y-47900D02*
X55350Y-45100D01*
X55350Y-45100D02*
X56150Y-45100D01*
X55950Y-45100D02*
X56150Y-45300D01*
X48850Y-35400D02*
X48850Y-32600D01*
X48850Y-32600D02*
X49650Y-32600D01*
X49650Y-32600D02*
X49650Y-35400D01*
X49650Y-35400D02*
X48850Y-35400D01*
X49050Y-35400D02*
X48850Y-35200D01*
G54D10*
X50775Y-32000D02*
X50750Y-26000D01*
X42825Y-32000D02*
X42825Y-26000D01*
X42812Y-32019D02*
X50765Y-32019D01*
X50765Y-25980D02*
X42812Y-25980D01*
G54D12*
X59750Y-36500D02*
X59750Y-33500D01*
X59750Y-33500D02*
X60750Y-33500D01*
X60750Y-33500D02*
X60750Y-36500D01*
X60750Y-36500D02*
X59750Y-36500D01*
X59750Y-33750D02*
X60750Y-33750D01*
X60750Y-34000D02*
X59750Y-34000D01*
X60250Y-36500D02*
X60250Y-37000D01*
X60250Y-33500D02*
X60250Y-33000D01*
X37767Y-31173D02*
X37767Y-28173D01*
X37767Y-28173D02*
X38767Y-28173D01*
X38767Y-28173D02*
X38767Y-31173D01*
X38767Y-31173D02*
X37767Y-31173D01*
X37767Y-28423D02*
X38767Y-28423D01*
X38767Y-28673D02*
X37767Y-28673D01*
X38267Y-31173D02*
X38267Y-31673D01*
X38267Y-28173D02*
X38267Y-27673D01*
X36267Y-28173D02*
X33267Y-28173D01*
X33267Y-28173D02*
X33267Y-27173D01*
X33267Y-27173D02*
X36267Y-27173D01*
X36267Y-27173D02*
X36267Y-28173D01*
X33517Y-28173D02*
X33517Y-27173D01*
X33767Y-27173D02*
X33767Y-28173D01*
X36267Y-27673D02*
X36767Y-27673D01*
X33267Y-27673D02*
X32767Y-27673D01*
G54D10*
X43024Y-34000D02*
G75*
G03X43024Y-34000I-1774J0D01*
G74*
G01*
X43120Y-34000D02*
G75*
G03X43120Y-34000I-1870J0D01*
G74*
G01*
X66274Y-34750D02*
G75*
G03X66274Y-34750I-1774J0D01*
G74*
G01*
X66370Y-34750D02*
G75*
G03X66370Y-34750I-1870J0D01*
G74*
G01*
G54D12*
X56338Y-52480D02*
X55157Y-52480D01*
X55156Y-52479D02*
G75*
G02X56339Y-52479I591J983D01*
G74*
G01*
X50748Y-52480D02*
X49566Y-52480D01*
X49566Y-52479D02*
G75*
G02X50748Y-52479I591J983D01*
G74*
G01*
X30767Y-43673D02*
X29767Y-43673D01*
X30767Y-49673D02*
X29767Y-49673D01*
X30783Y-43673D02*
X30783Y-49673D01*
X29767Y-49673D02*
X29767Y-43673D01*
G54D10*
X64278Y-51500D02*
G75*
G03X64278Y-51500I-278J0D01*
G74*
G01*
X66481Y-51500D02*
G75*
G03X66481Y-51500I-2481J0D01*
G74*
G01*
X41322Y-43173D02*
X41322Y-54590D01*
X41322Y-54590D02*
X32267Y-54590D01*
X32267Y-43173D02*
X32267Y-54590D01*
X32267Y-43173D02*
X41322Y-43173D01*
X80629Y-46968D02*
X80629Y-47165D01*
X80629Y-47165D02*
X81023Y-47165D01*
X81023Y-47165D02*
X81023Y-46968D01*
X83188Y-46968D02*
X83188Y-47165D01*
X83188Y-47165D02*
X82795Y-47165D01*
X82795Y-47165D02*
X82795Y-46968D01*
X83188Y-43031D02*
X83188Y-42834D01*
X83188Y-42834D02*
X82795Y-42834D01*
X82795Y-42834D02*
X82795Y-43031D01*
X80629Y-43031D02*
X80629Y-42834D01*
X80629Y-42834D02*
X81023Y-42834D01*
X81023Y-42834D02*
X81023Y-43031D01*
X83582Y-46968D02*
X80433Y-46968D01*
X80433Y-46968D02*
X80433Y-43031D01*
X80433Y-43031D02*
X83582Y-43031D01*
X83582Y-47952D02*
X83582Y-42047D01*
X68818Y-42047D02*
X83582Y-42047D01*
X68818Y-47952D02*
X83582Y-47952D01*
X68818Y-42047D02*
X68818Y-47952D01*
X73582Y-49370D02*
X78070Y-49370D01*
X73582Y-51417D02*
X78070Y-51417D01*
X74881Y-49370D02*
X74881Y-51417D01*
X73582Y-49370D02*
X73582Y-51417D01*
X78070Y-49393D02*
X78070Y-51393D01*
G54D16*
X76043Y-51220D02*
X76043Y-49566D01*
G54D12*
X30700Y-39800D02*
X30700Y-39800D01*
X30700Y-39800D02*
X30700Y-39800D01*
X30700Y-33550D02*
X30700Y-32800D01*
X30700Y-32800D02*
X30700Y-32800D01*
X31700Y-33550D02*
X31700Y-39050D01*
X29700Y-39050D02*
X29700Y-33550D01*
X30200Y-39050D02*
X29700Y-38550D01*
X29700Y-33550D02*
X31700Y-33550D01*
X29700Y-39050D02*
X31700Y-39050D01*
X30700Y-39800D02*
X30700Y-39050D01*
X63500Y-31750D02*
X63500Y-29750D01*
X64500Y-31750D02*
X64500Y-29750D01*
X65500Y-31750D02*
X65500Y-29750D01*
X66500Y-29750D02*
X66500Y-23750D01*
X66500Y-23750D02*
X62500Y-23750D01*
X62500Y-23750D02*
X62500Y-29750D01*
X62500Y-29750D02*
X66500Y-29750D01*
X66000Y-26750D02*
X62500Y-26750D01*
X66000Y-26750D02*
X66500Y-26750D01*
X58250Y-31750D02*
X58250Y-29750D01*
X59250Y-31750D02*
X59250Y-29750D01*
X60250Y-31750D02*
X60250Y-29750D01*
X61250Y-29750D02*
X61250Y-23750D01*
X61250Y-23750D02*
X57250Y-23750D01*
X57250Y-23750D02*
X57250Y-29750D01*
X57250Y-29750D02*
X61250Y-29750D01*
X60750Y-26750D02*
X57250Y-26750D01*
X60750Y-26750D02*
X61250Y-26750D01*
X72500Y-30000D02*
X72500Y-32000D01*
X71500Y-30000D02*
X71500Y-32000D01*
X70500Y-30000D02*
X70500Y-32000D01*
X69500Y-32000D02*
X69500Y-38000D01*
X69500Y-38000D02*
X73500Y-38000D01*
X73500Y-38000D02*
X73500Y-32000D01*
X73500Y-32000D02*
X69500Y-32000D01*
X70000Y-35000D02*
X73500Y-35000D01*
X70000Y-35000D02*
X69500Y-35000D01*
X83740Y-37598D02*
X85314Y-37598D01*
X85314Y-37598D02*
X85314Y-38385D01*
X85314Y-38385D02*
X83740Y-38385D01*
X83740Y-37086D02*
X82007Y-37086D01*
X82007Y-40472D02*
X83740Y-40472D01*
X83740Y-40472D02*
X83740Y-37086D01*
X82007Y-40472D02*
X82007Y-37086D01*
X55799Y-44307D02*
X57299Y-42807D01*
X57299Y-42807D02*
X57299Y-42307D01*
X57299Y-42307D02*
X56799Y-41807D01*
X56799Y-41807D02*
X55799Y-41807D01*
X55799Y-41807D02*
X54799Y-42807D01*
X54799Y-42807D02*
X54799Y-43807D01*
X54799Y-43807D02*
X55299Y-44307D01*
X55299Y-44307D02*
X55799Y-44307D01*
X80700Y-25750D02*
X80700Y-25350D01*
X80700Y-20750D02*
X80700Y-21150D01*
X80200Y-21150D02*
X81200Y-21150D01*
X81200Y-21150D02*
X81200Y-25350D01*
X81200Y-25350D02*
X80200Y-25350D01*
X80200Y-25350D02*
X80200Y-21150D01*
X80400Y-25350D02*
X80200Y-25150D01*
X55200Y-28600D02*
X55200Y-31400D01*
X55200Y-31400D02*
X54400Y-31400D01*
X54400Y-31400D02*
X54400Y-28600D01*
X54400Y-28600D02*
X55200Y-28600D01*
X55000Y-28600D02*
X55200Y-28800D01*
X32367Y-32573D02*
X32367Y-29773D01*
X32367Y-29773D02*
X33167Y-29773D01*
X33167Y-29773D02*
X33167Y-32573D01*
X33167Y-32573D02*
X32367Y-32573D01*
X32567Y-32573D02*
X32367Y-32373D01*
G54D10*
X37989Y-18229D02*
X37989Y-21970D01*
X37989Y-21970D02*
X74210Y-21970D01*
X74210Y-21970D02*
X74210Y-18229D01*
X74210Y-18229D02*
X37989Y-18229D01*
X74210Y-18131D02*
X77210Y-18131D01*
X77202Y-18131D02*
X77202Y-22068D01*
X74210Y-22068D02*
X77210Y-22068D01*
X74210Y-22068D02*
X74210Y-18131D01*
X34989Y-22068D02*
X34989Y-18131D01*
X37989Y-18131D02*
X34989Y-18131D01*
X37989Y-18131D02*
X37989Y-22068D01*
X37989Y-22068D02*
X34989Y-22068D01*
G54D17*
X50851Y-36950D02*
G75*
G03X50851Y-36950I-1001J0D01*
G74*
G01*
X47251Y-34000D02*
G75*
G03X47251Y-34000I-1001J0D01*
G74*
G01*
X41101Y-37250D02*
G75*
G03X41101Y-37250I-1001J0D01*
G74*
G01*
X49505Y-40000D02*
G75*
G03X49505Y-40000I-1001J0D01*
G74*
G01*
X47201Y-47500D02*
G75*
G03X47201Y-47500I-1001J0D01*
G74*
G01*
X47201Y-51500D02*
G75*
G03X47201Y-51500I-1001J0D01*
G74*
G01*
X59505Y-47007D02*
G75*
G03X59505Y-47007I-1001J0D01*
G74*
G01*
X72501Y-25250D02*
G75*
G03X72501Y-25250I-1001J0D01*
G74*
G01*
G54D15*
X82986Y-18897D02*
G75*
G03X82986Y-18897I-900J0D01*
G74*
G01*
X31018Y-18897D02*
G75*
G03X31018Y-18897I-900J0D01*
G74*
G01*
X82986Y-53149D02*
G75*
G03X82986Y-53149I-900J0D01*
G74*
G01*
X31018Y-53149D02*
G75*
G03X31018Y-53149I-900J0D01*
G74*
G01*
G54D13*
X53977Y-37168D02*
X53939Y-37149D01*
X53901Y-37111D01*
X53844Y-37054D01*
X53806Y-37035D01*
X53768Y-37035D01*
X53787Y-37130D02*
X53749Y-37111D01*
X53710Y-37073D01*
X53691Y-36997D01*
X53691Y-36863D01*
X53710Y-36787D01*
X53749Y-36749D01*
X53787Y-36730D01*
X53863Y-36730D01*
X53901Y-36749D01*
X53939Y-36787D01*
X53958Y-36863D01*
X53958Y-36997D01*
X53939Y-37073D01*
X53901Y-37111D01*
X53863Y-37130D01*
X53787Y-37130D01*
X54091Y-36730D02*
X54339Y-36730D01*
X54206Y-36882D01*
X54263Y-36882D01*
X54301Y-36901D01*
X54320Y-36920D01*
X54339Y-36958D01*
X54339Y-37054D01*
X54320Y-37092D01*
X54301Y-37111D01*
X54263Y-37130D01*
X54149Y-37130D01*
X54110Y-37111D01*
X54091Y-37092D01*
X52997Y-37590D02*
X53054Y-37609D01*
X53073Y-37628D01*
X53092Y-37666D01*
X53092Y-37723D01*
X53073Y-37761D01*
X53054Y-37780D01*
X53016Y-37799D01*
X52863Y-37799D01*
X52863Y-37399D01*
X52997Y-37399D01*
X53035Y-37418D01*
X53054Y-37437D01*
X53073Y-37475D01*
X53073Y-37513D01*
X53054Y-37552D01*
X53035Y-37571D01*
X52997Y-37590D01*
X52863Y-37590D01*
X53492Y-37761D02*
X53473Y-37780D01*
X53416Y-37799D01*
X53378Y-37799D01*
X53321Y-37780D01*
X53283Y-37742D01*
X53263Y-37704D01*
X53244Y-37628D01*
X53244Y-37571D01*
X53263Y-37494D01*
X53283Y-37456D01*
X53321Y-37418D01*
X53378Y-37399D01*
X53416Y-37399D01*
X53473Y-37418D01*
X53492Y-37437D01*
X53625Y-37399D02*
X53873Y-37399D01*
X53740Y-37552D01*
X53797Y-37552D01*
X53835Y-37571D01*
X53854Y-37590D01*
X53873Y-37628D01*
X53873Y-37723D01*
X53854Y-37761D01*
X53835Y-37780D01*
X53797Y-37799D01*
X53683Y-37799D01*
X53644Y-37780D01*
X53625Y-37761D01*
X54006Y-37399D02*
X54254Y-37399D01*
X54121Y-37552D01*
X54178Y-37552D01*
X54216Y-37571D01*
X54235Y-37590D01*
X54254Y-37628D01*
X54254Y-37723D01*
X54235Y-37761D01*
X54216Y-37780D01*
X54178Y-37799D01*
X54063Y-37799D01*
X54025Y-37780D01*
X54006Y-37761D01*
X54387Y-37399D02*
X54654Y-37399D01*
X54483Y-37799D01*
X47875Y-43979D02*
X47837Y-43960D01*
X47799Y-43922D01*
X47741Y-43865D01*
X47703Y-43846D01*
X47665Y-43846D01*
X47684Y-43941D02*
X47646Y-43922D01*
X47608Y-43884D01*
X47589Y-43808D01*
X47589Y-43674D01*
X47608Y-43598D01*
X47646Y-43560D01*
X47684Y-43541D01*
X47761Y-43541D01*
X47799Y-43560D01*
X47837Y-43598D01*
X47856Y-43674D01*
X47856Y-43808D01*
X47837Y-43884D01*
X47799Y-43922D01*
X47761Y-43941D01*
X47684Y-43941D01*
X48218Y-43541D02*
X48027Y-43541D01*
X48008Y-43731D01*
X48027Y-43712D01*
X48065Y-43693D01*
X48161Y-43693D01*
X48199Y-43712D01*
X48218Y-43731D01*
X48237Y-43770D01*
X48237Y-43865D01*
X48218Y-43903D01*
X48199Y-43922D01*
X48161Y-43941D01*
X48065Y-43941D01*
X48027Y-43922D01*
X48008Y-43903D01*
X47209Y-44401D02*
X47267Y-44420D01*
X47286Y-44439D01*
X47305Y-44477D01*
X47305Y-44534D01*
X47286Y-44572D01*
X47267Y-44591D01*
X47228Y-44610D01*
X47076Y-44610D01*
X47076Y-44210D01*
X47209Y-44210D01*
X47247Y-44229D01*
X47267Y-44248D01*
X47286Y-44286D01*
X47286Y-44325D01*
X47267Y-44363D01*
X47247Y-44382D01*
X47209Y-44401D01*
X47076Y-44401D01*
X47705Y-44572D02*
X47686Y-44591D01*
X47628Y-44610D01*
X47590Y-44610D01*
X47533Y-44591D01*
X47495Y-44553D01*
X47476Y-44515D01*
X47457Y-44439D01*
X47457Y-44382D01*
X47476Y-44305D01*
X47495Y-44267D01*
X47533Y-44229D01*
X47590Y-44210D01*
X47628Y-44210D01*
X47686Y-44229D01*
X47705Y-44248D01*
X47838Y-44210D02*
X48086Y-44210D01*
X47952Y-44363D01*
X48009Y-44363D01*
X48047Y-44382D01*
X48067Y-44401D01*
X48086Y-44439D01*
X48086Y-44534D01*
X48067Y-44572D01*
X48047Y-44591D01*
X48009Y-44610D01*
X47895Y-44610D01*
X47857Y-44591D01*
X47838Y-44572D01*
X48219Y-44210D02*
X48467Y-44210D01*
X48333Y-44363D01*
X48390Y-44363D01*
X48428Y-44382D01*
X48447Y-44401D01*
X48467Y-44439D01*
X48467Y-44534D01*
X48447Y-44572D01*
X48428Y-44591D01*
X48390Y-44610D01*
X48276Y-44610D01*
X48238Y-44591D01*
X48219Y-44572D01*
X48600Y-44210D02*
X48867Y-44210D01*
X48695Y-44610D01*
X76221Y-27444D02*
X76183Y-27425D01*
X76145Y-27386D01*
X76088Y-27329D01*
X76050Y-27310D01*
X76012Y-27310D01*
X76031Y-27405D02*
X75993Y-27386D01*
X75955Y-27348D01*
X75936Y-27272D01*
X75936Y-27139D01*
X75955Y-27063D01*
X75993Y-27025D01*
X76031Y-27005D01*
X76107Y-27005D01*
X76145Y-27025D01*
X76183Y-27063D01*
X76202Y-27139D01*
X76202Y-27272D01*
X76183Y-27348D01*
X76145Y-27386D01*
X76107Y-27405D01*
X76031Y-27405D01*
X76583Y-27405D02*
X76355Y-27405D01*
X76469Y-27405D02*
X76469Y-27005D01*
X76431Y-27063D01*
X76393Y-27101D01*
X76355Y-27120D01*
X75477Y-30779D02*
X75534Y-30798D01*
X75553Y-30817D01*
X75572Y-30855D01*
X75572Y-30912D01*
X75553Y-30950D01*
X75534Y-30969D01*
X75496Y-30988D01*
X75344Y-30988D01*
X75344Y-30588D01*
X75477Y-30588D01*
X75515Y-30607D01*
X75534Y-30626D01*
X75553Y-30664D01*
X75553Y-30702D01*
X75534Y-30741D01*
X75515Y-30760D01*
X75477Y-30779D01*
X75344Y-30779D01*
X75972Y-30950D02*
X75953Y-30969D01*
X75896Y-30988D01*
X75858Y-30988D01*
X75801Y-30969D01*
X75763Y-30931D01*
X75744Y-30893D01*
X75725Y-30817D01*
X75725Y-30760D01*
X75744Y-30683D01*
X75763Y-30645D01*
X75801Y-30607D01*
X75858Y-30588D01*
X75896Y-30588D01*
X75953Y-30607D01*
X75972Y-30626D01*
X76106Y-30588D02*
X76353Y-30588D01*
X76220Y-30741D01*
X76277Y-30741D01*
X76315Y-30760D01*
X76334Y-30779D01*
X76353Y-30817D01*
X76353Y-30912D01*
X76334Y-30950D01*
X76315Y-30969D01*
X76277Y-30988D01*
X76163Y-30988D01*
X76125Y-30969D01*
X76106Y-30950D01*
X76487Y-30588D02*
X76734Y-30588D01*
X76601Y-30741D01*
X76658Y-30741D01*
X76696Y-30760D01*
X76715Y-30779D01*
X76734Y-30817D01*
X76734Y-30912D01*
X76715Y-30950D01*
X76696Y-30969D01*
X76658Y-30988D01*
X76544Y-30988D01*
X76506Y-30969D01*
X76487Y-30950D01*
X76868Y-30588D02*
X77134Y-30588D01*
X76963Y-30988D01*
G54D18*
X48871Y-42971D02*
X48571Y-42971D01*
X48571Y-42900D01*
X48585Y-42857D01*
X48614Y-42828D01*
X48642Y-42814D01*
X48700Y-42800D01*
X48742Y-42800D01*
X48800Y-42814D01*
X48828Y-42828D01*
X48857Y-42857D01*
X48871Y-42900D01*
X48871Y-42971D01*
X48671Y-42542D02*
X48871Y-42542D01*
X48557Y-42614D02*
X48771Y-42685D01*
X48771Y-42500D01*
X51871Y-42942D02*
X51871Y-43085D01*
X51571Y-43085D01*
X51714Y-42842D02*
X51714Y-42742D01*
X51871Y-42700D02*
X51871Y-42842D01*
X51571Y-42842D01*
X51571Y-42700D01*
X51871Y-42571D02*
X51571Y-42571D01*
X51571Y-42500D01*
X51585Y-42457D01*
X51614Y-42428D01*
X51642Y-42414D01*
X51700Y-42400D01*
X51742Y-42400D01*
X51800Y-42414D01*
X51828Y-42428D01*
X51857Y-42457D01*
X51871Y-42500D01*
X51871Y-42571D01*
G54D13*
X44208Y-36246D02*
X44041Y-35984D01*
X43922Y-36246D02*
X43922Y-35696D01*
X44112Y-35696D01*
X44160Y-35722D01*
X44184Y-35748D01*
X44208Y-35801D01*
X44208Y-35879D01*
X44184Y-35931D01*
X44160Y-35958D01*
X44112Y-35984D01*
X43922Y-35984D01*
X44446Y-36246D02*
X44541Y-36246D01*
X44588Y-36220D01*
X44612Y-36193D01*
X44660Y-36115D01*
X44684Y-36010D01*
X44684Y-35801D01*
X44660Y-35748D01*
X44636Y-35722D01*
X44588Y-35696D01*
X44493Y-35696D01*
X44446Y-35722D01*
X44422Y-35748D01*
X44398Y-35801D01*
X44398Y-35931D01*
X44422Y-35984D01*
X44446Y-36010D01*
X44493Y-36036D01*
X44588Y-36036D01*
X44636Y-36010D01*
X44660Y-35984D01*
X44684Y-35931D01*
X44192Y-38332D02*
X43906Y-38332D01*
X44049Y-38332D02*
X44049Y-37782D01*
X44001Y-37861D01*
X43954Y-37913D01*
X43906Y-37939D01*
X44406Y-38332D02*
X44406Y-37782D01*
X44454Y-38123D02*
X44597Y-38332D01*
X44597Y-37966D02*
X44406Y-38175D01*
X55025Y-35083D02*
X54763Y-35250D01*
X55025Y-35369D02*
X54475Y-35369D01*
X54475Y-35178D01*
X54501Y-35130D01*
X54528Y-35107D01*
X54580Y-35083D01*
X54659Y-35083D01*
X54711Y-35107D01*
X54737Y-35130D01*
X54763Y-35178D01*
X54763Y-35369D01*
X54475Y-34630D02*
X54475Y-34869D01*
X54737Y-34892D01*
X54711Y-34869D01*
X54685Y-34821D01*
X54685Y-34702D01*
X54711Y-34654D01*
X54737Y-34630D01*
X54790Y-34607D01*
X54921Y-34607D01*
X54973Y-34630D01*
X54999Y-34654D01*
X55025Y-34702D01*
X55025Y-34821D01*
X54999Y-34869D01*
X54973Y-34892D01*
X57033Y-35059D02*
X57033Y-35345D01*
X57033Y-35202D02*
X56483Y-35202D01*
X56562Y-35249D01*
X56614Y-35297D01*
X56640Y-35345D01*
X57033Y-34845D02*
X56483Y-34845D01*
X56824Y-34797D02*
X57033Y-34654D01*
X56666Y-34654D02*
X56876Y-34845D01*
X52672Y-32387D02*
X52505Y-32126D01*
X52386Y-32387D02*
X52386Y-31837D01*
X52577Y-31837D01*
X52624Y-31864D01*
X52648Y-31890D01*
X52672Y-31942D01*
X52672Y-32021D01*
X52648Y-32073D01*
X52624Y-32099D01*
X52577Y-32126D01*
X52386Y-32126D01*
X53101Y-32021D02*
X53101Y-32387D01*
X52982Y-31811D02*
X52863Y-32204D01*
X53172Y-32204D01*
X52073Y-33609D02*
X52383Y-33609D01*
X52216Y-33819D01*
X52287Y-33819D01*
X52335Y-33845D01*
X52359Y-33871D01*
X52383Y-33923D01*
X52383Y-34054D01*
X52359Y-34107D01*
X52335Y-34133D01*
X52287Y-34159D01*
X52145Y-34159D01*
X52097Y-34133D01*
X52073Y-34107D01*
X52549Y-33609D02*
X52859Y-33609D01*
X52692Y-33819D01*
X52764Y-33819D01*
X52811Y-33845D01*
X52835Y-33871D01*
X52859Y-33923D01*
X52859Y-34054D01*
X52835Y-34107D01*
X52811Y-34133D01*
X52764Y-34159D01*
X52621Y-34159D01*
X52573Y-34133D01*
X52549Y-34107D01*
X53168Y-33609D02*
X53216Y-33609D01*
X53264Y-33635D01*
X53287Y-33662D01*
X53311Y-33714D01*
X53335Y-33819D01*
X53335Y-33950D01*
X53311Y-34054D01*
X53287Y-34107D01*
X53264Y-34133D01*
X53216Y-34159D01*
X53168Y-34159D01*
X53121Y-34133D01*
X53097Y-34107D01*
X53073Y-34054D01*
X53049Y-33950D01*
X53049Y-33819D01*
X53073Y-33714D01*
X53097Y-33662D01*
X53121Y-33635D01*
X53168Y-33609D01*
X80465Y-28411D02*
X80299Y-28149D01*
X80180Y-28411D02*
X80180Y-27861D01*
X80370Y-27861D01*
X80418Y-27887D01*
X80442Y-27913D01*
X80465Y-27966D01*
X80465Y-28044D01*
X80442Y-28097D01*
X80418Y-28123D01*
X80370Y-28149D01*
X80180Y-28149D01*
X80942Y-28411D02*
X80656Y-28411D01*
X80799Y-28411D02*
X80799Y-27861D01*
X80751Y-27940D01*
X80704Y-27992D01*
X80656Y-28018D01*
X81251Y-27861D02*
X81299Y-27861D01*
X81346Y-27887D01*
X81370Y-27913D01*
X81394Y-27966D01*
X81418Y-28071D01*
X81418Y-28202D01*
X81394Y-28306D01*
X81370Y-28359D01*
X81346Y-28385D01*
X81299Y-28411D01*
X81251Y-28411D01*
X81204Y-28385D01*
X81180Y-28359D01*
X81156Y-28306D01*
X81132Y-28202D01*
X81132Y-28071D01*
X81156Y-27966D01*
X81180Y-27913D01*
X81204Y-27887D01*
X81251Y-27861D01*
X80692Y-30498D02*
X80406Y-30498D01*
X80549Y-30498D02*
X80549Y-29948D01*
X80501Y-30026D01*
X80454Y-30079D01*
X80406Y-30105D01*
X81001Y-29948D02*
X81049Y-29948D01*
X81096Y-29974D01*
X81120Y-30000D01*
X81144Y-30052D01*
X81168Y-30157D01*
X81168Y-30288D01*
X81144Y-30393D01*
X81120Y-30445D01*
X81096Y-30472D01*
X81049Y-30498D01*
X81001Y-30498D01*
X80954Y-30472D01*
X80930Y-30445D01*
X80906Y-30393D01*
X80882Y-30288D01*
X80882Y-30157D01*
X80906Y-30052D01*
X80930Y-30000D01*
X80954Y-29974D01*
X81001Y-29948D01*
X33422Y-36071D02*
X33160Y-36238D01*
X33422Y-36357D02*
X32872Y-36357D01*
X32872Y-36166D01*
X32898Y-36119D01*
X32925Y-36095D01*
X32977Y-36071D01*
X33055Y-36071D01*
X33108Y-36095D01*
X33134Y-36119D01*
X33160Y-36166D01*
X33160Y-36357D01*
X33422Y-35595D02*
X33422Y-35880D01*
X33422Y-35738D02*
X32872Y-35738D01*
X32951Y-35785D01*
X33003Y-35833D01*
X33029Y-35880D01*
X32872Y-35142D02*
X32872Y-35380D01*
X33134Y-35404D01*
X33108Y-35380D01*
X33082Y-35333D01*
X33082Y-35214D01*
X33108Y-35166D01*
X33134Y-35142D01*
X33186Y-35119D01*
X33317Y-35119D01*
X33370Y-35142D01*
X33396Y-35166D01*
X33422Y-35214D01*
X33422Y-35333D01*
X33396Y-35380D01*
X33370Y-35404D01*
X34755Y-36095D02*
X35122Y-36095D01*
X34546Y-36214D02*
X34939Y-36333D01*
X34939Y-36023D01*
X34572Y-35880D02*
X34572Y-35547D01*
X35122Y-35761D01*
X35122Y-35357D02*
X34572Y-35357D01*
X34913Y-35309D02*
X35122Y-35166D01*
X34755Y-35166D02*
X34965Y-35357D01*
X29277Y-24768D02*
X29015Y-24935D01*
X29277Y-25054D02*
X28727Y-25054D01*
X28727Y-24863D01*
X28753Y-24815D01*
X28780Y-24792D01*
X28832Y-24768D01*
X28911Y-24768D01*
X28963Y-24792D01*
X28989Y-24815D01*
X29015Y-24863D01*
X29015Y-25054D01*
X28727Y-24601D02*
X28727Y-24292D01*
X28937Y-24458D01*
X28937Y-24387D01*
X28963Y-24339D01*
X28989Y-24315D01*
X29042Y-24292D01*
X29172Y-24292D01*
X29225Y-24315D01*
X29251Y-24339D01*
X29277Y-24387D01*
X29277Y-24530D01*
X29251Y-24577D01*
X29225Y-24601D01*
X30997Y-24996D02*
X31364Y-24996D01*
X30788Y-25115D02*
X31181Y-25234D01*
X31181Y-24925D01*
X31311Y-24734D02*
X31338Y-24710D01*
X31364Y-24734D01*
X31338Y-24758D01*
X31311Y-24734D01*
X31364Y-24734D01*
X30814Y-24544D02*
X30814Y-24210D01*
X31364Y-24425D01*
X31364Y-24020D02*
X30814Y-24020D01*
X31207Y-23853D01*
X30814Y-23686D01*
X31364Y-23686D01*
X49435Y-46778D02*
X49173Y-46944D01*
X49435Y-47063D02*
X48885Y-47063D01*
X48885Y-46873D01*
X48911Y-46825D01*
X48937Y-46801D01*
X48989Y-46778D01*
X49068Y-46778D01*
X49120Y-46801D01*
X49147Y-46825D01*
X49173Y-46873D01*
X49173Y-47063D01*
X49435Y-46301D02*
X49435Y-46587D01*
X49435Y-46444D02*
X48885Y-46444D01*
X48963Y-46492D01*
X49016Y-46540D01*
X49042Y-46587D01*
X49068Y-45873D02*
X49435Y-45873D01*
X48859Y-45992D02*
X49251Y-46111D01*
X49251Y-45801D01*
X51600Y-46790D02*
X51600Y-47075D01*
X51600Y-46932D02*
X51050Y-46932D01*
X51129Y-46980D01*
X51181Y-47028D01*
X51207Y-47075D01*
X51286Y-46504D02*
X51260Y-46551D01*
X51233Y-46575D01*
X51181Y-46599D01*
X51155Y-46599D01*
X51102Y-46575D01*
X51076Y-46551D01*
X51050Y-46504D01*
X51050Y-46409D01*
X51076Y-46361D01*
X51102Y-46337D01*
X51155Y-46313D01*
X51181Y-46313D01*
X51233Y-46337D01*
X51260Y-46361D01*
X51286Y-46409D01*
X51286Y-46504D01*
X51312Y-46551D01*
X51338Y-46575D01*
X51391Y-46599D01*
X51495Y-46599D01*
X51548Y-46575D01*
X51574Y-46551D01*
X51600Y-46504D01*
X51600Y-46409D01*
X51574Y-46361D01*
X51548Y-46337D01*
X51495Y-46313D01*
X51391Y-46313D01*
X51338Y-46337D01*
X51312Y-46361D01*
X51286Y-46409D01*
X51050Y-46004D02*
X51050Y-45956D01*
X51076Y-45909D01*
X51102Y-45885D01*
X51155Y-45861D01*
X51260Y-45837D01*
X51391Y-45837D01*
X51495Y-45861D01*
X51548Y-45885D01*
X51574Y-45909D01*
X51600Y-45956D01*
X51600Y-46004D01*
X51574Y-46051D01*
X51548Y-46075D01*
X51495Y-46099D01*
X51391Y-46123D01*
X51260Y-46123D01*
X51155Y-46099D01*
X51102Y-46075D01*
X51076Y-46051D01*
X51050Y-46004D01*
X70507Y-39868D02*
X70340Y-39606D01*
X70221Y-39868D02*
X70221Y-39318D01*
X70411Y-39318D01*
X70459Y-39344D01*
X70483Y-39370D01*
X70507Y-39423D01*
X70507Y-39501D01*
X70483Y-39554D01*
X70459Y-39580D01*
X70411Y-39606D01*
X70221Y-39606D01*
X70697Y-39370D02*
X70721Y-39344D01*
X70769Y-39318D01*
X70888Y-39318D01*
X70935Y-39344D01*
X70959Y-39370D01*
X70983Y-39423D01*
X70983Y-39475D01*
X70959Y-39554D01*
X70673Y-39868D01*
X70983Y-39868D01*
X70140Y-41168D02*
X70450Y-41168D01*
X70283Y-41378D01*
X70355Y-41378D01*
X70402Y-41404D01*
X70426Y-41430D01*
X70450Y-41482D01*
X70450Y-41613D01*
X70426Y-41666D01*
X70402Y-41692D01*
X70355Y-41718D01*
X70212Y-41718D01*
X70164Y-41692D01*
X70140Y-41666D01*
X70617Y-41168D02*
X70926Y-41168D01*
X70759Y-41378D01*
X70831Y-41378D01*
X70878Y-41404D01*
X70902Y-41430D01*
X70926Y-41482D01*
X70926Y-41613D01*
X70902Y-41666D01*
X70878Y-41692D01*
X70831Y-41718D01*
X70688Y-41718D01*
X70640Y-41692D01*
X70617Y-41666D01*
X71140Y-41718D02*
X71140Y-41168D01*
X71188Y-41509D02*
X71331Y-41718D01*
X71331Y-41352D02*
X71140Y-41561D01*
X76916Y-38322D02*
X76750Y-38060D01*
X76630Y-38322D02*
X76630Y-37772D01*
X76821Y-37772D01*
X76869Y-37798D01*
X76892Y-37825D01*
X76916Y-37877D01*
X76916Y-37955D01*
X76892Y-38008D01*
X76869Y-38034D01*
X76821Y-38060D01*
X76630Y-38060D01*
X77392Y-38322D02*
X77107Y-38322D01*
X77250Y-38322D02*
X77250Y-37772D01*
X77202Y-37851D01*
X77154Y-37903D01*
X77107Y-37929D01*
X76702Y-40022D02*
X76416Y-40022D01*
X76559Y-40022D02*
X76559Y-39472D01*
X76511Y-39551D01*
X76464Y-39603D01*
X76416Y-39629D01*
X77011Y-39472D02*
X77059Y-39472D01*
X77107Y-39498D01*
X77130Y-39525D01*
X77154Y-39577D01*
X77178Y-39682D01*
X77178Y-39813D01*
X77154Y-39917D01*
X77130Y-39970D01*
X77107Y-39996D01*
X77059Y-40022D01*
X77011Y-40022D01*
X76964Y-39996D01*
X76940Y-39970D01*
X76916Y-39917D01*
X76892Y-39813D01*
X76892Y-39682D01*
X76916Y-39577D01*
X76940Y-39525D01*
X76964Y-39498D01*
X77011Y-39472D01*
X77392Y-40022D02*
X77392Y-39472D01*
X77440Y-39813D02*
X77583Y-40022D01*
X77583Y-39655D02*
X77392Y-39865D01*
X52584Y-43234D02*
X52322Y-43401D01*
X52584Y-43520D02*
X52034Y-43520D01*
X52034Y-43330D01*
X52061Y-43282D01*
X52087Y-43258D01*
X52139Y-43234D01*
X52218Y-43234D01*
X52270Y-43258D01*
X52296Y-43282D01*
X52322Y-43330D01*
X52322Y-43520D01*
X52584Y-42758D02*
X52584Y-43044D01*
X52584Y-42901D02*
X52034Y-42901D01*
X52113Y-42949D01*
X52165Y-42996D01*
X52191Y-43044D01*
X52087Y-42568D02*
X52061Y-42544D01*
X52034Y-42496D01*
X52034Y-42377D01*
X52061Y-42330D01*
X52087Y-42306D01*
X52139Y-42282D01*
X52191Y-42282D01*
X52270Y-42306D01*
X52584Y-42591D01*
X52584Y-42282D01*
X54553Y-43211D02*
X54553Y-43496D01*
X54553Y-43353D02*
X54003Y-43353D01*
X54081Y-43401D01*
X54134Y-43449D01*
X54160Y-43496D01*
X54003Y-42901D02*
X54003Y-42853D01*
X54029Y-42806D01*
X54055Y-42782D01*
X54108Y-42758D01*
X54212Y-42734D01*
X54343Y-42734D01*
X54448Y-42758D01*
X54500Y-42782D01*
X54527Y-42806D01*
X54553Y-42853D01*
X54553Y-42901D01*
X54527Y-42949D01*
X54500Y-42972D01*
X54448Y-42996D01*
X54343Y-43020D01*
X54212Y-43020D01*
X54108Y-42996D01*
X54055Y-42972D01*
X54029Y-42949D01*
X54003Y-42901D01*
X54553Y-42520D02*
X54003Y-42520D01*
X54343Y-42472D02*
X54553Y-42330D01*
X54186Y-42330D02*
X54396Y-42520D01*
X42545Y-43234D02*
X42283Y-43401D01*
X42545Y-43520D02*
X41995Y-43520D01*
X41995Y-43330D01*
X42021Y-43282D01*
X42047Y-43258D01*
X42100Y-43234D01*
X42178Y-43234D01*
X42231Y-43258D01*
X42257Y-43282D01*
X42283Y-43330D01*
X42283Y-43520D01*
X42545Y-42758D02*
X42545Y-43044D01*
X42545Y-42901D02*
X41995Y-42901D01*
X42074Y-42949D01*
X42126Y-42996D01*
X42152Y-43044D01*
X42545Y-42282D02*
X42545Y-42568D01*
X42545Y-42425D02*
X41995Y-42425D01*
X42074Y-42472D01*
X42126Y-42520D01*
X42152Y-42568D01*
X44513Y-43211D02*
X44513Y-43496D01*
X44513Y-43353D02*
X43963Y-43353D01*
X44042Y-43401D01*
X44094Y-43449D01*
X44121Y-43496D01*
X43963Y-42901D02*
X43963Y-42853D01*
X43990Y-42806D01*
X44016Y-42782D01*
X44068Y-42758D01*
X44173Y-42734D01*
X44304Y-42734D01*
X44409Y-42758D01*
X44461Y-42782D01*
X44487Y-42806D01*
X44513Y-42853D01*
X44513Y-42901D01*
X44487Y-42949D01*
X44461Y-42972D01*
X44409Y-42996D01*
X44304Y-43020D01*
X44173Y-43020D01*
X44068Y-42996D01*
X44016Y-42972D01*
X43990Y-42949D01*
X43963Y-42901D01*
X44513Y-42520D02*
X43963Y-42520D01*
X44304Y-42472D02*
X44513Y-42330D01*
X44147Y-42330D02*
X44356Y-42520D01*
X79168Y-31561D02*
X79001Y-31299D01*
X78882Y-31561D02*
X78882Y-31011D01*
X79073Y-31011D01*
X79121Y-31037D01*
X79144Y-31063D01*
X79168Y-31115D01*
X79168Y-31194D01*
X79144Y-31246D01*
X79121Y-31273D01*
X79073Y-31299D01*
X78882Y-31299D01*
X79597Y-31011D02*
X79501Y-31011D01*
X79454Y-31037D01*
X79430Y-31063D01*
X79382Y-31142D01*
X79359Y-31246D01*
X79359Y-31456D01*
X79382Y-31508D01*
X79406Y-31535D01*
X79454Y-31561D01*
X79549Y-31561D01*
X79597Y-31535D01*
X79621Y-31508D01*
X79644Y-31456D01*
X79644Y-31325D01*
X79621Y-31273D01*
X79597Y-31246D01*
X79549Y-31220D01*
X79454Y-31220D01*
X79406Y-31246D01*
X79382Y-31273D01*
X79359Y-31325D01*
X78609Y-32979D02*
X78918Y-32979D01*
X78751Y-33189D01*
X78823Y-33189D01*
X78871Y-33215D01*
X78894Y-33241D01*
X78918Y-33293D01*
X78918Y-33424D01*
X78894Y-33477D01*
X78871Y-33503D01*
X78823Y-33529D01*
X78680Y-33529D01*
X78632Y-33503D01*
X78609Y-33477D01*
X79085Y-32979D02*
X79394Y-32979D01*
X79228Y-33189D01*
X79299Y-33189D01*
X79347Y-33215D01*
X79371Y-33241D01*
X79394Y-33293D01*
X79394Y-33424D01*
X79371Y-33477D01*
X79347Y-33503D01*
X79299Y-33529D01*
X79156Y-33529D01*
X79109Y-33503D01*
X79085Y-33477D01*
X79704Y-32979D02*
X79751Y-32979D01*
X79799Y-33005D01*
X79823Y-33032D01*
X79847Y-33084D01*
X79871Y-33189D01*
X79871Y-33320D01*
X79847Y-33424D01*
X79823Y-33477D01*
X79799Y-33503D01*
X79751Y-33529D01*
X79704Y-33529D01*
X79656Y-33503D01*
X79632Y-33477D01*
X79609Y-33424D01*
X79585Y-33320D01*
X79585Y-33189D01*
X79609Y-33084D01*
X79632Y-33032D01*
X79656Y-33005D01*
X79704Y-32979D01*
X79184Y-34595D02*
X79017Y-34333D01*
X78898Y-34595D02*
X78898Y-34045D01*
X79089Y-34045D01*
X79136Y-34072D01*
X79160Y-34098D01*
X79184Y-34150D01*
X79184Y-34229D01*
X79160Y-34281D01*
X79136Y-34307D01*
X79089Y-34333D01*
X78898Y-34333D01*
X79351Y-34045D02*
X79684Y-34045D01*
X79470Y-34595D01*
X78970Y-36295D02*
X78684Y-36295D01*
X78827Y-36295D02*
X78827Y-35745D01*
X78779Y-35824D01*
X78732Y-35876D01*
X78684Y-35902D01*
X79279Y-35745D02*
X79327Y-35745D01*
X79374Y-35772D01*
X79398Y-35798D01*
X79422Y-35850D01*
X79446Y-35955D01*
X79446Y-36086D01*
X79422Y-36191D01*
X79398Y-36243D01*
X79374Y-36269D01*
X79327Y-36295D01*
X79279Y-36295D01*
X79232Y-36269D01*
X79208Y-36243D01*
X79184Y-36191D01*
X79160Y-36086D01*
X79160Y-35955D01*
X79184Y-35850D01*
X79208Y-35798D01*
X79232Y-35772D01*
X79279Y-35745D01*
X79660Y-36295D02*
X79660Y-35745D01*
X79708Y-36086D02*
X79851Y-36295D01*
X79851Y-35929D02*
X79660Y-36138D01*
X66586Y-41757D02*
X66605Y-41776D01*
X66624Y-41833D01*
X66624Y-41871D01*
X66605Y-41928D01*
X66567Y-41966D01*
X66529Y-41985D01*
X66453Y-42004D01*
X66395Y-42004D01*
X66319Y-41985D01*
X66281Y-41966D01*
X66243Y-41928D01*
X66224Y-41871D01*
X66224Y-41833D01*
X66243Y-41776D01*
X66262Y-41757D01*
X66262Y-41604D02*
X66243Y-41585D01*
X66224Y-41547D01*
X66224Y-41452D01*
X66243Y-41414D01*
X66262Y-41395D01*
X66300Y-41376D01*
X66338Y-41376D01*
X66395Y-41395D01*
X66624Y-41623D01*
X66624Y-41376D01*
X66262Y-41223D02*
X66243Y-41204D01*
X66224Y-41166D01*
X66224Y-41071D01*
X66243Y-41033D01*
X66262Y-41014D01*
X66300Y-40995D01*
X66338Y-40995D01*
X66395Y-41014D01*
X66624Y-41242D01*
X66624Y-40995D01*
X68199Y-42119D02*
X68199Y-42347D01*
X68199Y-42233D02*
X67799Y-42233D01*
X67856Y-42271D01*
X67894Y-42309D01*
X67913Y-42347D01*
X67799Y-41871D02*
X67799Y-41833D01*
X67818Y-41795D01*
X67837Y-41776D01*
X67875Y-41757D01*
X67951Y-41738D01*
X68046Y-41738D01*
X68123Y-41757D01*
X68161Y-41776D01*
X68180Y-41795D01*
X68199Y-41833D01*
X68199Y-41871D01*
X68180Y-41909D01*
X68161Y-41928D01*
X68123Y-41947D01*
X68046Y-41966D01*
X67951Y-41966D01*
X67875Y-41947D01*
X67837Y-41928D01*
X67818Y-41909D01*
X67799Y-41871D01*
X67799Y-41490D02*
X67799Y-41452D01*
X67818Y-41414D01*
X67837Y-41395D01*
X67875Y-41376D01*
X67951Y-41357D01*
X68046Y-41357D01*
X68123Y-41376D01*
X68161Y-41395D01*
X68180Y-41414D01*
X68199Y-41452D01*
X68199Y-41490D01*
X68180Y-41528D01*
X68161Y-41547D01*
X68123Y-41566D01*
X68046Y-41585D01*
X67951Y-41585D01*
X67875Y-41566D01*
X67837Y-41547D01*
X67818Y-41528D01*
X67799Y-41490D01*
X67932Y-41185D02*
X68199Y-41185D01*
X67970Y-41185D02*
X67951Y-41166D01*
X67932Y-41128D01*
X67932Y-41071D01*
X67951Y-41033D01*
X67989Y-41014D01*
X68199Y-41014D01*
X67989Y-40690D02*
X67989Y-40823D01*
X68199Y-40823D02*
X67799Y-40823D01*
X67799Y-40633D01*
X64161Y-47295D02*
X63761Y-47295D01*
X63761Y-47199D01*
X63780Y-47142D01*
X63819Y-47104D01*
X63857Y-47085D01*
X63933Y-47066D01*
X63990Y-47066D01*
X64066Y-47085D01*
X64104Y-47104D01*
X64142Y-47142D01*
X64161Y-47199D01*
X64161Y-47295D01*
X63761Y-46704D02*
X63761Y-46895D01*
X63952Y-46914D01*
X63933Y-46895D01*
X63914Y-46857D01*
X63914Y-46761D01*
X63933Y-46723D01*
X63952Y-46704D01*
X63990Y-46685D01*
X64085Y-46685D01*
X64123Y-46704D01*
X64142Y-46723D01*
X64161Y-46761D01*
X64161Y-46857D01*
X64142Y-46895D01*
X64123Y-46914D01*
X65761Y-47857D02*
X65761Y-48085D01*
X65761Y-47971D02*
X65361Y-47971D01*
X65419Y-48009D01*
X65457Y-48047D01*
X65476Y-48085D01*
X65761Y-47685D02*
X65361Y-47685D01*
X65761Y-47457D01*
X65361Y-47457D01*
X65495Y-47095D02*
X65761Y-47095D01*
X65342Y-47190D02*
X65628Y-47285D01*
X65628Y-47038D01*
X65761Y-46676D02*
X65761Y-46904D01*
X65761Y-46790D02*
X65361Y-46790D01*
X65419Y-46828D01*
X65457Y-46866D01*
X65476Y-46904D01*
X65761Y-46295D02*
X65761Y-46523D01*
X65761Y-46409D02*
X65361Y-46409D01*
X65419Y-46447D01*
X65457Y-46485D01*
X65476Y-46523D01*
X65361Y-46161D02*
X65361Y-45895D01*
X65761Y-46066D01*
G54D19*
X63672Y-38992D02*
X63672Y-39559D01*
X63694Y-39626D01*
X63715Y-39659D01*
X63758Y-39692D01*
X63844Y-39692D01*
X63887Y-39659D01*
X63908Y-39626D01*
X63930Y-39559D01*
X63930Y-38992D01*
X64337Y-38992D02*
X64251Y-38992D01*
X64208Y-39026D01*
X64187Y-39059D01*
X64144Y-39159D01*
X64122Y-39292D01*
X64122Y-39559D01*
X64144Y-39626D01*
X64165Y-39659D01*
X64208Y-39692D01*
X64294Y-39692D01*
X64337Y-39659D01*
X64358Y-39626D01*
X64380Y-39559D01*
X64380Y-39392D01*
X64358Y-39326D01*
X64337Y-39292D01*
X64294Y-39259D01*
X64208Y-39259D01*
X64165Y-39292D01*
X64144Y-39326D01*
X64122Y-39392D01*
G54D12*
G54D14*
X62968Y-44189D02*
X63196Y-44189D01*
X63082Y-44889D02*
X63082Y-44189D01*
X63520Y-44889D02*
X63330Y-44889D01*
X63330Y-44189D01*
X63882Y-44822D02*
X63863Y-44856D01*
X63806Y-44889D01*
X63768Y-44889D01*
X63710Y-44856D01*
X63672Y-44789D01*
X63653Y-44722D01*
X63634Y-44589D01*
X63634Y-44489D01*
X63653Y-44356D01*
X63672Y-44289D01*
X63710Y-44222D01*
X63768Y-44189D01*
X63806Y-44189D01*
X63863Y-44222D01*
X63882Y-44256D01*
X64244Y-44189D02*
X64053Y-44189D01*
X64034Y-44522D01*
X64053Y-44489D01*
X64091Y-44456D01*
X64187Y-44456D01*
X64225Y-44489D01*
X64244Y-44522D01*
X64263Y-44589D01*
X64263Y-44756D01*
X64244Y-44822D01*
X64225Y-44856D01*
X64187Y-44889D01*
X64091Y-44889D01*
X64053Y-44856D01*
X64034Y-44822D01*
X64625Y-44189D02*
X64434Y-44189D01*
X64415Y-44522D01*
X64434Y-44489D01*
X64472Y-44456D01*
X64568Y-44456D01*
X64606Y-44489D01*
X64625Y-44522D01*
X64644Y-44589D01*
X64644Y-44756D01*
X64625Y-44822D01*
X64606Y-44856D01*
X64568Y-44889D01*
X64472Y-44889D01*
X64434Y-44856D01*
X64415Y-44822D01*
X65006Y-44189D02*
X64815Y-44189D01*
X64796Y-44522D01*
X64815Y-44489D01*
X64853Y-44456D01*
X64949Y-44456D01*
X64987Y-44489D01*
X65006Y-44522D01*
X65025Y-44589D01*
X65025Y-44756D01*
X65006Y-44822D01*
X64987Y-44856D01*
X64949Y-44889D01*
X64853Y-44889D01*
X64815Y-44856D01*
X64796Y-44822D01*
G54D12*
G54D13*
X58691Y-43266D02*
X58429Y-43432D01*
X58691Y-43552D02*
X58141Y-43552D01*
X58141Y-43361D01*
X58167Y-43313D01*
X58193Y-43290D01*
X58245Y-43266D01*
X58324Y-43266D01*
X58376Y-43290D01*
X58403Y-43313D01*
X58429Y-43361D01*
X58429Y-43552D01*
X58691Y-42790D02*
X58691Y-43075D01*
X58691Y-42932D02*
X58141Y-42932D01*
X58219Y-42980D01*
X58272Y-43028D01*
X58298Y-43075D01*
X58141Y-42361D02*
X58141Y-42456D01*
X58167Y-42504D01*
X58193Y-42528D01*
X58272Y-42575D01*
X58376Y-42599D01*
X58586Y-42599D01*
X58638Y-42575D01*
X58664Y-42552D01*
X58691Y-42504D01*
X58691Y-42409D01*
X58664Y-42361D01*
X58638Y-42337D01*
X58586Y-42313D01*
X58455Y-42313D01*
X58403Y-42337D01*
X58376Y-42361D01*
X58350Y-42409D01*
X58350Y-42504D01*
X58376Y-42552D01*
X58403Y-42575D01*
X58455Y-42599D01*
X60537Y-43567D02*
X60537Y-43852D01*
X60537Y-43710D02*
X59987Y-43710D01*
X60066Y-43757D01*
X60118Y-43805D01*
X60144Y-43852D01*
X59987Y-43257D02*
X59987Y-43210D01*
X60013Y-43162D01*
X60039Y-43138D01*
X60092Y-43114D01*
X60197Y-43091D01*
X60328Y-43091D01*
X60432Y-43114D01*
X60485Y-43138D01*
X60511Y-43162D01*
X60537Y-43210D01*
X60537Y-43257D01*
X60511Y-43305D01*
X60485Y-43329D01*
X60432Y-43352D01*
X60328Y-43376D01*
X60197Y-43376D01*
X60092Y-43352D01*
X60039Y-43329D01*
X60013Y-43305D01*
X59987Y-43257D01*
X59987Y-42781D02*
X59987Y-42733D01*
X60013Y-42686D01*
X60039Y-42662D01*
X60092Y-42638D01*
X60197Y-42614D01*
X60328Y-42614D01*
X60432Y-42638D01*
X60485Y-42662D01*
X60511Y-42686D01*
X60537Y-42733D01*
X60537Y-42781D01*
X60511Y-42829D01*
X60485Y-42852D01*
X60432Y-42876D01*
X60328Y-42900D01*
X60197Y-42900D01*
X60092Y-42876D01*
X60039Y-42852D01*
X60013Y-42829D01*
X59987Y-42781D01*
X60537Y-42400D02*
X59987Y-42400D01*
X60328Y-42352D02*
X60537Y-42210D01*
X60170Y-42210D02*
X60380Y-42400D01*
X60922Y-47321D02*
X60660Y-47488D01*
X60922Y-47607D02*
X60372Y-47607D01*
X60372Y-47416D01*
X60398Y-47369D01*
X60425Y-47345D01*
X60477Y-47321D01*
X60555Y-47321D01*
X60608Y-47345D01*
X60634Y-47369D01*
X60660Y-47416D01*
X60660Y-47607D01*
X60922Y-46845D02*
X60922Y-47130D01*
X60922Y-46988D02*
X60372Y-46988D01*
X60451Y-47035D01*
X60503Y-47083D01*
X60529Y-47130D01*
X60372Y-46678D02*
X60372Y-46345D01*
X60922Y-46559D01*
X62072Y-47726D02*
X62072Y-47416D01*
X62282Y-47583D01*
X62282Y-47511D01*
X62308Y-47464D01*
X62334Y-47440D01*
X62386Y-47416D01*
X62517Y-47416D01*
X62570Y-47440D01*
X62596Y-47464D01*
X62622Y-47511D01*
X62622Y-47654D01*
X62596Y-47702D01*
X62570Y-47726D01*
X62596Y-47178D02*
X62622Y-47178D01*
X62675Y-47202D01*
X62701Y-47226D01*
X62072Y-47011D02*
X62072Y-46702D01*
X62282Y-46869D01*
X62282Y-46797D01*
X62308Y-46749D01*
X62334Y-46726D01*
X62386Y-46702D01*
X62517Y-46702D01*
X62570Y-46726D01*
X62596Y-46749D01*
X62622Y-46797D01*
X62622Y-46940D01*
X62596Y-46988D01*
X62570Y-47011D01*
X62622Y-46488D02*
X62072Y-46488D01*
X62413Y-46440D02*
X62622Y-46297D01*
X62255Y-46297D02*
X62465Y-46488D01*
X66672Y-47321D02*
X66410Y-47488D01*
X66672Y-47607D02*
X66122Y-47607D01*
X66122Y-47416D01*
X66148Y-47369D01*
X66175Y-47345D01*
X66227Y-47321D01*
X66305Y-47321D01*
X66358Y-47345D01*
X66384Y-47369D01*
X66410Y-47416D01*
X66410Y-47607D01*
X66672Y-46845D02*
X66672Y-47130D01*
X66672Y-46988D02*
X66122Y-46988D01*
X66201Y-47035D01*
X66253Y-47083D01*
X66279Y-47130D01*
X66358Y-46559D02*
X66332Y-46607D01*
X66305Y-46630D01*
X66253Y-46654D01*
X66227Y-46654D01*
X66175Y-46630D01*
X66148Y-46607D01*
X66122Y-46559D01*
X66122Y-46464D01*
X66148Y-46416D01*
X66175Y-46392D01*
X66227Y-46369D01*
X66253Y-46369D01*
X66305Y-46392D01*
X66332Y-46416D01*
X66358Y-46464D01*
X66358Y-46559D01*
X66384Y-46607D01*
X66410Y-46630D01*
X66463Y-46654D01*
X66567Y-46654D01*
X66620Y-46630D01*
X66646Y-46607D01*
X66672Y-46559D01*
X66672Y-46464D01*
X66646Y-46416D01*
X66620Y-46392D01*
X66567Y-46369D01*
X66463Y-46369D01*
X66410Y-46392D01*
X66384Y-46416D01*
X66358Y-46464D01*
X67822Y-47726D02*
X67822Y-47416D01*
X68032Y-47583D01*
X68032Y-47511D01*
X68058Y-47464D01*
X68084Y-47440D01*
X68136Y-47416D01*
X68267Y-47416D01*
X68320Y-47440D01*
X68346Y-47464D01*
X68372Y-47511D01*
X68372Y-47654D01*
X68346Y-47702D01*
X68320Y-47726D01*
X68346Y-47178D02*
X68372Y-47178D01*
X68425Y-47202D01*
X68451Y-47226D01*
X67822Y-47011D02*
X67822Y-46702D01*
X68032Y-46869D01*
X68032Y-46797D01*
X68058Y-46749D01*
X68084Y-46726D01*
X68136Y-46702D01*
X68267Y-46702D01*
X68320Y-46726D01*
X68346Y-46749D01*
X68372Y-46797D01*
X68372Y-46940D01*
X68346Y-46988D01*
X68320Y-47011D01*
X68372Y-46488D02*
X67822Y-46488D01*
X68163Y-46440D02*
X68372Y-46297D01*
X68005Y-46297D02*
X68215Y-46488D01*
X42643Y-47698D02*
X42662Y-47717D01*
X42681Y-47774D01*
X42681Y-47812D01*
X42662Y-47869D01*
X42624Y-47907D01*
X42586Y-47926D01*
X42510Y-47945D01*
X42453Y-47945D01*
X42376Y-47926D01*
X42338Y-47907D01*
X42300Y-47869D01*
X42281Y-47812D01*
X42281Y-47774D01*
X42300Y-47717D01*
X42319Y-47698D01*
X42319Y-47545D02*
X42300Y-47526D01*
X42281Y-47488D01*
X42281Y-47393D01*
X42300Y-47355D01*
X42319Y-47336D01*
X42357Y-47317D01*
X42395Y-47317D01*
X42453Y-47336D01*
X42681Y-47564D01*
X42681Y-47317D01*
X42281Y-47069D02*
X42281Y-47031D01*
X42300Y-46993D01*
X42319Y-46974D01*
X42357Y-46955D01*
X42433Y-46936D01*
X42529Y-46936D01*
X42605Y-46955D01*
X42643Y-46974D01*
X42662Y-46993D01*
X42681Y-47031D01*
X42681Y-47069D01*
X42662Y-47107D01*
X42643Y-47126D01*
X42605Y-47145D01*
X42529Y-47164D01*
X42433Y-47164D01*
X42357Y-47145D01*
X42319Y-47126D01*
X42300Y-47107D01*
X42281Y-47069D01*
X44256Y-47888D02*
X44256Y-48117D01*
X44256Y-48002D02*
X43856Y-48002D01*
X43913Y-48040D01*
X43951Y-48079D01*
X43970Y-48117D01*
X43856Y-47640D02*
X43856Y-47602D01*
X43875Y-47564D01*
X43894Y-47545D01*
X43932Y-47526D01*
X44008Y-47507D01*
X44104Y-47507D01*
X44180Y-47526D01*
X44218Y-47545D01*
X44237Y-47564D01*
X44256Y-47602D01*
X44256Y-47640D01*
X44237Y-47679D01*
X44218Y-47698D01*
X44180Y-47717D01*
X44104Y-47736D01*
X44008Y-47736D01*
X43932Y-47717D01*
X43894Y-47698D01*
X43875Y-47679D01*
X43856Y-47640D01*
X43856Y-47259D02*
X43856Y-47221D01*
X43875Y-47183D01*
X43894Y-47164D01*
X43932Y-47145D01*
X44008Y-47126D01*
X44104Y-47126D01*
X44180Y-47145D01*
X44218Y-47164D01*
X44237Y-47183D01*
X44256Y-47221D01*
X44256Y-47259D01*
X44237Y-47298D01*
X44218Y-47317D01*
X44180Y-47336D01*
X44104Y-47355D01*
X44008Y-47355D01*
X43932Y-47336D01*
X43894Y-47317D01*
X43875Y-47298D01*
X43856Y-47259D01*
X43989Y-46955D02*
X44256Y-46955D01*
X44027Y-46955D02*
X44008Y-46936D01*
X43989Y-46898D01*
X43989Y-46840D01*
X44008Y-46802D01*
X44046Y-46783D01*
X44256Y-46783D01*
X42643Y-51641D02*
X42662Y-51660D01*
X42681Y-51717D01*
X42681Y-51755D01*
X42662Y-51812D01*
X42624Y-51850D01*
X42586Y-51870D01*
X42510Y-51889D01*
X42453Y-51889D01*
X42376Y-51870D01*
X42338Y-51850D01*
X42300Y-51812D01*
X42281Y-51755D01*
X42281Y-51717D01*
X42300Y-51660D01*
X42319Y-51641D01*
X42319Y-51489D02*
X42300Y-51470D01*
X42281Y-51431D01*
X42281Y-51336D01*
X42300Y-51298D01*
X42319Y-51279D01*
X42357Y-51260D01*
X42395Y-51260D01*
X42453Y-51279D01*
X42681Y-51508D01*
X42681Y-51260D01*
X44256Y-52022D02*
X44256Y-52250D01*
X44256Y-52136D02*
X43856Y-52136D01*
X43913Y-52174D01*
X43951Y-52212D01*
X43970Y-52250D01*
X43856Y-51774D02*
X43856Y-51736D01*
X43875Y-51698D01*
X43894Y-51679D01*
X43932Y-51660D01*
X44008Y-51641D01*
X44104Y-51641D01*
X44180Y-51660D01*
X44218Y-51679D01*
X44237Y-51698D01*
X44256Y-51736D01*
X44256Y-51774D01*
X44237Y-51812D01*
X44218Y-51831D01*
X44180Y-51850D01*
X44104Y-51870D01*
X44008Y-51870D01*
X43932Y-51850D01*
X43894Y-51831D01*
X43875Y-51812D01*
X43856Y-51774D01*
X43856Y-51393D02*
X43856Y-51355D01*
X43875Y-51317D01*
X43894Y-51298D01*
X43932Y-51279D01*
X44008Y-51260D01*
X44104Y-51260D01*
X44180Y-51279D01*
X44218Y-51298D01*
X44237Y-51317D01*
X44256Y-51355D01*
X44256Y-51393D01*
X44237Y-51431D01*
X44218Y-51450D01*
X44180Y-51470D01*
X44104Y-51489D01*
X44008Y-51489D01*
X43932Y-51470D01*
X43894Y-51450D01*
X43875Y-51431D01*
X43856Y-51393D01*
X43989Y-51089D02*
X44256Y-51089D01*
X44027Y-51089D02*
X44008Y-51070D01*
X43989Y-51031D01*
X43989Y-50974D01*
X44008Y-50936D01*
X44046Y-50917D01*
X44256Y-50917D01*
X71433Y-27586D02*
X71414Y-27605D01*
X71357Y-27624D01*
X71319Y-27624D01*
X71261Y-27605D01*
X71223Y-27567D01*
X71204Y-27529D01*
X71185Y-27453D01*
X71185Y-27395D01*
X71204Y-27319D01*
X71223Y-27281D01*
X71261Y-27243D01*
X71319Y-27224D01*
X71357Y-27224D01*
X71414Y-27243D01*
X71433Y-27262D01*
X71776Y-27357D02*
X71776Y-27624D01*
X71680Y-27205D02*
X71585Y-27491D01*
X71833Y-27491D01*
X71052Y-29199D02*
X70823Y-29199D01*
X70938Y-29199D02*
X70938Y-28799D01*
X70900Y-28856D01*
X70861Y-28894D01*
X70823Y-28913D01*
X71300Y-28799D02*
X71338Y-28799D01*
X71376Y-28818D01*
X71395Y-28837D01*
X71414Y-28875D01*
X71433Y-28951D01*
X71433Y-29046D01*
X71414Y-29123D01*
X71395Y-29161D01*
X71376Y-29180D01*
X71338Y-29199D01*
X71300Y-29199D01*
X71261Y-29180D01*
X71242Y-29161D01*
X71223Y-29123D01*
X71204Y-29046D01*
X71204Y-28951D01*
X71223Y-28875D01*
X71242Y-28837D01*
X71261Y-28818D01*
X71300Y-28799D01*
X71680Y-28799D02*
X71719Y-28799D01*
X71757Y-28818D01*
X71776Y-28837D01*
X71795Y-28875D01*
X71814Y-28951D01*
X71814Y-29046D01*
X71795Y-29123D01*
X71776Y-29161D01*
X71757Y-29180D01*
X71719Y-29199D01*
X71680Y-29199D01*
X71642Y-29180D01*
X71623Y-29161D01*
X71604Y-29123D01*
X71585Y-29046D01*
X71585Y-28951D01*
X71604Y-28875D01*
X71623Y-28837D01*
X71642Y-28818D01*
X71680Y-28799D01*
X71985Y-28932D02*
X71985Y-29199D01*
X71985Y-28970D02*
X72004Y-28951D01*
X72042Y-28932D01*
X72100Y-28932D01*
X72138Y-28951D01*
X72157Y-28989D01*
X72157Y-29199D01*
X76604Y-25430D02*
X76623Y-25449D01*
X76642Y-25506D01*
X76642Y-25544D01*
X76623Y-25601D01*
X76585Y-25639D01*
X76546Y-25658D01*
X76470Y-25677D01*
X76413Y-25677D01*
X76337Y-25658D01*
X76299Y-25639D01*
X76261Y-25601D01*
X76242Y-25544D01*
X76242Y-25506D01*
X76261Y-25449D01*
X76280Y-25430D01*
X76642Y-25049D02*
X76642Y-25277D01*
X76642Y-25163D02*
X76242Y-25163D01*
X76299Y-25201D01*
X76337Y-25239D01*
X76356Y-25277D01*
X76242Y-24916D02*
X76242Y-24668D01*
X76394Y-24801D01*
X76394Y-24744D01*
X76413Y-24706D01*
X76432Y-24687D01*
X76470Y-24668D01*
X76566Y-24668D01*
X76604Y-24687D01*
X76623Y-24706D01*
X76642Y-24744D01*
X76642Y-24858D01*
X76623Y-24897D01*
X76604Y-24916D01*
X78217Y-25430D02*
X78217Y-25658D01*
X78217Y-25544D02*
X77817Y-25544D01*
X77874Y-25582D01*
X77912Y-25620D01*
X77931Y-25658D01*
X77817Y-25182D02*
X77817Y-25144D01*
X77836Y-25106D01*
X77855Y-25087D01*
X77893Y-25068D01*
X77969Y-25049D01*
X78064Y-25049D01*
X78140Y-25068D01*
X78178Y-25087D01*
X78197Y-25106D01*
X78217Y-25144D01*
X78217Y-25182D01*
X78197Y-25220D01*
X78178Y-25239D01*
X78140Y-25258D01*
X78064Y-25277D01*
X77969Y-25277D01*
X77893Y-25258D01*
X77855Y-25239D01*
X77836Y-25220D01*
X77817Y-25182D01*
X77950Y-24877D02*
X78217Y-24877D01*
X77988Y-24877D02*
X77969Y-24858D01*
X77950Y-24820D01*
X77950Y-24763D01*
X77969Y-24725D01*
X78007Y-24706D01*
X78217Y-24706D01*
X34678Y-24239D02*
X34697Y-24258D01*
X34717Y-24316D01*
X34717Y-24354D01*
X34697Y-24411D01*
X34659Y-24449D01*
X34621Y-24468D01*
X34545Y-24487D01*
X34488Y-24487D01*
X34412Y-24468D01*
X34374Y-24449D01*
X34336Y-24411D01*
X34317Y-24354D01*
X34317Y-24316D01*
X34336Y-24258D01*
X34355Y-24239D01*
X34717Y-24049D02*
X34717Y-23973D01*
X34697Y-23935D01*
X34678Y-23916D01*
X34621Y-23877D01*
X34545Y-23858D01*
X34393Y-23858D01*
X34355Y-23877D01*
X34336Y-23897D01*
X34317Y-23935D01*
X34317Y-24011D01*
X34336Y-24049D01*
X34355Y-24068D01*
X34393Y-24087D01*
X34488Y-24087D01*
X34526Y-24068D01*
X34545Y-24049D01*
X34564Y-24011D01*
X34564Y-23935D01*
X34545Y-23897D01*
X34526Y-23877D01*
X34488Y-23858D01*
X33142Y-24239D02*
X33142Y-24468D01*
X33142Y-24354D02*
X32742Y-24354D01*
X32799Y-24392D01*
X32837Y-24430D01*
X32856Y-24468D01*
X32875Y-24068D02*
X33142Y-24068D01*
X32913Y-24068D02*
X32894Y-24049D01*
X32875Y-24011D01*
X32875Y-23954D01*
X32894Y-23916D01*
X32932Y-23897D01*
X33142Y-23897D01*
X39183Y-25336D02*
X39164Y-25355D01*
X39107Y-25374D01*
X39069Y-25374D01*
X39011Y-25355D01*
X38973Y-25317D01*
X38954Y-25279D01*
X38935Y-25203D01*
X38935Y-25145D01*
X38954Y-25069D01*
X38973Y-25031D01*
X39011Y-24993D01*
X39069Y-24974D01*
X39107Y-24974D01*
X39164Y-24993D01*
X39183Y-25012D01*
X39411Y-25145D02*
X39373Y-25126D01*
X39354Y-25107D01*
X39335Y-25069D01*
X39335Y-25050D01*
X39354Y-25012D01*
X39373Y-24993D01*
X39411Y-24974D01*
X39488Y-24974D01*
X39526Y-24993D01*
X39545Y-25012D01*
X39564Y-25050D01*
X39564Y-25069D01*
X39545Y-25107D01*
X39526Y-25126D01*
X39488Y-25145D01*
X39411Y-25145D01*
X39373Y-25164D01*
X39354Y-25184D01*
X39335Y-25222D01*
X39335Y-25298D01*
X39354Y-25336D01*
X39373Y-25355D01*
X39411Y-25374D01*
X39488Y-25374D01*
X39526Y-25355D01*
X39545Y-25336D01*
X39564Y-25298D01*
X39564Y-25222D01*
X39545Y-25184D01*
X39526Y-25164D01*
X39488Y-25145D01*
X38783Y-26682D02*
X38783Y-26949D01*
X38688Y-26530D02*
X38592Y-26815D01*
X38840Y-26815D01*
X38954Y-26549D02*
X39221Y-26549D01*
X39050Y-26949D01*
X39373Y-26682D02*
X39373Y-26949D01*
X39373Y-26720D02*
X39392Y-26701D01*
X39430Y-26682D01*
X39488Y-26682D01*
X39526Y-26701D01*
X39545Y-26739D01*
X39545Y-26949D01*
X39869Y-26739D02*
X39735Y-26739D01*
X39735Y-26949D02*
X39735Y-26549D01*
X39926Y-26549D01*
X36086Y-35757D02*
X36105Y-35776D01*
X36124Y-35833D01*
X36124Y-35871D01*
X36105Y-35928D01*
X36067Y-35966D01*
X36029Y-35985D01*
X35953Y-36004D01*
X35895Y-36004D01*
X35819Y-35985D01*
X35781Y-35966D01*
X35743Y-35928D01*
X35724Y-35871D01*
X35724Y-35833D01*
X35743Y-35776D01*
X35762Y-35757D01*
X36124Y-35376D02*
X36124Y-35604D01*
X36124Y-35490D02*
X35724Y-35490D01*
X35781Y-35528D01*
X35819Y-35566D01*
X35838Y-35604D01*
X36124Y-35185D02*
X36124Y-35109D01*
X36105Y-35071D01*
X36086Y-35052D01*
X36029Y-35014D01*
X35953Y-34995D01*
X35800Y-34995D01*
X35762Y-35014D01*
X35743Y-35033D01*
X35724Y-35071D01*
X35724Y-35147D01*
X35743Y-35185D01*
X35762Y-35204D01*
X35800Y-35223D01*
X35895Y-35223D01*
X35934Y-35204D01*
X35953Y-35185D01*
X35972Y-35147D01*
X35972Y-35071D01*
X35953Y-35033D01*
X35934Y-35014D01*
X35895Y-34995D01*
X37699Y-35947D02*
X37699Y-36176D01*
X37699Y-36061D02*
X37299Y-36061D01*
X37356Y-36099D01*
X37394Y-36138D01*
X37413Y-36176D01*
X37299Y-35699D02*
X37299Y-35661D01*
X37318Y-35623D01*
X37337Y-35604D01*
X37375Y-35585D01*
X37451Y-35566D01*
X37546Y-35566D01*
X37623Y-35585D01*
X37661Y-35604D01*
X37680Y-35623D01*
X37699Y-35661D01*
X37699Y-35699D01*
X37680Y-35738D01*
X37661Y-35757D01*
X37623Y-35776D01*
X37546Y-35795D01*
X37451Y-35795D01*
X37375Y-35776D01*
X37337Y-35757D01*
X37318Y-35738D01*
X37299Y-35699D01*
X37299Y-35319D02*
X37299Y-35280D01*
X37318Y-35242D01*
X37337Y-35223D01*
X37375Y-35204D01*
X37451Y-35185D01*
X37546Y-35185D01*
X37623Y-35204D01*
X37661Y-35223D01*
X37680Y-35242D01*
X37699Y-35280D01*
X37699Y-35319D01*
X37680Y-35357D01*
X37661Y-35376D01*
X37623Y-35395D01*
X37546Y-35414D01*
X37451Y-35414D01*
X37375Y-35395D01*
X37337Y-35376D01*
X37318Y-35357D01*
X37299Y-35319D01*
X37432Y-35014D02*
X37699Y-35014D01*
X37470Y-35014D02*
X37451Y-34995D01*
X37432Y-34957D01*
X37432Y-34900D01*
X37451Y-34861D01*
X37489Y-34842D01*
X37699Y-34842D01*
X74683Y-39836D02*
X74664Y-39855D01*
X74607Y-39874D01*
X74569Y-39874D01*
X74511Y-39855D01*
X74473Y-39817D01*
X74454Y-39779D01*
X74435Y-39703D01*
X74435Y-39645D01*
X74454Y-39569D01*
X74473Y-39531D01*
X74511Y-39493D01*
X74569Y-39474D01*
X74607Y-39474D01*
X74664Y-39493D01*
X74683Y-39512D01*
X75064Y-39874D02*
X74835Y-39874D01*
X74950Y-39874D02*
X74950Y-39474D01*
X74911Y-39531D01*
X74873Y-39569D01*
X74835Y-39588D01*
X74302Y-41449D02*
X74073Y-41449D01*
X74188Y-41449D02*
X74188Y-41049D01*
X74150Y-41106D01*
X74111Y-41144D01*
X74073Y-41163D01*
X74550Y-41049D02*
X74588Y-41049D01*
X74626Y-41068D01*
X74645Y-41087D01*
X74664Y-41125D01*
X74683Y-41201D01*
X74683Y-41296D01*
X74664Y-41373D01*
X74645Y-41411D01*
X74626Y-41430D01*
X74588Y-41449D01*
X74550Y-41449D01*
X74511Y-41430D01*
X74492Y-41411D01*
X74473Y-41373D01*
X74454Y-41296D01*
X74454Y-41201D01*
X74473Y-41125D01*
X74492Y-41087D01*
X74511Y-41068D01*
X74550Y-41049D01*
X74930Y-41049D02*
X74969Y-41049D01*
X75007Y-41068D01*
X75026Y-41087D01*
X75045Y-41125D01*
X75064Y-41201D01*
X75064Y-41296D01*
X75045Y-41373D01*
X75026Y-41411D01*
X75007Y-41430D01*
X74969Y-41449D01*
X74930Y-41449D01*
X74892Y-41430D01*
X74873Y-41411D01*
X74854Y-41373D01*
X74835Y-41296D01*
X74835Y-41201D01*
X74854Y-41125D01*
X74873Y-41087D01*
X74892Y-41068D01*
X74930Y-41049D01*
X75235Y-41182D02*
X75235Y-41449D01*
X75235Y-41220D02*
X75254Y-41201D01*
X75292Y-41182D01*
X75350Y-41182D01*
X75388Y-41201D01*
X75407Y-41239D01*
X75407Y-41449D01*
X34651Y-31438D02*
X34670Y-31457D01*
X34689Y-31514D01*
X34689Y-31552D01*
X34670Y-31609D01*
X34632Y-31647D01*
X34594Y-31666D01*
X34518Y-31685D01*
X34460Y-31685D01*
X34384Y-31666D01*
X34346Y-31647D01*
X34308Y-31609D01*
X34289Y-31552D01*
X34289Y-31514D01*
X34308Y-31457D01*
X34327Y-31438D01*
X34689Y-31057D02*
X34689Y-31285D01*
X34689Y-31171D02*
X34289Y-31171D01*
X34346Y-31209D01*
X34384Y-31247D01*
X34403Y-31285D01*
X34327Y-30904D02*
X34308Y-30885D01*
X34289Y-30847D01*
X34289Y-30752D01*
X34308Y-30714D01*
X34327Y-30695D01*
X34365Y-30676D01*
X34403Y-30676D01*
X34460Y-30695D01*
X34689Y-30923D01*
X34689Y-30676D01*
X36115Y-31687D02*
X36382Y-31687D01*
X35963Y-31782D02*
X36249Y-31877D01*
X36249Y-31629D01*
X35982Y-31515D02*
X35982Y-31249D01*
X36382Y-31420D01*
X36115Y-31096D02*
X36382Y-31096D01*
X36153Y-31096D02*
X36134Y-31077D01*
X36115Y-31039D01*
X36115Y-30982D01*
X36134Y-30944D01*
X36172Y-30925D01*
X36382Y-30925D01*
X36172Y-30601D02*
X36172Y-30734D01*
X36382Y-30734D02*
X35982Y-30734D01*
X35982Y-30544D01*
X44586Y-40257D02*
X44605Y-40276D01*
X44624Y-40333D01*
X44624Y-40371D01*
X44605Y-40428D01*
X44567Y-40466D01*
X44529Y-40485D01*
X44453Y-40504D01*
X44395Y-40504D01*
X44319Y-40485D01*
X44281Y-40466D01*
X44243Y-40428D01*
X44224Y-40371D01*
X44224Y-40333D01*
X44243Y-40276D01*
X44262Y-40257D01*
X44624Y-39876D02*
X44624Y-40104D01*
X44624Y-39990D02*
X44224Y-39990D01*
X44281Y-40028D01*
X44319Y-40066D01*
X44338Y-40104D01*
X44224Y-39514D02*
X44224Y-39704D01*
X44414Y-39723D01*
X44395Y-39704D01*
X44376Y-39666D01*
X44376Y-39571D01*
X44395Y-39533D01*
X44414Y-39514D01*
X44453Y-39495D01*
X44548Y-39495D01*
X44586Y-39514D01*
X44605Y-39533D01*
X44624Y-39571D01*
X44624Y-39666D01*
X44605Y-39704D01*
X44586Y-39723D01*
X46199Y-40447D02*
X46199Y-40676D01*
X46199Y-40561D02*
X45799Y-40561D01*
X45856Y-40599D01*
X45894Y-40638D01*
X45913Y-40676D01*
X45799Y-40199D02*
X45799Y-40161D01*
X45818Y-40123D01*
X45837Y-40104D01*
X45875Y-40085D01*
X45951Y-40066D01*
X46046Y-40066D01*
X46123Y-40085D01*
X46161Y-40104D01*
X46180Y-40123D01*
X46199Y-40161D01*
X46199Y-40199D01*
X46180Y-40238D01*
X46161Y-40257D01*
X46123Y-40276D01*
X46046Y-40295D01*
X45951Y-40295D01*
X45875Y-40276D01*
X45837Y-40257D01*
X45818Y-40238D01*
X45799Y-40199D01*
X45799Y-39819D02*
X45799Y-39780D01*
X45818Y-39742D01*
X45837Y-39723D01*
X45875Y-39704D01*
X45951Y-39685D01*
X46046Y-39685D01*
X46123Y-39704D01*
X46161Y-39723D01*
X46180Y-39742D01*
X46199Y-39780D01*
X46199Y-39819D01*
X46180Y-39857D01*
X46161Y-39876D01*
X46123Y-39895D01*
X46046Y-39914D01*
X45951Y-39914D01*
X45875Y-39895D01*
X45837Y-39876D01*
X45818Y-39857D01*
X45799Y-39819D01*
X45932Y-39514D02*
X46199Y-39514D01*
X45970Y-39514D02*
X45951Y-39495D01*
X45932Y-39457D01*
X45932Y-39400D01*
X45951Y-39361D01*
X45989Y-39342D01*
X46199Y-39342D01*
X55045Y-46713D02*
X55064Y-46732D01*
X55083Y-46790D01*
X55083Y-46828D01*
X55064Y-46885D01*
X55026Y-46923D01*
X54987Y-46942D01*
X54911Y-46961D01*
X54854Y-46961D01*
X54778Y-46942D01*
X54740Y-46923D01*
X54702Y-46885D01*
X54683Y-46828D01*
X54683Y-46790D01*
X54702Y-46732D01*
X54721Y-46713D01*
X55083Y-46332D02*
X55083Y-46561D01*
X55083Y-46447D02*
X54683Y-46447D01*
X54740Y-46485D01*
X54778Y-46523D01*
X54797Y-46561D01*
X54683Y-46199D02*
X54683Y-45932D01*
X55083Y-46104D01*
X56657Y-46904D02*
X56657Y-47132D01*
X56657Y-47018D02*
X56257Y-47018D01*
X56315Y-47056D01*
X56353Y-47094D01*
X56372Y-47132D01*
X56257Y-46656D02*
X56257Y-46618D01*
X56277Y-46580D01*
X56296Y-46561D01*
X56334Y-46542D01*
X56410Y-46523D01*
X56505Y-46523D01*
X56581Y-46542D01*
X56619Y-46561D01*
X56638Y-46580D01*
X56657Y-46618D01*
X56657Y-46656D01*
X56638Y-46694D01*
X56619Y-46713D01*
X56581Y-46732D01*
X56505Y-46751D01*
X56410Y-46751D01*
X56334Y-46732D01*
X56296Y-46713D01*
X56277Y-46694D01*
X56257Y-46656D01*
X56257Y-46275D02*
X56257Y-46237D01*
X56277Y-46199D01*
X56296Y-46180D01*
X56334Y-46161D01*
X56410Y-46142D01*
X56505Y-46142D01*
X56581Y-46161D01*
X56619Y-46180D01*
X56638Y-46199D01*
X56657Y-46237D01*
X56657Y-46275D01*
X56638Y-46313D01*
X56619Y-46332D01*
X56581Y-46351D01*
X56505Y-46370D01*
X56410Y-46370D01*
X56334Y-46351D01*
X56296Y-46332D01*
X56277Y-46313D01*
X56257Y-46275D01*
X56391Y-45970D02*
X56657Y-45970D01*
X56429Y-45970D02*
X56410Y-45951D01*
X56391Y-45913D01*
X56391Y-45856D01*
X56410Y-45818D01*
X56448Y-45799D01*
X56657Y-45799D01*
X48586Y-34066D02*
X48605Y-34085D01*
X48624Y-34142D01*
X48624Y-34180D01*
X48605Y-34238D01*
X48567Y-34276D01*
X48529Y-34295D01*
X48453Y-34314D01*
X48395Y-34314D01*
X48319Y-34295D01*
X48281Y-34276D01*
X48243Y-34238D01*
X48224Y-34180D01*
X48224Y-34142D01*
X48243Y-34085D01*
X48262Y-34066D01*
X48224Y-33723D02*
X48224Y-33799D01*
X48243Y-33838D01*
X48262Y-33857D01*
X48319Y-33895D01*
X48395Y-33914D01*
X48548Y-33914D01*
X48586Y-33895D01*
X48605Y-33876D01*
X48624Y-33838D01*
X48624Y-33761D01*
X48605Y-33723D01*
X48586Y-33704D01*
X48548Y-33685D01*
X48453Y-33685D01*
X48414Y-33704D01*
X48395Y-33723D01*
X48376Y-33761D01*
X48376Y-33838D01*
X48395Y-33876D01*
X48414Y-33895D01*
X48453Y-33914D01*
X50199Y-34447D02*
X50199Y-34676D01*
X50199Y-34561D02*
X49799Y-34561D01*
X49856Y-34599D01*
X49894Y-34638D01*
X49913Y-34676D01*
X49799Y-34199D02*
X49799Y-34161D01*
X49818Y-34123D01*
X49837Y-34104D01*
X49875Y-34085D01*
X49951Y-34066D01*
X50046Y-34066D01*
X50123Y-34085D01*
X50161Y-34104D01*
X50180Y-34123D01*
X50199Y-34161D01*
X50199Y-34199D01*
X50180Y-34238D01*
X50161Y-34257D01*
X50123Y-34276D01*
X50046Y-34295D01*
X49951Y-34295D01*
X49875Y-34276D01*
X49837Y-34257D01*
X49818Y-34238D01*
X49799Y-34199D01*
X49799Y-33819D02*
X49799Y-33780D01*
X49818Y-33742D01*
X49837Y-33723D01*
X49875Y-33704D01*
X49951Y-33685D01*
X50046Y-33685D01*
X50123Y-33704D01*
X50161Y-33723D01*
X50180Y-33742D01*
X50199Y-33780D01*
X50199Y-33819D01*
X50180Y-33857D01*
X50161Y-33876D01*
X50123Y-33895D01*
X50046Y-33914D01*
X49951Y-33914D01*
X49875Y-33895D01*
X49837Y-33876D01*
X49818Y-33857D01*
X49799Y-33819D01*
X49932Y-33514D02*
X50199Y-33514D01*
X49970Y-33514D02*
X49951Y-33495D01*
X49932Y-33457D01*
X49932Y-33400D01*
X49951Y-33361D01*
X49989Y-33342D01*
X50199Y-33342D01*
G54D10*
X45987Y-23742D02*
X46324Y-23742D01*
X46155Y-24333D02*
X46155Y-23742D01*
X46858Y-24333D02*
X46661Y-24052D01*
X46521Y-24333D02*
X46521Y-23742D01*
X46746Y-23742D01*
X46802Y-23771D01*
X46830Y-23799D01*
X46858Y-23855D01*
X46858Y-23939D01*
X46830Y-23996D01*
X46802Y-24024D01*
X46746Y-24052D01*
X46521Y-24052D01*
X47421Y-24333D02*
X47083Y-24333D01*
X47252Y-24333D02*
X47252Y-23742D01*
X47196Y-23827D01*
X47140Y-23883D01*
X47083Y-23911D01*
X44060Y-25379D02*
X44032Y-25407D01*
X43948Y-25435D01*
X43892Y-25435D01*
X43807Y-25407D01*
X43751Y-25351D01*
X43723Y-25295D01*
X43695Y-25182D01*
X43695Y-25098D01*
X43723Y-24985D01*
X43751Y-24929D01*
X43807Y-24873D01*
X43892Y-24845D01*
X43948Y-24845D01*
X44032Y-24873D01*
X44060Y-24901D01*
X44229Y-24845D02*
X44566Y-24845D01*
X44398Y-25435D02*
X44398Y-24845D01*
X44707Y-24845D02*
X45101Y-25435D01*
X45101Y-24845D02*
X44707Y-25435D01*
X45298Y-24901D02*
X45326Y-24873D01*
X45382Y-24845D01*
X45523Y-24845D01*
X45579Y-24873D01*
X45607Y-24901D01*
X45635Y-24957D01*
X45635Y-25014D01*
X45607Y-25098D01*
X45269Y-25435D01*
X45635Y-25435D01*
X46197Y-25435D02*
X45860Y-25435D01*
X46029Y-25435D02*
X46029Y-24845D01*
X45973Y-24929D01*
X45916Y-24985D01*
X45860Y-25014D01*
X46563Y-24845D02*
X46619Y-24845D01*
X46676Y-24873D01*
X46704Y-24901D01*
X46732Y-24957D01*
X46760Y-25070D01*
X46760Y-25210D01*
X46732Y-25323D01*
X46704Y-25379D01*
X46676Y-25407D01*
X46619Y-25435D01*
X46563Y-25435D01*
X46507Y-25407D01*
X46479Y-25379D01*
X46451Y-25323D01*
X46422Y-25210D01*
X46422Y-25070D01*
X46451Y-24957D01*
X46479Y-24901D01*
X46507Y-24873D01*
X46563Y-24845D01*
X47266Y-24845D02*
X47154Y-24845D01*
X47097Y-24873D01*
X47069Y-24901D01*
X47013Y-24985D01*
X46985Y-25098D01*
X46985Y-25323D01*
X47013Y-25379D01*
X47041Y-25407D01*
X47097Y-25435D01*
X47210Y-25435D01*
X47266Y-25407D01*
X47294Y-25379D01*
X47322Y-25323D01*
X47322Y-25182D01*
X47294Y-25126D01*
X47266Y-25098D01*
X47210Y-25070D01*
X47097Y-25070D01*
X47041Y-25098D01*
X47013Y-25126D01*
X46985Y-25182D01*
X47885Y-25435D02*
X47547Y-25435D01*
X47716Y-25435D02*
X47716Y-24845D01*
X47660Y-24929D01*
X47604Y-24985D01*
X47547Y-25014D01*
X48447Y-25435D02*
X48110Y-25435D01*
X48278Y-25435D02*
X48278Y-24845D01*
X48222Y-24929D01*
X48166Y-24985D01*
X48110Y-25014D01*
X48700Y-25210D02*
X49150Y-25210D01*
X49769Y-25435D02*
X49572Y-25154D01*
X49431Y-25435D02*
X49431Y-24845D01*
X49656Y-24845D01*
X49713Y-24873D01*
X49741Y-24901D01*
X49769Y-24957D01*
X49769Y-25042D01*
X49741Y-25098D01*
X49713Y-25126D01*
X49656Y-25154D01*
X49431Y-25154D01*
G54D13*
X59468Y-35295D02*
X58968Y-35295D01*
X58968Y-35199D01*
X58991Y-35142D01*
X59039Y-35104D01*
X59087Y-35085D01*
X59182Y-35066D01*
X59253Y-35066D01*
X59349Y-35085D01*
X59396Y-35104D01*
X59444Y-35142D01*
X59468Y-35199D01*
X59468Y-35295D01*
X58968Y-34933D02*
X58968Y-34685D01*
X59158Y-34819D01*
X59158Y-34761D01*
X59182Y-34723D01*
X59206Y-34704D01*
X59253Y-34685D01*
X59372Y-34685D01*
X59420Y-34704D01*
X59444Y-34723D01*
X59468Y-34761D01*
X59468Y-34876D01*
X59444Y-34914D01*
X59420Y-34933D01*
X60936Y-36047D02*
X61341Y-36047D01*
X61389Y-36028D01*
X61412Y-36009D01*
X61436Y-35971D01*
X61436Y-35895D01*
X61412Y-35857D01*
X61389Y-35838D01*
X61341Y-35819D01*
X60936Y-35819D01*
X61174Y-35495D02*
X61174Y-35628D01*
X61436Y-35628D02*
X60936Y-35628D01*
X60936Y-35438D01*
X61103Y-35114D02*
X61436Y-35114D01*
X60912Y-35209D02*
X61269Y-35304D01*
X61269Y-35057D01*
X60936Y-34828D02*
X60936Y-34790D01*
X60960Y-34752D01*
X60984Y-34733D01*
X61031Y-34714D01*
X61127Y-34695D01*
X61246Y-34695D01*
X61341Y-34714D01*
X61389Y-34733D01*
X61412Y-34752D01*
X61436Y-34790D01*
X61436Y-34828D01*
X61412Y-34866D01*
X61389Y-34885D01*
X61341Y-34904D01*
X61246Y-34923D01*
X61127Y-34923D01*
X61031Y-34904D01*
X60984Y-34885D01*
X60960Y-34866D01*
X60936Y-34828D01*
X60936Y-34447D02*
X60936Y-34409D01*
X60960Y-34371D01*
X60984Y-34352D01*
X61031Y-34333D01*
X61127Y-34314D01*
X61246Y-34314D01*
X61341Y-34333D01*
X61389Y-34352D01*
X61412Y-34371D01*
X61436Y-34409D01*
X61436Y-34447D01*
X61412Y-34485D01*
X61389Y-34504D01*
X61341Y-34523D01*
X61246Y-34542D01*
X61127Y-34542D01*
X61031Y-34523D01*
X60984Y-34504D01*
X60960Y-34485D01*
X60936Y-34447D01*
X60936Y-34180D02*
X60936Y-33914D01*
X61436Y-34085D01*
X37485Y-29968D02*
X36985Y-29968D01*
X36985Y-29873D01*
X37009Y-29816D01*
X37057Y-29777D01*
X37104Y-29758D01*
X37200Y-29739D01*
X37271Y-29739D01*
X37366Y-29758D01*
X37414Y-29777D01*
X37462Y-29816D01*
X37485Y-29873D01*
X37485Y-29968D01*
X37033Y-29587D02*
X37009Y-29568D01*
X36985Y-29530D01*
X36985Y-29435D01*
X37009Y-29397D01*
X37033Y-29377D01*
X37081Y-29358D01*
X37128Y-29358D01*
X37200Y-29377D01*
X37485Y-29606D01*
X37485Y-29358D01*
X38954Y-30720D02*
X39359Y-30720D01*
X39406Y-30701D01*
X39430Y-30682D01*
X39454Y-30644D01*
X39454Y-30568D01*
X39430Y-30530D01*
X39406Y-30511D01*
X39359Y-30492D01*
X38954Y-30492D01*
X39192Y-30168D02*
X39192Y-30301D01*
X39454Y-30301D02*
X38954Y-30301D01*
X38954Y-30111D01*
X39121Y-29787D02*
X39454Y-29787D01*
X38930Y-29882D02*
X39287Y-29977D01*
X39287Y-29730D01*
X38954Y-29501D02*
X38954Y-29463D01*
X38978Y-29425D01*
X39001Y-29406D01*
X39049Y-29387D01*
X39144Y-29368D01*
X39263Y-29368D01*
X39359Y-29387D01*
X39406Y-29406D01*
X39430Y-29425D01*
X39454Y-29463D01*
X39454Y-29501D01*
X39430Y-29539D01*
X39406Y-29558D01*
X39359Y-29577D01*
X39263Y-29597D01*
X39144Y-29597D01*
X39049Y-29577D01*
X39001Y-29558D01*
X38978Y-29539D01*
X38954Y-29501D01*
X38954Y-29120D02*
X38954Y-29082D01*
X38978Y-29044D01*
X39001Y-29025D01*
X39049Y-29006D01*
X39144Y-28987D01*
X39263Y-28987D01*
X39359Y-29006D01*
X39406Y-29025D01*
X39430Y-29044D01*
X39454Y-29082D01*
X39454Y-29120D01*
X39430Y-29158D01*
X39406Y-29177D01*
X39359Y-29197D01*
X39263Y-29216D01*
X39144Y-29216D01*
X39049Y-29197D01*
X39001Y-29177D01*
X38978Y-29158D01*
X38954Y-29120D01*
X38954Y-28854D02*
X38954Y-28587D01*
X39454Y-28758D01*
X34507Y-26816D02*
X34507Y-26316D01*
X34603Y-26316D01*
X34660Y-26340D01*
X34698Y-26387D01*
X34717Y-26435D01*
X34736Y-26530D01*
X34736Y-26602D01*
X34717Y-26697D01*
X34698Y-26745D01*
X34660Y-26792D01*
X34603Y-26816D01*
X34507Y-26816D01*
X35117Y-26816D02*
X34888Y-26816D01*
X35003Y-26816D02*
X35003Y-26316D01*
X34965Y-26387D01*
X34926Y-26435D01*
X34888Y-26459D01*
X33794Y-28560D02*
X33794Y-28965D01*
X33813Y-29013D01*
X33832Y-29036D01*
X33871Y-29060D01*
X33947Y-29060D01*
X33985Y-29036D01*
X34004Y-29013D01*
X34023Y-28965D01*
X34023Y-28560D01*
X34347Y-28798D02*
X34213Y-28798D01*
X34213Y-29060D02*
X34213Y-28560D01*
X34404Y-28560D01*
X34728Y-28727D02*
X34728Y-29060D01*
X34632Y-28536D02*
X34537Y-28893D01*
X34785Y-28893D01*
X35013Y-28560D02*
X35052Y-28560D01*
X35090Y-28584D01*
X35109Y-28608D01*
X35128Y-28655D01*
X35147Y-28751D01*
X35147Y-28870D01*
X35128Y-28965D01*
X35109Y-29013D01*
X35090Y-29036D01*
X35052Y-29060D01*
X35013Y-29060D01*
X34975Y-29036D01*
X34956Y-29013D01*
X34937Y-28965D01*
X34918Y-28870D01*
X34918Y-28751D01*
X34937Y-28655D01*
X34956Y-28608D01*
X34975Y-28584D01*
X35013Y-28560D01*
X35394Y-28560D02*
X35432Y-28560D01*
X35471Y-28584D01*
X35490Y-28608D01*
X35509Y-28655D01*
X35528Y-28751D01*
X35528Y-28870D01*
X35509Y-28965D01*
X35490Y-29013D01*
X35471Y-29036D01*
X35432Y-29060D01*
X35394Y-29060D01*
X35356Y-29036D01*
X35337Y-29013D01*
X35318Y-28965D01*
X35299Y-28870D01*
X35299Y-28751D01*
X35318Y-28655D01*
X35337Y-28608D01*
X35356Y-28584D01*
X35394Y-28560D01*
X35661Y-28560D02*
X35928Y-28560D01*
X35756Y-29060D01*
G54D10*
X38900Y-34074D02*
X38900Y-34356D01*
X38309Y-34356D01*
X38900Y-33568D02*
X38900Y-33906D01*
X38900Y-33737D02*
X38309Y-33737D01*
X38394Y-33793D01*
X38450Y-33849D01*
X38478Y-33906D01*
X43979Y-34946D02*
X43979Y-35284D01*
X43979Y-35115D02*
X43388Y-35115D01*
X43473Y-35171D01*
X43529Y-35227D01*
X43557Y-35284D01*
X43388Y-34580D02*
X43388Y-34524D01*
X43416Y-34468D01*
X43444Y-34440D01*
X43501Y-34412D01*
X43613Y-34384D01*
X43754Y-34384D01*
X43866Y-34412D01*
X43922Y-34440D01*
X43951Y-34468D01*
X43979Y-34524D01*
X43979Y-34580D01*
X43951Y-34637D01*
X43922Y-34665D01*
X43866Y-34693D01*
X43754Y-34721D01*
X43613Y-34721D01*
X43501Y-34693D01*
X43444Y-34665D01*
X43416Y-34637D01*
X43388Y-34580D01*
X43388Y-34018D02*
X43388Y-33962D01*
X43416Y-33906D01*
X43444Y-33877D01*
X43501Y-33849D01*
X43613Y-33821D01*
X43754Y-33821D01*
X43866Y-33849D01*
X43922Y-33877D01*
X43951Y-33906D01*
X43979Y-33962D01*
X43979Y-34018D01*
X43951Y-34074D01*
X43922Y-34102D01*
X43866Y-34131D01*
X43754Y-34159D01*
X43613Y-34159D01*
X43501Y-34131D01*
X43444Y-34102D01*
X43416Y-34074D01*
X43388Y-34018D01*
X43585Y-33315D02*
X43979Y-33315D01*
X43585Y-33568D02*
X43894Y-33568D01*
X43951Y-33540D01*
X43979Y-33484D01*
X43979Y-33399D01*
X43951Y-33343D01*
X43922Y-33315D01*
X43979Y-33034D02*
X43388Y-33034D01*
X43669Y-33034D02*
X43669Y-32696D01*
X43979Y-32696D02*
X43388Y-32696D01*
X62443Y-34862D02*
X62443Y-35143D01*
X61853Y-35143D01*
X61909Y-34693D02*
X61881Y-34665D01*
X61853Y-34609D01*
X61853Y-34468D01*
X61881Y-34412D01*
X61909Y-34384D01*
X61965Y-34356D01*
X62021Y-34356D01*
X62106Y-34384D01*
X62443Y-34721D01*
X62443Y-34356D01*
X67207Y-35733D02*
X67207Y-36071D01*
X67207Y-35902D02*
X66616Y-35902D01*
X66701Y-35958D01*
X66757Y-36015D01*
X66785Y-36071D01*
X66616Y-35368D02*
X66616Y-35312D01*
X66645Y-35255D01*
X66673Y-35227D01*
X66729Y-35199D01*
X66841Y-35171D01*
X66982Y-35171D01*
X67095Y-35199D01*
X67151Y-35227D01*
X67179Y-35255D01*
X67207Y-35312D01*
X67207Y-35368D01*
X67179Y-35424D01*
X67151Y-35452D01*
X67095Y-35480D01*
X66982Y-35508D01*
X66841Y-35508D01*
X66729Y-35480D01*
X66673Y-35452D01*
X66645Y-35424D01*
X66616Y-35368D01*
X66616Y-34805D02*
X66616Y-34749D01*
X66645Y-34693D01*
X66673Y-34665D01*
X66729Y-34637D01*
X66841Y-34609D01*
X66982Y-34609D01*
X67095Y-34637D01*
X67151Y-34665D01*
X67179Y-34693D01*
X67207Y-34749D01*
X67207Y-34805D01*
X67179Y-34862D01*
X67151Y-34890D01*
X67095Y-34918D01*
X66982Y-34946D01*
X66841Y-34946D01*
X66729Y-34918D01*
X66673Y-34890D01*
X66645Y-34862D01*
X66616Y-34805D01*
X66813Y-34102D02*
X67207Y-34102D01*
X66813Y-34356D02*
X67123Y-34356D01*
X67179Y-34327D01*
X67207Y-34271D01*
X67207Y-34187D01*
X67179Y-34131D01*
X67151Y-34102D01*
X67207Y-33821D02*
X66616Y-33821D01*
X66898Y-33821D02*
X66898Y-33484D01*
X67207Y-33484D02*
X66616Y-33484D01*
X56971Y-51946D02*
X57449Y-51946D01*
X57505Y-51917D01*
X57533Y-51889D01*
X57561Y-51833D01*
X57561Y-51721D01*
X57533Y-51664D01*
X57505Y-51636D01*
X57449Y-51608D01*
X56971Y-51608D01*
X56971Y-51383D02*
X56971Y-51017D01*
X57196Y-51214D01*
X57196Y-51130D01*
X57224Y-51074D01*
X57252Y-51046D01*
X57308Y-51017D01*
X57449Y-51017D01*
X57505Y-51046D01*
X57533Y-51074D01*
X57561Y-51130D01*
X57561Y-51299D01*
X57533Y-51355D01*
X57505Y-51383D01*
X53648Y-54661D02*
X54239Y-54521D01*
X53817Y-54408D01*
X54239Y-54296D01*
X53648Y-54155D01*
X54210Y-53958D02*
X54239Y-53874D01*
X54239Y-53733D01*
X54210Y-53677D01*
X54182Y-53649D01*
X54126Y-53621D01*
X54070Y-53621D01*
X54014Y-53649D01*
X53985Y-53677D01*
X53957Y-53733D01*
X53929Y-53846D01*
X53901Y-53902D01*
X53873Y-53930D01*
X53817Y-53958D01*
X53760Y-53958D01*
X53704Y-53930D01*
X53676Y-53902D01*
X53648Y-53846D01*
X53648Y-53705D01*
X53676Y-53621D01*
X53704Y-53396D02*
X53676Y-53368D01*
X53648Y-53312D01*
X53648Y-53171D01*
X53676Y-53115D01*
X53704Y-53087D01*
X53760Y-53059D01*
X53817Y-53059D01*
X53901Y-53087D01*
X54239Y-53424D01*
X54239Y-53059D01*
X53901Y-52721D02*
X53873Y-52777D01*
X53845Y-52805D01*
X53789Y-52834D01*
X53760Y-52834D01*
X53704Y-52805D01*
X53676Y-52777D01*
X53648Y-52721D01*
X53648Y-52609D01*
X53676Y-52552D01*
X53704Y-52524D01*
X53760Y-52496D01*
X53789Y-52496D01*
X53845Y-52524D01*
X53873Y-52552D01*
X53901Y-52609D01*
X53901Y-52721D01*
X53929Y-52777D01*
X53957Y-52805D01*
X54014Y-52834D01*
X54126Y-52834D01*
X54182Y-52805D01*
X54210Y-52777D01*
X54239Y-52721D01*
X54239Y-52609D01*
X54210Y-52552D01*
X54182Y-52524D01*
X54126Y-52496D01*
X54014Y-52496D01*
X53957Y-52524D01*
X53929Y-52552D01*
X53901Y-52609D01*
X54239Y-51934D02*
X54239Y-52271D01*
X54239Y-52102D02*
X53648Y-52102D01*
X53732Y-52159D01*
X53789Y-52215D01*
X53817Y-52271D01*
X53704Y-51709D02*
X53676Y-51681D01*
X53648Y-51624D01*
X53648Y-51484D01*
X53676Y-51428D01*
X53704Y-51399D01*
X53760Y-51371D01*
X53817Y-51371D01*
X53901Y-51399D01*
X54239Y-51737D01*
X54239Y-51371D01*
X53929Y-50921D02*
X53957Y-50837D01*
X53985Y-50809D01*
X54042Y-50781D01*
X54126Y-50781D01*
X54182Y-50809D01*
X54210Y-50837D01*
X54239Y-50893D01*
X54239Y-51118D01*
X53648Y-51118D01*
X53648Y-50921D01*
X53676Y-50865D01*
X53704Y-50837D01*
X53760Y-50809D01*
X53817Y-50809D01*
X53873Y-50837D01*
X53901Y-50865D01*
X53929Y-50921D01*
X53929Y-51118D01*
X54295Y-50668D02*
X54295Y-50218D01*
X53648Y-49796D02*
X53648Y-50078D01*
X53929Y-50106D01*
X53901Y-50078D01*
X53873Y-50021D01*
X53873Y-49881D01*
X53901Y-49825D01*
X53929Y-49796D01*
X53985Y-49768D01*
X54126Y-49768D01*
X54182Y-49796D01*
X54210Y-49825D01*
X54239Y-49881D01*
X54239Y-50021D01*
X54210Y-50078D01*
X54182Y-50106D01*
X54239Y-49515D02*
X53648Y-49515D01*
X54070Y-49318D01*
X53648Y-49122D01*
X54239Y-49122D01*
X54239Y-48840D02*
X53648Y-48840D01*
X54070Y-48643D01*
X53648Y-48447D01*
X54239Y-48447D01*
X54295Y-48306D02*
X54295Y-47856D01*
X54239Y-47434D02*
X54239Y-47715D01*
X53648Y-47715D01*
X53929Y-47237D02*
X53929Y-47041D01*
X54239Y-46956D02*
X54239Y-47237D01*
X53648Y-47237D01*
X53648Y-46956D01*
X54239Y-46703D02*
X53648Y-46703D01*
X53648Y-46562D01*
X53676Y-46478D01*
X53732Y-46422D01*
X53789Y-46394D01*
X53901Y-46366D01*
X53985Y-46366D01*
X54098Y-46394D01*
X54154Y-46422D01*
X54210Y-46478D01*
X54239Y-46562D01*
X54239Y-46703D01*
X51380Y-51946D02*
X51858Y-51946D01*
X51915Y-51917D01*
X51943Y-51889D01*
X51971Y-51833D01*
X51971Y-51721D01*
X51943Y-51664D01*
X51915Y-51636D01*
X51858Y-51608D01*
X51380Y-51608D01*
X51437Y-51355D02*
X51408Y-51327D01*
X51380Y-51271D01*
X51380Y-51130D01*
X51408Y-51074D01*
X51437Y-51046D01*
X51493Y-51017D01*
X51549Y-51017D01*
X51633Y-51046D01*
X51971Y-51383D01*
X51971Y-51017D01*
X47898Y-54411D02*
X48489Y-54271D01*
X48067Y-54158D01*
X48489Y-54046D01*
X47898Y-53905D01*
X48460Y-53708D02*
X48489Y-53624D01*
X48489Y-53483D01*
X48460Y-53427D01*
X48432Y-53399D01*
X48376Y-53371D01*
X48320Y-53371D01*
X48264Y-53399D01*
X48235Y-53427D01*
X48207Y-53483D01*
X48179Y-53596D01*
X48151Y-53652D01*
X48123Y-53680D01*
X48067Y-53708D01*
X48010Y-53708D01*
X47954Y-53680D01*
X47926Y-53652D01*
X47898Y-53596D01*
X47898Y-53455D01*
X47926Y-53371D01*
X47954Y-53146D02*
X47926Y-53118D01*
X47898Y-53062D01*
X47898Y-52921D01*
X47926Y-52865D01*
X47954Y-52837D01*
X48010Y-52809D01*
X48067Y-52809D01*
X48151Y-52837D01*
X48489Y-53174D01*
X48489Y-52809D01*
X48151Y-52471D02*
X48123Y-52527D01*
X48095Y-52555D01*
X48039Y-52584D01*
X48010Y-52584D01*
X47954Y-52555D01*
X47926Y-52527D01*
X47898Y-52471D01*
X47898Y-52359D01*
X47926Y-52302D01*
X47954Y-52274D01*
X48010Y-52246D01*
X48039Y-52246D01*
X48095Y-52274D01*
X48123Y-52302D01*
X48151Y-52359D01*
X48151Y-52471D01*
X48179Y-52527D01*
X48207Y-52555D01*
X48264Y-52584D01*
X48376Y-52584D01*
X48432Y-52555D01*
X48460Y-52527D01*
X48489Y-52471D01*
X48489Y-52359D01*
X48460Y-52302D01*
X48432Y-52274D01*
X48376Y-52246D01*
X48264Y-52246D01*
X48207Y-52274D01*
X48179Y-52302D01*
X48151Y-52359D01*
X48489Y-51684D02*
X48489Y-52021D01*
X48489Y-51852D02*
X47898Y-51852D01*
X47982Y-51909D01*
X48039Y-51965D01*
X48067Y-52021D01*
X47954Y-51459D02*
X47926Y-51431D01*
X47898Y-51374D01*
X47898Y-51234D01*
X47926Y-51178D01*
X47954Y-51149D01*
X48010Y-51121D01*
X48067Y-51121D01*
X48151Y-51149D01*
X48489Y-51487D01*
X48489Y-51121D01*
X48179Y-50671D02*
X48207Y-50587D01*
X48235Y-50559D01*
X48292Y-50531D01*
X48376Y-50531D01*
X48432Y-50559D01*
X48460Y-50587D01*
X48489Y-50643D01*
X48489Y-50868D01*
X47898Y-50868D01*
X47898Y-50671D01*
X47926Y-50615D01*
X47954Y-50587D01*
X48010Y-50559D01*
X48067Y-50559D01*
X48123Y-50587D01*
X48151Y-50615D01*
X48179Y-50671D01*
X48179Y-50868D01*
X48545Y-50418D02*
X48545Y-49968D01*
X47898Y-49546D02*
X47898Y-49828D01*
X48179Y-49856D01*
X48151Y-49828D01*
X48123Y-49771D01*
X48123Y-49631D01*
X48151Y-49575D01*
X48179Y-49546D01*
X48235Y-49518D01*
X48376Y-49518D01*
X48432Y-49546D01*
X48460Y-49575D01*
X48489Y-49631D01*
X48489Y-49771D01*
X48460Y-49828D01*
X48432Y-49856D01*
X48489Y-49265D02*
X47898Y-49265D01*
X48320Y-49068D01*
X47898Y-48872D01*
X48489Y-48872D01*
X48489Y-48590D02*
X47898Y-48590D01*
X48320Y-48393D01*
X47898Y-48197D01*
X48489Y-48197D01*
X48545Y-48056D02*
X48545Y-47606D01*
X48489Y-47184D02*
X48489Y-47465D01*
X47898Y-47465D01*
X48179Y-46987D02*
X48179Y-46791D01*
X48489Y-46706D02*
X48489Y-46987D01*
X47898Y-46987D01*
X47898Y-46706D01*
X48489Y-46453D02*
X47898Y-46453D01*
X47898Y-46312D01*
X47926Y-46228D01*
X47982Y-46172D01*
X48039Y-46144D01*
X48151Y-46116D01*
X48235Y-46116D01*
X48348Y-46144D01*
X48404Y-46172D01*
X48460Y-46228D01*
X48489Y-46312D01*
X48489Y-46453D01*
G54D14*
X31429Y-46968D02*
X31029Y-46968D01*
X31029Y-46816D01*
X31048Y-46777D01*
X31067Y-46758D01*
X31105Y-46739D01*
X31162Y-46739D01*
X31201Y-46758D01*
X31220Y-46777D01*
X31239Y-46816D01*
X31239Y-46968D01*
X31029Y-46606D02*
X31029Y-46358D01*
X31182Y-46492D01*
X31182Y-46435D01*
X31201Y-46397D01*
X31220Y-46377D01*
X31258Y-46358D01*
X31353Y-46358D01*
X31391Y-46377D01*
X31410Y-46397D01*
X31429Y-46435D01*
X31429Y-46549D01*
X31410Y-46587D01*
X31391Y-46606D01*
G54D13*
X29391Y-47520D02*
X29410Y-47539D01*
X29429Y-47597D01*
X29429Y-47635D01*
X29410Y-47692D01*
X29372Y-47730D01*
X29334Y-47749D01*
X29258Y-47768D01*
X29201Y-47768D01*
X29124Y-47749D01*
X29086Y-47730D01*
X29048Y-47692D01*
X29029Y-47635D01*
X29029Y-47597D01*
X29048Y-47539D01*
X29067Y-47520D01*
X29029Y-47273D02*
X29029Y-47197D01*
X29048Y-47158D01*
X29086Y-47120D01*
X29162Y-47101D01*
X29296Y-47101D01*
X29372Y-47120D01*
X29410Y-47158D01*
X29429Y-47197D01*
X29429Y-47273D01*
X29410Y-47311D01*
X29372Y-47349D01*
X29296Y-47368D01*
X29162Y-47368D01*
X29086Y-47349D01*
X29048Y-47311D01*
X29029Y-47273D01*
X29429Y-46930D02*
X29029Y-46930D01*
X29429Y-46701D01*
X29029Y-46701D01*
X29429Y-46511D02*
X29029Y-46511D01*
X29429Y-46282D01*
X29029Y-46282D01*
X29467Y-46187D02*
X29467Y-45882D01*
X29029Y-45616D02*
X29029Y-45692D01*
X29048Y-45730D01*
X29067Y-45749D01*
X29124Y-45787D01*
X29201Y-45806D01*
X29353Y-45806D01*
X29391Y-45787D01*
X29410Y-45768D01*
X29429Y-45730D01*
X29429Y-45654D01*
X29410Y-45616D01*
X29391Y-45597D01*
X29353Y-45577D01*
X29258Y-45577D01*
X29220Y-45597D01*
X29201Y-45616D01*
X29182Y-45654D01*
X29182Y-45730D01*
X29201Y-45768D01*
X29220Y-45787D01*
X29258Y-45806D01*
G54D10*
X60194Y-50323D02*
X60278Y-50351D01*
X60306Y-50379D01*
X60334Y-50435D01*
X60334Y-50520D01*
X60306Y-50576D01*
X60278Y-50604D01*
X60222Y-50632D01*
X59997Y-50632D01*
X59997Y-50042D01*
X60194Y-50042D01*
X60250Y-50070D01*
X60278Y-50098D01*
X60306Y-50154D01*
X60306Y-50210D01*
X60278Y-50267D01*
X60250Y-50295D01*
X60194Y-50323D01*
X59997Y-50323D01*
X60897Y-50632D02*
X60559Y-50632D01*
X60728Y-50632D02*
X60728Y-50042D01*
X60672Y-50126D01*
X60615Y-50182D01*
X60559Y-50210D01*
X60868Y-54569D02*
X60868Y-53979D01*
X61093Y-53979D01*
X61150Y-54007D01*
X61178Y-54035D01*
X61206Y-54091D01*
X61206Y-54176D01*
X61178Y-54232D01*
X61150Y-54260D01*
X61093Y-54288D01*
X60868Y-54288D01*
X61459Y-54569D02*
X61459Y-53979D01*
X61740Y-54260D02*
X61937Y-54260D01*
X62021Y-54569D02*
X61740Y-54569D01*
X61740Y-53979D01*
X62021Y-53979D01*
X62218Y-53979D02*
X62612Y-53979D01*
X62218Y-54569D01*
X62612Y-54569D01*
X62949Y-53979D02*
X63062Y-53979D01*
X63118Y-54007D01*
X63174Y-54063D01*
X63203Y-54176D01*
X63203Y-54372D01*
X63174Y-54485D01*
X63118Y-54541D01*
X63062Y-54569D01*
X62949Y-54569D01*
X62893Y-54541D01*
X62837Y-54485D01*
X62809Y-54372D01*
X62809Y-54176D01*
X62837Y-54063D01*
X62893Y-54007D01*
X62949Y-53979D01*
X63315Y-54625D02*
X63765Y-54625D01*
X64102Y-54260D02*
X64187Y-54288D01*
X64215Y-54316D01*
X64243Y-54372D01*
X64243Y-54457D01*
X64215Y-54513D01*
X64187Y-54541D01*
X64131Y-54569D01*
X63906Y-54569D01*
X63906Y-53979D01*
X64102Y-53979D01*
X64159Y-54007D01*
X64187Y-54035D01*
X64215Y-54091D01*
X64215Y-54147D01*
X64187Y-54204D01*
X64159Y-54232D01*
X64102Y-54260D01*
X63906Y-54260D01*
X64496Y-53979D02*
X64496Y-54457D01*
X64524Y-54513D01*
X64552Y-54541D01*
X64609Y-54569D01*
X64721Y-54569D01*
X64777Y-54541D01*
X64805Y-54513D01*
X64834Y-54457D01*
X64834Y-53979D01*
X65059Y-53979D02*
X65452Y-53979D01*
X65059Y-54569D01*
X65452Y-54569D01*
X65621Y-53979D02*
X66015Y-53979D01*
X65621Y-54569D01*
X66015Y-54569D01*
X66240Y-54260D02*
X66437Y-54260D01*
X66521Y-54569D02*
X66240Y-54569D01*
X66240Y-53979D01*
X66521Y-53979D01*
X67111Y-54569D02*
X66915Y-54288D01*
X66774Y-54569D02*
X66774Y-53979D01*
X66999Y-53979D01*
X67055Y-54007D01*
X67083Y-54035D01*
X67111Y-54091D01*
X67111Y-54176D01*
X67083Y-54232D01*
X67055Y-54260D01*
X66999Y-54288D01*
X66774Y-54288D01*
X32802Y-42034D02*
X32802Y-42512D01*
X32830Y-42568D01*
X32858Y-42596D01*
X32914Y-42624D01*
X33026Y-42624D01*
X33083Y-42596D01*
X33111Y-42568D01*
X33139Y-42512D01*
X33139Y-42034D01*
X33701Y-42034D02*
X33420Y-42034D01*
X33392Y-42315D01*
X33420Y-42287D01*
X33476Y-42259D01*
X33617Y-42259D01*
X33673Y-42287D01*
X33701Y-42315D01*
X33730Y-42371D01*
X33730Y-42512D01*
X33701Y-42568D01*
X33673Y-42596D01*
X33617Y-42624D01*
X33476Y-42624D01*
X33420Y-42596D01*
X33392Y-42568D01*
X37385Y-42624D02*
X37188Y-42343D01*
X37048Y-42624D02*
X37048Y-42034D01*
X37273Y-42034D01*
X37329Y-42062D01*
X37357Y-42090D01*
X37385Y-42146D01*
X37385Y-42231D01*
X37357Y-42287D01*
X37329Y-42315D01*
X37273Y-42343D01*
X37048Y-42343D01*
X37835Y-42315D02*
X37638Y-42315D01*
X37638Y-42624D02*
X37638Y-42034D01*
X37920Y-42034D01*
X38145Y-42624D02*
X38145Y-42034D01*
X38285Y-42034D01*
X38370Y-42062D01*
X38426Y-42118D01*
X38454Y-42174D01*
X38482Y-42287D01*
X38482Y-42371D01*
X38454Y-42484D01*
X38426Y-42540D01*
X38370Y-42596D01*
X38285Y-42624D01*
X38145Y-42624D01*
X38707Y-42090D02*
X38735Y-42062D01*
X38791Y-42034D01*
X38932Y-42034D01*
X38988Y-42062D01*
X39016Y-42090D01*
X39044Y-42146D01*
X39044Y-42203D01*
X39016Y-42287D01*
X38679Y-42624D01*
X39044Y-42624D01*
X39269Y-42090D02*
X39298Y-42062D01*
X39354Y-42034D01*
X39494Y-42034D01*
X39551Y-42062D01*
X39579Y-42090D01*
X39607Y-42146D01*
X39607Y-42203D01*
X39579Y-42287D01*
X39241Y-42624D01*
X39607Y-42624D01*
X40169Y-42624D02*
X39832Y-42624D01*
X40001Y-42624D02*
X40001Y-42034D01*
X39944Y-42118D01*
X39888Y-42174D01*
X39832Y-42203D01*
X40535Y-42034D02*
X40591Y-42034D01*
X40647Y-42062D01*
X40676Y-42090D01*
X40704Y-42146D01*
X40732Y-42259D01*
X40732Y-42399D01*
X40704Y-42512D01*
X40676Y-42568D01*
X40647Y-42596D01*
X40591Y-42624D01*
X40535Y-42624D01*
X40479Y-42596D01*
X40451Y-42568D01*
X40422Y-42512D01*
X40394Y-42399D01*
X40394Y-42259D01*
X40422Y-42146D01*
X40451Y-42090D01*
X40479Y-42062D01*
X40535Y-42034D01*
X40957Y-42090D02*
X40985Y-42062D01*
X41041Y-42034D01*
X41182Y-42034D01*
X41238Y-42062D01*
X41266Y-42090D01*
X41294Y-42146D01*
X41294Y-42203D01*
X41266Y-42287D01*
X40929Y-42624D01*
X41294Y-42624D01*
X80731Y-48073D02*
X80731Y-48551D01*
X80759Y-48607D01*
X80787Y-48636D01*
X80843Y-48664D01*
X80956Y-48664D01*
X81012Y-48636D01*
X81040Y-48607D01*
X81068Y-48551D01*
X81068Y-48073D01*
X81659Y-48664D02*
X81321Y-48664D01*
X81490Y-48664D02*
X81490Y-48073D01*
X81434Y-48158D01*
X81377Y-48214D01*
X81321Y-48242D01*
X69769Y-48152D02*
X70106Y-48152D01*
X69938Y-48742D02*
X69938Y-48152D01*
X70303Y-48742D02*
X70303Y-48152D01*
X70528Y-48152D01*
X70584Y-48180D01*
X70613Y-48208D01*
X70641Y-48264D01*
X70641Y-48349D01*
X70613Y-48405D01*
X70584Y-48433D01*
X70528Y-48461D01*
X70303Y-48461D01*
X71147Y-48349D02*
X71147Y-48742D01*
X71006Y-48124D02*
X70866Y-48546D01*
X71231Y-48546D01*
X71569Y-48152D02*
X71625Y-48152D01*
X71681Y-48180D01*
X71709Y-48208D01*
X71737Y-48264D01*
X71766Y-48377D01*
X71766Y-48517D01*
X71737Y-48630D01*
X71709Y-48686D01*
X71681Y-48714D01*
X71625Y-48742D01*
X71569Y-48742D01*
X71512Y-48714D01*
X71484Y-48686D01*
X71456Y-48630D01*
X71428Y-48517D01*
X71428Y-48377D01*
X71456Y-48264D01*
X71484Y-48208D01*
X71512Y-48180D01*
X71569Y-48152D01*
X72300Y-48152D02*
X72019Y-48152D01*
X71991Y-48433D01*
X72019Y-48405D01*
X72075Y-48377D01*
X72215Y-48377D01*
X72272Y-48405D01*
X72300Y-48433D01*
X72328Y-48489D01*
X72328Y-48630D01*
X72300Y-48686D01*
X72272Y-48714D01*
X72215Y-48742D01*
X72075Y-48742D01*
X72019Y-48714D01*
X71991Y-48686D01*
X72834Y-48152D02*
X72722Y-48152D01*
X72665Y-48180D01*
X72637Y-48208D01*
X72581Y-48293D01*
X72553Y-48405D01*
X72553Y-48630D01*
X72581Y-48686D01*
X72609Y-48714D01*
X72665Y-48742D01*
X72778Y-48742D01*
X72834Y-48714D01*
X72862Y-48686D01*
X72890Y-48630D01*
X72890Y-48489D01*
X72862Y-48433D01*
X72834Y-48405D01*
X72778Y-48377D01*
X72665Y-48377D01*
X72609Y-48405D01*
X72581Y-48433D01*
X72553Y-48489D01*
X73003Y-48799D02*
X73453Y-48799D01*
X73790Y-48433D02*
X73875Y-48461D01*
X73903Y-48489D01*
X73931Y-48546D01*
X73931Y-48630D01*
X73903Y-48686D01*
X73875Y-48714D01*
X73818Y-48742D01*
X73593Y-48742D01*
X73593Y-48152D01*
X73790Y-48152D01*
X73847Y-48180D01*
X73875Y-48208D01*
X73903Y-48264D01*
X73903Y-48321D01*
X73875Y-48377D01*
X73847Y-48405D01*
X73790Y-48433D01*
X73593Y-48433D01*
X74296Y-48152D02*
X74409Y-48152D01*
X74465Y-48180D01*
X74521Y-48236D01*
X74550Y-48349D01*
X74550Y-48546D01*
X74521Y-48658D01*
X74465Y-48714D01*
X74409Y-48742D01*
X74296Y-48742D01*
X74240Y-48714D01*
X74184Y-48658D01*
X74156Y-48546D01*
X74156Y-48349D01*
X74184Y-48236D01*
X74240Y-48180D01*
X74296Y-48152D01*
X74775Y-48574D02*
X75056Y-48574D01*
X74718Y-48742D02*
X74915Y-48152D01*
X75112Y-48742D01*
X75646Y-48742D02*
X75449Y-48461D01*
X75309Y-48742D02*
X75309Y-48152D01*
X75534Y-48152D01*
X75590Y-48180D01*
X75618Y-48208D01*
X75646Y-48264D01*
X75646Y-48349D01*
X75618Y-48405D01*
X75590Y-48433D01*
X75534Y-48461D01*
X75309Y-48461D01*
X75899Y-48742D02*
X75899Y-48152D01*
X76040Y-48152D01*
X76124Y-48180D01*
X76181Y-48236D01*
X76209Y-48293D01*
X76237Y-48405D01*
X76237Y-48489D01*
X76209Y-48602D01*
X76181Y-48658D01*
X76124Y-48714D01*
X76040Y-48742D01*
X75899Y-48742D01*
X72339Y-50835D02*
X71748Y-50835D01*
X71748Y-50610D01*
X71776Y-50554D01*
X71804Y-50526D01*
X71860Y-50498D01*
X71945Y-50498D01*
X72001Y-50526D01*
X72029Y-50554D01*
X72057Y-50610D01*
X72057Y-50835D01*
X72339Y-49935D02*
X72339Y-50273D01*
X72339Y-50104D02*
X71748Y-50104D01*
X71832Y-50160D01*
X71889Y-50217D01*
X71917Y-50273D01*
X73155Y-52348D02*
X73127Y-52376D01*
X73042Y-52404D01*
X72986Y-52404D01*
X72902Y-52376D01*
X72845Y-52320D01*
X72817Y-52263D01*
X72789Y-52151D01*
X72789Y-52066D01*
X72817Y-51954D01*
X72845Y-51898D01*
X72902Y-51841D01*
X72986Y-51813D01*
X73042Y-51813D01*
X73127Y-51841D01*
X73155Y-51870D01*
X73520Y-51813D02*
X73633Y-51813D01*
X73689Y-51841D01*
X73745Y-51898D01*
X73773Y-52010D01*
X73773Y-52207D01*
X73745Y-52320D01*
X73689Y-52376D01*
X73633Y-52404D01*
X73520Y-52404D01*
X73464Y-52376D01*
X73408Y-52320D01*
X73380Y-52207D01*
X73380Y-52010D01*
X73408Y-51898D01*
X73464Y-51841D01*
X73520Y-51813D01*
X74026Y-52404D02*
X74026Y-51813D01*
X74364Y-52404D01*
X74364Y-51813D01*
X74505Y-52460D02*
X74955Y-52460D01*
X75292Y-52095D02*
X75376Y-52123D01*
X75404Y-52151D01*
X75433Y-52207D01*
X75433Y-52291D01*
X75404Y-52348D01*
X75376Y-52376D01*
X75320Y-52404D01*
X75095Y-52404D01*
X75095Y-51813D01*
X75292Y-51813D01*
X75348Y-51841D01*
X75376Y-51870D01*
X75404Y-51926D01*
X75404Y-51982D01*
X75376Y-52038D01*
X75348Y-52066D01*
X75292Y-52095D01*
X75095Y-52095D01*
X75658Y-52235D02*
X75939Y-52235D01*
X75601Y-52404D02*
X75798Y-51813D01*
X75995Y-52404D01*
X76107Y-51813D02*
X76445Y-51813D01*
X76276Y-52404D02*
X76276Y-51813D01*
X76557Y-51813D02*
X76895Y-51813D01*
X76726Y-52404D02*
X76726Y-51813D01*
X77092Y-52095D02*
X77289Y-52095D01*
X77373Y-52404D02*
X77092Y-52404D01*
X77092Y-51813D01*
X77373Y-51813D01*
X77964Y-52404D02*
X77767Y-52123D01*
X77626Y-52404D02*
X77626Y-51813D01*
X77851Y-51813D01*
X77907Y-51841D01*
X77935Y-51870D01*
X77964Y-51926D01*
X77964Y-52010D01*
X77935Y-52066D01*
X77907Y-52095D01*
X77851Y-52123D01*
X77626Y-52123D01*
X78329Y-52123D02*
X78329Y-52404D01*
X78132Y-51813D02*
X78329Y-52123D01*
X78526Y-51813D01*
G54D13*
X29422Y-38421D02*
X29160Y-38588D01*
X29422Y-38707D02*
X28872Y-38707D01*
X28872Y-38516D01*
X28898Y-38469D01*
X28925Y-38445D01*
X28977Y-38421D01*
X29055Y-38421D01*
X29108Y-38445D01*
X29134Y-38469D01*
X29160Y-38516D01*
X29160Y-38707D01*
X29422Y-37945D02*
X29422Y-38230D01*
X29422Y-38088D02*
X28872Y-38088D01*
X28951Y-38135D01*
X29003Y-38183D01*
X29029Y-38230D01*
X28872Y-37778D02*
X28872Y-37469D01*
X29082Y-37635D01*
X29082Y-37564D01*
X29108Y-37516D01*
X29134Y-37492D01*
X29186Y-37469D01*
X29317Y-37469D01*
X29370Y-37492D01*
X29396Y-37516D01*
X29422Y-37564D01*
X29422Y-37707D01*
X29396Y-37754D01*
X29370Y-37778D01*
X29422Y-35380D02*
X29422Y-35666D01*
X29422Y-35523D02*
X28872Y-35523D01*
X28951Y-35571D01*
X29003Y-35619D01*
X29029Y-35666D01*
X28872Y-34928D02*
X28872Y-35166D01*
X29134Y-35190D01*
X29108Y-35166D01*
X29082Y-35119D01*
X29082Y-35000D01*
X29108Y-34952D01*
X29134Y-34928D01*
X29186Y-34904D01*
X29317Y-34904D01*
X29370Y-34928D01*
X29396Y-34952D01*
X29422Y-35000D01*
X29422Y-35119D01*
X29396Y-35166D01*
X29370Y-35190D01*
X29422Y-34690D02*
X28872Y-34690D01*
X29265Y-34523D01*
X28872Y-34357D01*
X29422Y-34357D01*
X67207Y-29408D02*
X67188Y-29446D01*
X67150Y-29484D01*
X67093Y-29541D01*
X67074Y-29579D01*
X67074Y-29617D01*
X67169Y-29598D02*
X67150Y-29636D01*
X67112Y-29674D01*
X67036Y-29693D01*
X66903Y-29693D01*
X66826Y-29674D01*
X66788Y-29636D01*
X66769Y-29598D01*
X66769Y-29522D01*
X66788Y-29484D01*
X66826Y-29446D01*
X66903Y-29427D01*
X67036Y-29427D01*
X67112Y-29446D01*
X67150Y-29484D01*
X67169Y-29522D01*
X67169Y-29598D01*
X66903Y-29084D02*
X67169Y-29084D01*
X66750Y-29179D02*
X67036Y-29274D01*
X67036Y-29027D01*
X66999Y-25766D02*
X67018Y-25709D01*
X67037Y-25690D01*
X67075Y-25671D01*
X67132Y-25671D01*
X67171Y-25690D01*
X67190Y-25709D01*
X67209Y-25747D01*
X67209Y-25899D01*
X66809Y-25899D01*
X66809Y-25766D01*
X66828Y-25728D01*
X66847Y-25709D01*
X66885Y-25690D01*
X66923Y-25690D01*
X66961Y-25709D01*
X66980Y-25728D01*
X66999Y-25766D01*
X66999Y-25899D01*
X66809Y-25499D02*
X67132Y-25499D01*
X67171Y-25480D01*
X67190Y-25461D01*
X67209Y-25423D01*
X67209Y-25347D01*
X67190Y-25309D01*
X67171Y-25290D01*
X67132Y-25271D01*
X66809Y-25271D01*
X67209Y-24890D02*
X67209Y-25080D01*
X66809Y-25080D01*
X66809Y-24794D02*
X66809Y-24547D01*
X66961Y-24680D01*
X66961Y-24623D01*
X66980Y-24585D01*
X66999Y-24566D01*
X67037Y-24547D01*
X67132Y-24547D01*
X67171Y-24566D01*
X67190Y-24585D01*
X67209Y-24623D01*
X67209Y-24737D01*
X67190Y-24775D01*
X67171Y-24794D01*
X67209Y-24356D02*
X67209Y-24280D01*
X67190Y-24242D01*
X67171Y-24223D01*
X67113Y-24185D01*
X67037Y-24166D01*
X66885Y-24166D01*
X66847Y-24185D01*
X66828Y-24204D01*
X66809Y-24242D01*
X66809Y-24318D01*
X66828Y-24356D01*
X66847Y-24375D01*
X66885Y-24394D01*
X66980Y-24394D01*
X67018Y-24375D01*
X67037Y-24356D01*
X67056Y-24318D01*
X67056Y-24242D01*
X67037Y-24204D01*
X67018Y-24185D01*
X66980Y-24166D01*
X67209Y-23994D02*
X66809Y-23994D01*
X66809Y-23899D01*
X66828Y-23842D01*
X66866Y-23804D01*
X66904Y-23785D01*
X66980Y-23766D01*
X67037Y-23766D01*
X67113Y-23785D01*
X67152Y-23804D01*
X67190Y-23842D01*
X67209Y-23899D01*
X67209Y-23994D01*
X61971Y-29368D02*
X61952Y-29406D01*
X61914Y-29444D01*
X61857Y-29502D01*
X61838Y-29540D01*
X61838Y-29578D01*
X61933Y-29559D02*
X61914Y-29597D01*
X61876Y-29635D01*
X61800Y-29654D01*
X61666Y-29654D01*
X61590Y-29635D01*
X61552Y-29597D01*
X61533Y-29559D01*
X61533Y-29483D01*
X61552Y-29444D01*
X61590Y-29406D01*
X61666Y-29387D01*
X61800Y-29387D01*
X61876Y-29406D01*
X61914Y-29444D01*
X61933Y-29483D01*
X61933Y-29559D01*
X61571Y-29235D02*
X61552Y-29216D01*
X61533Y-29178D01*
X61533Y-29083D01*
X61552Y-29044D01*
X61571Y-29025D01*
X61609Y-29006D01*
X61647Y-29006D01*
X61704Y-29025D01*
X61933Y-29254D01*
X61933Y-29006D01*
X61684Y-25726D02*
X61703Y-25669D01*
X61722Y-25650D01*
X61760Y-25631D01*
X61817Y-25631D01*
X61856Y-25650D01*
X61875Y-25669D01*
X61894Y-25707D01*
X61894Y-25860D01*
X61494Y-25860D01*
X61494Y-25726D01*
X61513Y-25688D01*
X61532Y-25669D01*
X61570Y-25650D01*
X61608Y-25650D01*
X61646Y-25669D01*
X61665Y-25688D01*
X61684Y-25726D01*
X61684Y-25860D01*
X61494Y-25460D02*
X61817Y-25460D01*
X61856Y-25441D01*
X61875Y-25422D01*
X61894Y-25384D01*
X61894Y-25307D01*
X61875Y-25269D01*
X61856Y-25250D01*
X61817Y-25231D01*
X61494Y-25231D01*
X61894Y-24850D02*
X61894Y-25041D01*
X61494Y-25041D01*
X61494Y-24755D02*
X61494Y-24507D01*
X61646Y-24641D01*
X61646Y-24584D01*
X61665Y-24546D01*
X61684Y-24526D01*
X61722Y-24507D01*
X61817Y-24507D01*
X61856Y-24526D01*
X61875Y-24546D01*
X61894Y-24584D01*
X61894Y-24698D01*
X61875Y-24736D01*
X61856Y-24755D01*
X61894Y-24317D02*
X61894Y-24241D01*
X61875Y-24203D01*
X61856Y-24184D01*
X61798Y-24146D01*
X61722Y-24126D01*
X61570Y-24126D01*
X61532Y-24146D01*
X61513Y-24165D01*
X61494Y-24203D01*
X61494Y-24279D01*
X61513Y-24317D01*
X61532Y-24336D01*
X61570Y-24355D01*
X61665Y-24355D01*
X61703Y-24336D01*
X61722Y-24317D01*
X61741Y-24279D01*
X61741Y-24203D01*
X61722Y-24165D01*
X61703Y-24146D01*
X61665Y-24126D01*
X61894Y-23955D02*
X61494Y-23955D01*
X61494Y-23860D01*
X61513Y-23803D01*
X61551Y-23765D01*
X61589Y-23746D01*
X61665Y-23726D01*
X61722Y-23726D01*
X61798Y-23746D01*
X61837Y-23765D01*
X61875Y-23803D01*
X61894Y-23860D01*
X61894Y-23955D01*
X73711Y-37204D02*
X74035Y-37204D01*
X74073Y-37185D01*
X74092Y-37166D01*
X74111Y-37128D01*
X74111Y-37052D01*
X74092Y-37014D01*
X74073Y-36995D01*
X74035Y-36976D01*
X73711Y-36976D01*
X73845Y-36614D02*
X74111Y-36614D01*
X73692Y-36709D02*
X73978Y-36804D01*
X73978Y-36557D01*
X74111Y-35590D02*
X74111Y-35780D01*
X73711Y-35780D01*
X74111Y-35457D02*
X73711Y-35457D01*
X73711Y-35361D01*
X73730Y-35304D01*
X73769Y-35266D01*
X73807Y-35247D01*
X73883Y-35228D01*
X73940Y-35228D01*
X74016Y-35247D01*
X74054Y-35266D01*
X74092Y-35304D01*
X74111Y-35361D01*
X74111Y-35457D01*
X74111Y-34847D02*
X74111Y-35076D01*
X74111Y-34961D02*
X73711Y-34961D01*
X73769Y-34999D01*
X73807Y-35038D01*
X73826Y-35076D01*
X74111Y-34466D02*
X74111Y-34695D01*
X74111Y-34580D02*
X73711Y-34580D01*
X73769Y-34619D01*
X73807Y-34657D01*
X73826Y-34695D01*
X74111Y-34085D02*
X74111Y-34314D01*
X74111Y-34199D02*
X73711Y-34199D01*
X73769Y-34238D01*
X73807Y-34276D01*
X73826Y-34314D01*
X73711Y-33952D02*
X73711Y-33685D01*
X74111Y-33857D01*
X73711Y-33590D02*
X74111Y-33457D01*
X73711Y-33323D01*
X73711Y-33228D02*
X73711Y-32980D01*
X73864Y-33114D01*
X73864Y-33057D01*
X73883Y-33019D01*
X73902Y-33000D01*
X73940Y-32980D01*
X74035Y-32980D01*
X74073Y-33000D01*
X74092Y-33019D01*
X74111Y-33057D01*
X74111Y-33171D01*
X74092Y-33209D01*
X74073Y-33228D01*
X73711Y-32847D02*
X73711Y-32600D01*
X73864Y-32733D01*
X73864Y-32676D01*
X73883Y-32638D01*
X73902Y-32619D01*
X73940Y-32600D01*
X74035Y-32600D01*
X74073Y-32619D01*
X74092Y-32638D01*
X74111Y-32676D01*
X74111Y-32790D01*
X74092Y-32828D01*
X74073Y-32847D01*
G54D10*
X80722Y-39566D02*
X80750Y-39482D01*
X80750Y-39341D01*
X80722Y-39285D01*
X80694Y-39257D01*
X80638Y-39229D01*
X80582Y-39229D01*
X80525Y-39257D01*
X80497Y-39285D01*
X80469Y-39341D01*
X80441Y-39454D01*
X80413Y-39510D01*
X80385Y-39538D01*
X80329Y-39566D01*
X80272Y-39566D01*
X80216Y-39538D01*
X80188Y-39510D01*
X80160Y-39454D01*
X80160Y-39313D01*
X80188Y-39229D01*
X80160Y-39032D02*
X80750Y-38892D01*
X80329Y-38779D01*
X80750Y-38667D01*
X80160Y-38526D01*
X80750Y-37992D02*
X80750Y-38329D01*
X80750Y-38160D02*
X80160Y-38160D01*
X80244Y-38217D01*
X80300Y-38273D01*
X80329Y-38329D01*
X81510Y-41183D02*
X81538Y-41099D01*
X81538Y-40958D01*
X81510Y-40902D01*
X81482Y-40874D01*
X81425Y-40846D01*
X81369Y-40846D01*
X81313Y-40874D01*
X81285Y-40902D01*
X81257Y-40958D01*
X81228Y-41071D01*
X81200Y-41127D01*
X81172Y-41155D01*
X81116Y-41183D01*
X81060Y-41183D01*
X81003Y-41155D01*
X80975Y-41127D01*
X80947Y-41071D01*
X80947Y-40930D01*
X80975Y-40846D01*
X80947Y-40649D02*
X81538Y-40508D01*
X81116Y-40396D01*
X81538Y-40284D01*
X80947Y-40143D01*
X81538Y-39918D02*
X80947Y-39918D01*
X80947Y-39721D02*
X80947Y-39384D01*
X81538Y-39552D02*
X80947Y-39552D01*
X81482Y-38849D02*
X81510Y-38877D01*
X81538Y-38962D01*
X81538Y-39018D01*
X81510Y-39102D01*
X81453Y-39159D01*
X81397Y-39187D01*
X81285Y-39215D01*
X81200Y-39215D01*
X81088Y-39187D01*
X81032Y-39159D01*
X80975Y-39102D01*
X80947Y-39018D01*
X80947Y-38962D01*
X80975Y-38877D01*
X81003Y-38849D01*
X81538Y-38596D02*
X80947Y-38596D01*
X81228Y-38596D02*
X81228Y-38259D01*
X81538Y-38259D02*
X80947Y-38259D01*
X81594Y-38118D02*
X81594Y-37668D01*
X81538Y-37528D02*
X80947Y-37528D01*
X81538Y-37246D02*
X80947Y-37246D01*
X81538Y-36909D01*
X80947Y-36909D01*
X80947Y-36712D02*
X81538Y-36515D01*
X80947Y-36318D01*
G54D13*
X56950Y-44097D02*
X56911Y-44078D01*
X56873Y-44040D01*
X56816Y-43983D01*
X56778Y-43964D01*
X56740Y-43964D01*
X56759Y-44059D02*
X56721Y-44040D01*
X56683Y-44002D01*
X56664Y-43926D01*
X56664Y-43792D01*
X56683Y-43716D01*
X56721Y-43678D01*
X56759Y-43659D01*
X56835Y-43659D01*
X56873Y-43678D01*
X56911Y-43716D01*
X56931Y-43792D01*
X56931Y-43926D01*
X56911Y-44002D01*
X56873Y-44040D01*
X56835Y-44059D01*
X56759Y-44059D01*
X57273Y-43659D02*
X57197Y-43659D01*
X57159Y-43678D01*
X57140Y-43697D01*
X57102Y-43754D01*
X57083Y-43830D01*
X57083Y-43983D01*
X57102Y-44021D01*
X57121Y-44040D01*
X57159Y-44059D01*
X57235Y-44059D01*
X57273Y-44040D01*
X57292Y-44021D01*
X57311Y-43983D01*
X57311Y-43888D01*
X57292Y-43850D01*
X57273Y-43830D01*
X57235Y-43811D01*
X57159Y-43811D01*
X57121Y-43830D01*
X57102Y-43850D01*
X57083Y-43888D01*
X55950Y-44637D02*
X56007Y-44656D01*
X56026Y-44675D01*
X56045Y-44713D01*
X56045Y-44770D01*
X56026Y-44808D01*
X56007Y-44827D01*
X55969Y-44846D01*
X55816Y-44846D01*
X55816Y-44446D01*
X55950Y-44446D01*
X55988Y-44465D01*
X56007Y-44485D01*
X56026Y-44523D01*
X56026Y-44561D01*
X56007Y-44599D01*
X55988Y-44618D01*
X55950Y-44637D01*
X55816Y-44637D01*
X56445Y-44808D02*
X56426Y-44827D01*
X56369Y-44846D01*
X56331Y-44846D01*
X56273Y-44827D01*
X56235Y-44789D01*
X56216Y-44751D01*
X56197Y-44675D01*
X56197Y-44618D01*
X56216Y-44542D01*
X56235Y-44504D01*
X56273Y-44465D01*
X56331Y-44446D01*
X56369Y-44446D01*
X56426Y-44465D01*
X56445Y-44485D01*
X56578Y-44446D02*
X56826Y-44446D01*
X56692Y-44599D01*
X56750Y-44599D01*
X56788Y-44618D01*
X56807Y-44637D01*
X56826Y-44675D01*
X56826Y-44770D01*
X56807Y-44808D01*
X56788Y-44827D01*
X56750Y-44846D01*
X56635Y-44846D01*
X56597Y-44827D01*
X56578Y-44808D01*
X56959Y-44446D02*
X57207Y-44446D01*
X57073Y-44599D01*
X57131Y-44599D01*
X57169Y-44618D01*
X57188Y-44637D01*
X57207Y-44675D01*
X57207Y-44770D01*
X57188Y-44808D01*
X57169Y-44827D01*
X57131Y-44846D01*
X57016Y-44846D01*
X56978Y-44827D01*
X56959Y-44808D01*
X57340Y-44446D02*
X57607Y-44446D01*
X57435Y-44846D01*
X79938Y-23333D02*
X79676Y-23500D01*
X79938Y-23619D02*
X79388Y-23619D01*
X79388Y-23428D01*
X79414Y-23380D01*
X79440Y-23357D01*
X79493Y-23333D01*
X79571Y-23333D01*
X79624Y-23357D01*
X79650Y-23380D01*
X79676Y-23428D01*
X79676Y-23619D01*
X79624Y-23047D02*
X79597Y-23095D01*
X79571Y-23119D01*
X79519Y-23142D01*
X79493Y-23142D01*
X79440Y-23119D01*
X79414Y-23095D01*
X79388Y-23047D01*
X79388Y-22952D01*
X79414Y-22904D01*
X79440Y-22880D01*
X79493Y-22857D01*
X79519Y-22857D01*
X79571Y-22880D01*
X79597Y-22904D01*
X79624Y-22952D01*
X79624Y-23047D01*
X79650Y-23095D01*
X79676Y-23119D01*
X79728Y-23142D01*
X79833Y-23142D01*
X79885Y-23119D01*
X79912Y-23095D01*
X79938Y-23047D01*
X79938Y-22952D01*
X79912Y-22904D01*
X79885Y-22880D01*
X79833Y-22857D01*
X79728Y-22857D01*
X79676Y-22880D01*
X79650Y-22904D01*
X79624Y-22952D01*
X81540Y-23833D02*
X81906Y-23833D01*
X81330Y-23952D02*
X81723Y-24071D01*
X81723Y-23761D01*
X81356Y-23619D02*
X81356Y-23285D01*
X81906Y-23499D01*
X81356Y-22999D02*
X81356Y-22952D01*
X81383Y-22904D01*
X81409Y-22880D01*
X81461Y-22857D01*
X81566Y-22833D01*
X81697Y-22833D01*
X81802Y-22857D01*
X81854Y-22880D01*
X81880Y-22904D01*
X81906Y-22952D01*
X81906Y-22999D01*
X81880Y-23047D01*
X81854Y-23071D01*
X81802Y-23095D01*
X81697Y-23119D01*
X81566Y-23119D01*
X81461Y-23095D01*
X81409Y-23071D01*
X81383Y-23047D01*
X81356Y-22999D01*
X81906Y-22619D02*
X81356Y-22619D01*
X81697Y-22571D02*
X81906Y-22428D01*
X81540Y-22428D02*
X81749Y-22619D01*
X55711Y-30257D02*
X55730Y-30276D01*
X55749Y-30333D01*
X55749Y-30371D01*
X55730Y-30428D01*
X55692Y-30466D01*
X55654Y-30485D01*
X55577Y-30504D01*
X55520Y-30504D01*
X55444Y-30485D01*
X55406Y-30466D01*
X55368Y-30428D01*
X55349Y-30371D01*
X55349Y-30333D01*
X55368Y-30276D01*
X55387Y-30257D01*
X55749Y-29876D02*
X55749Y-30104D01*
X55749Y-29990D02*
X55349Y-29990D01*
X55406Y-30028D01*
X55444Y-30066D01*
X55463Y-30104D01*
X55349Y-29628D02*
X55349Y-29590D01*
X55368Y-29552D01*
X55387Y-29533D01*
X55425Y-29514D01*
X55501Y-29495D01*
X55596Y-29495D01*
X55673Y-29514D01*
X55711Y-29533D01*
X55730Y-29552D01*
X55749Y-29590D01*
X55749Y-29628D01*
X55730Y-29666D01*
X55711Y-29685D01*
X55673Y-29704D01*
X55596Y-29723D01*
X55501Y-29723D01*
X55425Y-29704D01*
X55387Y-29685D01*
X55368Y-29666D01*
X55349Y-29628D01*
X53812Y-30847D02*
X53793Y-30828D01*
X53774Y-30790D01*
X53774Y-30695D01*
X53793Y-30657D01*
X53812Y-30638D01*
X53850Y-30619D01*
X53888Y-30619D01*
X53945Y-30638D01*
X54174Y-30866D01*
X54174Y-30619D01*
X53812Y-30466D02*
X53793Y-30447D01*
X53774Y-30409D01*
X53774Y-30314D01*
X53793Y-30276D01*
X53812Y-30257D01*
X53850Y-30238D01*
X53888Y-30238D01*
X53945Y-30257D01*
X54174Y-30485D01*
X54174Y-30238D01*
X53774Y-29990D02*
X53774Y-29952D01*
X53793Y-29914D01*
X53812Y-29895D01*
X53850Y-29876D01*
X53926Y-29857D01*
X54022Y-29857D01*
X54098Y-29876D01*
X54136Y-29895D01*
X54155Y-29914D01*
X54174Y-29952D01*
X54174Y-29990D01*
X54155Y-30028D01*
X54136Y-30047D01*
X54098Y-30066D01*
X54022Y-30085D01*
X53926Y-30085D01*
X53850Y-30066D01*
X53812Y-30047D01*
X53793Y-30028D01*
X53774Y-29990D01*
X53907Y-29685D02*
X54174Y-29685D01*
X53945Y-29685D02*
X53926Y-29666D01*
X53907Y-29628D01*
X53907Y-29571D01*
X53926Y-29533D01*
X53964Y-29514D01*
X54174Y-29514D01*
X53964Y-29190D02*
X53964Y-29323D01*
X54174Y-29323D02*
X53774Y-29323D01*
X53774Y-29133D01*
X32104Y-31430D02*
X32123Y-31449D01*
X32142Y-31506D01*
X32142Y-31544D01*
X32123Y-31601D01*
X32085Y-31639D01*
X32046Y-31658D01*
X31970Y-31677D01*
X31913Y-31677D01*
X31837Y-31658D01*
X31799Y-31639D01*
X31761Y-31601D01*
X31742Y-31544D01*
X31742Y-31506D01*
X31761Y-31449D01*
X31780Y-31430D01*
X32142Y-31049D02*
X32142Y-31277D01*
X32142Y-31163D02*
X31742Y-31163D01*
X31799Y-31201D01*
X31837Y-31239D01*
X31856Y-31277D01*
X32142Y-30668D02*
X32142Y-30897D01*
X32142Y-30782D02*
X31742Y-30782D01*
X31799Y-30820D01*
X31837Y-30858D01*
X31856Y-30897D01*
X33717Y-31792D02*
X33717Y-32020D01*
X33717Y-31906D02*
X33317Y-31906D01*
X33374Y-31944D01*
X33412Y-31982D01*
X33431Y-32020D01*
X33317Y-31544D02*
X33317Y-31506D01*
X33336Y-31468D01*
X33355Y-31449D01*
X33393Y-31430D01*
X33469Y-31411D01*
X33564Y-31411D01*
X33640Y-31430D01*
X33678Y-31449D01*
X33697Y-31468D01*
X33717Y-31506D01*
X33717Y-31544D01*
X33697Y-31582D01*
X33678Y-31601D01*
X33640Y-31620D01*
X33564Y-31639D01*
X33469Y-31639D01*
X33393Y-31620D01*
X33355Y-31601D01*
X33336Y-31582D01*
X33317Y-31544D01*
X33317Y-31163D02*
X33317Y-31125D01*
X33336Y-31087D01*
X33355Y-31068D01*
X33393Y-31049D01*
X33469Y-31030D01*
X33564Y-31030D01*
X33640Y-31049D01*
X33678Y-31068D01*
X33697Y-31087D01*
X33717Y-31125D01*
X33717Y-31163D01*
X33697Y-31201D01*
X33678Y-31220D01*
X33640Y-31239D01*
X33564Y-31258D01*
X33469Y-31258D01*
X33393Y-31239D01*
X33355Y-31220D01*
X33336Y-31201D01*
X33317Y-31163D01*
X33450Y-30858D02*
X33717Y-30858D01*
X33488Y-30858D02*
X33469Y-30839D01*
X33450Y-30801D01*
X33450Y-30744D01*
X33469Y-30706D01*
X33507Y-30687D01*
X33717Y-30687D01*
X33507Y-30363D02*
X33507Y-30497D01*
X33717Y-30497D02*
X33317Y-30497D01*
X33317Y-30306D01*
G54D10*
X53614Y-23739D02*
X53614Y-23148D01*
X53839Y-23148D01*
X53895Y-23176D01*
X53923Y-23204D01*
X53951Y-23260D01*
X53951Y-23345D01*
X53923Y-23401D01*
X53895Y-23429D01*
X53839Y-23457D01*
X53614Y-23457D01*
X54176Y-23204D02*
X54204Y-23176D01*
X54260Y-23148D01*
X54401Y-23148D01*
X54457Y-23176D01*
X54485Y-23204D01*
X54514Y-23260D01*
X54514Y-23317D01*
X54485Y-23401D01*
X54148Y-23739D01*
X54514Y-23739D01*
X29556Y-21532D02*
X29528Y-21560D01*
X29444Y-21589D01*
X29387Y-21589D01*
X29303Y-21560D01*
X29247Y-21504D01*
X29219Y-21448D01*
X29191Y-21335D01*
X29191Y-21251D01*
X29219Y-21139D01*
X29247Y-21082D01*
X29303Y-21026D01*
X29387Y-20998D01*
X29444Y-20998D01*
X29528Y-21026D01*
X29556Y-21054D01*
X29922Y-20998D02*
X30034Y-20998D01*
X30091Y-21026D01*
X30147Y-21082D01*
X30175Y-21195D01*
X30175Y-21392D01*
X30147Y-21504D01*
X30091Y-21560D01*
X30034Y-21589D01*
X29922Y-21589D01*
X29866Y-21560D01*
X29809Y-21504D01*
X29781Y-21392D01*
X29781Y-21195D01*
X29809Y-21082D01*
X29866Y-21026D01*
X29922Y-20998D01*
X30428Y-21589D02*
X30428Y-20998D01*
X30765Y-21589D01*
X30765Y-20998D01*
X30906Y-21645D02*
X31356Y-21645D01*
X31806Y-21026D02*
X31750Y-20998D01*
X31665Y-20998D01*
X31581Y-21026D01*
X31525Y-21082D01*
X31497Y-21139D01*
X31468Y-21251D01*
X31468Y-21335D01*
X31497Y-21448D01*
X31525Y-21504D01*
X31581Y-21560D01*
X31665Y-21589D01*
X31722Y-21589D01*
X31806Y-21560D01*
X31834Y-21532D01*
X31834Y-21335D01*
X31722Y-21335D01*
X32087Y-21279D02*
X32284Y-21279D01*
X32368Y-21589D02*
X32087Y-21589D01*
X32087Y-20998D01*
X32368Y-20998D01*
X32621Y-21589D02*
X32621Y-20998D01*
X33212Y-21026D02*
X33156Y-20998D01*
X33071Y-20998D01*
X32987Y-21026D01*
X32931Y-21082D01*
X32903Y-21139D01*
X32875Y-21251D01*
X32875Y-21335D01*
X32903Y-21448D01*
X32931Y-21504D01*
X32987Y-21560D01*
X33071Y-21589D01*
X33128Y-21589D01*
X33212Y-21560D01*
X33240Y-21532D01*
X33240Y-21335D01*
X33128Y-21335D01*
X33493Y-21279D02*
X33690Y-21279D01*
X33774Y-21589D02*
X33493Y-21589D01*
X33493Y-20998D01*
X33774Y-20998D01*
X34365Y-21589D02*
X34168Y-21307D01*
X34028Y-21589D02*
X34028Y-20998D01*
X34252Y-20998D01*
X34309Y-21026D01*
X34337Y-21054D01*
X34365Y-21110D01*
X34365Y-21195D01*
X34337Y-21251D01*
X34309Y-21279D01*
X34252Y-21307D01*
X34028Y-21307D01*
X34477Y-21645D02*
X34927Y-21645D01*
X34984Y-20998D02*
X35321Y-20998D01*
X35152Y-21589D02*
X35152Y-20998D01*
X35518Y-20998D02*
X35518Y-21476D01*
X35546Y-21532D01*
X35574Y-21560D01*
X35630Y-21589D01*
X35743Y-21589D01*
X35799Y-21560D01*
X35827Y-21532D01*
X35855Y-21476D01*
X35855Y-20998D01*
X36333Y-21279D02*
X36418Y-21307D01*
X36446Y-21335D01*
X36474Y-21392D01*
X36474Y-21476D01*
X36446Y-21532D01*
X36418Y-21560D01*
X36362Y-21589D01*
X36137Y-21589D01*
X36137Y-20998D01*
X36333Y-20998D01*
X36390Y-21026D01*
X36418Y-21054D01*
X36446Y-21110D01*
X36446Y-21167D01*
X36418Y-21223D01*
X36390Y-21251D01*
X36333Y-21279D01*
X36137Y-21279D01*
X36727Y-21279D02*
X36924Y-21279D01*
X37008Y-21589D02*
X36727Y-21589D01*
X36727Y-20998D01*
X37008Y-20998D01*
X77696Y-19139D02*
X77696Y-18548D01*
X77921Y-18548D01*
X77978Y-18576D01*
X78006Y-18604D01*
X78034Y-18660D01*
X78034Y-18745D01*
X78006Y-18801D01*
X77978Y-18829D01*
X77921Y-18857D01*
X77696Y-18857D01*
X78259Y-18604D02*
X78287Y-18576D01*
X78343Y-18548D01*
X78484Y-18548D01*
X78540Y-18576D01*
X78568Y-18604D01*
X78596Y-18660D01*
X78596Y-18717D01*
X78568Y-18801D01*
X78231Y-19139D01*
X78596Y-19139D01*
X78849Y-19139D02*
X78849Y-18548D01*
X78849Y-18773D02*
X78906Y-18745D01*
X79018Y-18745D01*
X79074Y-18773D01*
X79103Y-18801D01*
X79131Y-18857D01*
X79131Y-19026D01*
X79103Y-19082D01*
X79074Y-19110D01*
X79018Y-19139D01*
X78906Y-19139D01*
X78849Y-19110D01*
X33096Y-19139D02*
X33096Y-18548D01*
X33321Y-18548D01*
X33378Y-18576D01*
X33406Y-18604D01*
X33434Y-18660D01*
X33434Y-18745D01*
X33406Y-18801D01*
X33378Y-18829D01*
X33321Y-18857D01*
X33096Y-18857D01*
X33659Y-18604D02*
X33687Y-18576D01*
X33743Y-18548D01*
X33884Y-18548D01*
X33940Y-18576D01*
X33968Y-18604D01*
X33996Y-18660D01*
X33996Y-18717D01*
X33968Y-18801D01*
X33631Y-19139D01*
X33996Y-19139D01*
X34503Y-19139D02*
X34503Y-18829D01*
X34474Y-18773D01*
X34418Y-18745D01*
X34306Y-18745D01*
X34249Y-18773D01*
X34503Y-19110D02*
X34446Y-19139D01*
X34306Y-19139D01*
X34249Y-19110D01*
X34221Y-19054D01*
X34221Y-18998D01*
X34249Y-18942D01*
X34306Y-18914D01*
X34446Y-18914D01*
X34503Y-18885D01*
G54D20*
X75400Y-23128D02*
X76299Y-23128D01*
X36150Y-23128D02*
X37049Y-23128D01*
X36600Y-23578D02*
X36600Y-22678D01*
G54D13*
X48627Y-37186D02*
X48646Y-37205D01*
X48665Y-37262D01*
X48665Y-37300D01*
X48646Y-37357D01*
X48608Y-37395D01*
X48570Y-37414D01*
X48494Y-37433D01*
X48437Y-37433D01*
X48361Y-37414D01*
X48322Y-37395D01*
X48284Y-37357D01*
X48265Y-37300D01*
X48265Y-37262D01*
X48284Y-37205D01*
X48303Y-37186D01*
X48665Y-36805D02*
X48665Y-37033D01*
X48665Y-36919D02*
X48265Y-36919D01*
X48322Y-36957D01*
X48361Y-36995D01*
X48380Y-37033D01*
X48399Y-36462D02*
X48665Y-36462D01*
X48246Y-36557D02*
X48532Y-36652D01*
X48532Y-36405D01*
X51224Y-37586D02*
X51224Y-37814D01*
X51224Y-37700D02*
X50824Y-37700D01*
X50882Y-37738D01*
X50920Y-37776D01*
X50939Y-37814D01*
X50958Y-37243D02*
X51224Y-37243D01*
X50958Y-37414D02*
X51167Y-37414D01*
X51205Y-37395D01*
X51224Y-37357D01*
X51224Y-37300D01*
X51205Y-37262D01*
X51186Y-37243D01*
X49859Y-35702D02*
X49859Y-35397D01*
X45005Y-34121D02*
X45024Y-34140D01*
X45043Y-34197D01*
X45043Y-34236D01*
X45024Y-34293D01*
X44986Y-34331D01*
X44948Y-34350D01*
X44872Y-34369D01*
X44815Y-34369D01*
X44739Y-34350D01*
X44700Y-34331D01*
X44662Y-34293D01*
X44643Y-34236D01*
X44643Y-34197D01*
X44662Y-34140D01*
X44681Y-34121D01*
X44643Y-33988D02*
X44643Y-33721D01*
X45043Y-33893D01*
X47799Y-34121D02*
X47799Y-34350D01*
X47799Y-34236D02*
X47399Y-34236D01*
X47456Y-34274D01*
X47494Y-34312D01*
X47513Y-34350D01*
X47533Y-33778D02*
X47799Y-33778D01*
X47533Y-33950D02*
X47742Y-33950D01*
X47780Y-33931D01*
X47799Y-33893D01*
X47799Y-33836D01*
X47780Y-33797D01*
X47761Y-33778D01*
X46259Y-32752D02*
X46259Y-32447D01*
X38863Y-37501D02*
X38883Y-37520D01*
X38902Y-37577D01*
X38902Y-37615D01*
X38883Y-37672D01*
X38844Y-37710D01*
X38806Y-37729D01*
X38730Y-37748D01*
X38673Y-37748D01*
X38597Y-37729D01*
X38559Y-37710D01*
X38521Y-37672D01*
X38502Y-37615D01*
X38502Y-37577D01*
X38521Y-37520D01*
X38540Y-37501D01*
X38540Y-37348D02*
X38521Y-37329D01*
X38502Y-37291D01*
X38502Y-37196D01*
X38521Y-37158D01*
X38540Y-37139D01*
X38578Y-37120D01*
X38616Y-37120D01*
X38673Y-37139D01*
X38902Y-37367D01*
X38902Y-37120D01*
X38502Y-36986D02*
X38502Y-36739D01*
X38654Y-36872D01*
X38654Y-36815D01*
X38673Y-36777D01*
X38692Y-36758D01*
X38730Y-36739D01*
X38825Y-36739D01*
X38863Y-36758D01*
X38883Y-36777D01*
X38902Y-36815D01*
X38902Y-36929D01*
X38883Y-36967D01*
X38863Y-36986D01*
X41618Y-37310D02*
X41618Y-37539D01*
X41618Y-37425D02*
X41218Y-37425D01*
X41275Y-37463D01*
X41313Y-37501D01*
X41332Y-37539D01*
X41351Y-36967D02*
X41618Y-36967D01*
X41351Y-37139D02*
X41561Y-37139D01*
X41599Y-37120D01*
X41618Y-37082D01*
X41618Y-37025D01*
X41599Y-36986D01*
X41580Y-36967D01*
X40109Y-36002D02*
X40109Y-35697D01*
X47289Y-40257D02*
X47308Y-40276D01*
X47327Y-40333D01*
X47327Y-40371D01*
X47308Y-40428D01*
X47270Y-40466D01*
X47232Y-40485D01*
X47155Y-40504D01*
X47098Y-40504D01*
X47022Y-40485D01*
X46984Y-40466D01*
X46946Y-40428D01*
X46927Y-40371D01*
X46927Y-40333D01*
X46946Y-40276D01*
X46965Y-40257D01*
X47327Y-39876D02*
X47327Y-40104D01*
X47327Y-39990D02*
X46927Y-39990D01*
X46984Y-40028D01*
X47022Y-40066D01*
X47041Y-40104D01*
X46927Y-39533D02*
X46927Y-39609D01*
X46946Y-39647D01*
X46965Y-39666D01*
X47022Y-39704D01*
X47098Y-39723D01*
X47251Y-39723D01*
X47289Y-39704D01*
X47308Y-39685D01*
X47327Y-39647D01*
X47327Y-39571D01*
X47308Y-39533D01*
X47289Y-39514D01*
X47251Y-39495D01*
X47155Y-39495D01*
X47117Y-39514D01*
X47098Y-39533D01*
X47079Y-39571D01*
X47079Y-39647D01*
X47098Y-39685D01*
X47117Y-39704D01*
X47155Y-39723D01*
X50083Y-40066D02*
X50083Y-40295D01*
X50083Y-40180D02*
X49683Y-40180D01*
X49740Y-40219D01*
X49778Y-40257D01*
X49797Y-40295D01*
X49816Y-39723D02*
X50083Y-39723D01*
X49816Y-39895D02*
X50026Y-39895D01*
X50064Y-39876D01*
X50083Y-39838D01*
X50083Y-39780D01*
X50064Y-39742D01*
X50045Y-39723D01*
X48513Y-38752D02*
X48513Y-38447D01*
X44945Y-47757D02*
X44964Y-47776D01*
X44983Y-47833D01*
X44983Y-47871D01*
X44964Y-47928D01*
X44926Y-47966D01*
X44888Y-47985D01*
X44812Y-48004D01*
X44755Y-48004D01*
X44679Y-47985D01*
X44641Y-47966D01*
X44602Y-47928D01*
X44583Y-47871D01*
X44583Y-47833D01*
X44602Y-47776D01*
X44622Y-47757D01*
X44622Y-47604D02*
X44602Y-47585D01*
X44583Y-47547D01*
X44583Y-47452D01*
X44602Y-47414D01*
X44622Y-47395D01*
X44660Y-47376D01*
X44698Y-47376D01*
X44755Y-47395D01*
X44983Y-47623D01*
X44983Y-47376D01*
X44983Y-46995D02*
X44983Y-47223D01*
X44983Y-47109D02*
X44583Y-47109D01*
X44641Y-47147D01*
X44679Y-47185D01*
X44698Y-47223D01*
X47761Y-47566D02*
X47761Y-47795D01*
X47761Y-47680D02*
X47361Y-47680D01*
X47419Y-47719D01*
X47457Y-47757D01*
X47476Y-47795D01*
X47495Y-47223D02*
X47761Y-47223D01*
X47495Y-47395D02*
X47704Y-47395D01*
X47742Y-47376D01*
X47761Y-47338D01*
X47761Y-47280D01*
X47742Y-47242D01*
X47723Y-47223D01*
X46209Y-49052D02*
X46209Y-48747D01*
X44945Y-51566D02*
X44964Y-51585D01*
X44983Y-51642D01*
X44983Y-51680D01*
X44964Y-51738D01*
X44926Y-51776D01*
X44888Y-51795D01*
X44812Y-51814D01*
X44755Y-51814D01*
X44679Y-51795D01*
X44641Y-51776D01*
X44602Y-51738D01*
X44583Y-51680D01*
X44583Y-51642D01*
X44602Y-51585D01*
X44622Y-51566D01*
X44583Y-51433D02*
X44583Y-51185D01*
X44736Y-51319D01*
X44736Y-51261D01*
X44755Y-51223D01*
X44774Y-51204D01*
X44812Y-51185D01*
X44907Y-51185D01*
X44945Y-51204D01*
X44964Y-51223D01*
X44983Y-51261D01*
X44983Y-51376D01*
X44964Y-51414D01*
X44945Y-51433D01*
X47761Y-51566D02*
X47761Y-51795D01*
X47761Y-51680D02*
X47361Y-51680D01*
X47419Y-51719D01*
X47457Y-51757D01*
X47476Y-51795D01*
X47495Y-51223D02*
X47761Y-51223D01*
X47495Y-51395D02*
X47704Y-51395D01*
X47742Y-51376D01*
X47761Y-51338D01*
X47761Y-51280D01*
X47742Y-51242D01*
X47723Y-51223D01*
X46209Y-53052D02*
X46209Y-52747D01*
X57249Y-47265D02*
X57268Y-47284D01*
X57287Y-47341D01*
X57287Y-47379D01*
X57268Y-47436D01*
X57230Y-47474D01*
X57192Y-47493D01*
X57116Y-47512D01*
X57059Y-47512D01*
X56983Y-47493D01*
X56945Y-47474D01*
X56906Y-47436D01*
X56887Y-47379D01*
X56887Y-47341D01*
X56906Y-47284D01*
X56925Y-47265D01*
X57287Y-46884D02*
X57287Y-47112D01*
X57287Y-46998D02*
X56887Y-46998D01*
X56945Y-47036D01*
X56983Y-47074D01*
X57002Y-47112D01*
X57059Y-46655D02*
X57040Y-46693D01*
X57021Y-46712D01*
X56983Y-46731D01*
X56964Y-46731D01*
X56925Y-46712D01*
X56906Y-46693D01*
X56887Y-46655D01*
X56887Y-46579D01*
X56906Y-46541D01*
X56925Y-46522D01*
X56964Y-46503D01*
X56983Y-46503D01*
X57021Y-46522D01*
X57040Y-46541D01*
X57059Y-46579D01*
X57059Y-46655D01*
X57078Y-46693D01*
X57097Y-46712D01*
X57135Y-46731D01*
X57211Y-46731D01*
X57249Y-46712D01*
X57268Y-46693D01*
X57287Y-46655D01*
X57287Y-46579D01*
X57268Y-46541D01*
X57249Y-46522D01*
X57211Y-46503D01*
X57135Y-46503D01*
X57097Y-46522D01*
X57078Y-46541D01*
X57059Y-46579D01*
X60065Y-47074D02*
X60065Y-47303D01*
X60065Y-47188D02*
X59665Y-47188D01*
X59722Y-47226D01*
X59761Y-47265D01*
X59780Y-47303D01*
X59799Y-46731D02*
X60065Y-46731D01*
X59799Y-46903D02*
X60008Y-46903D01*
X60046Y-46884D01*
X60065Y-46845D01*
X60065Y-46788D01*
X60046Y-46750D01*
X60027Y-46731D01*
X58513Y-48560D02*
X58513Y-48255D01*
X71390Y-23942D02*
X71370Y-23961D01*
X71313Y-23980D01*
X71275Y-23980D01*
X71218Y-23961D01*
X71180Y-23923D01*
X71161Y-23885D01*
X71142Y-23809D01*
X71142Y-23752D01*
X71161Y-23676D01*
X71180Y-23637D01*
X71218Y-23599D01*
X71275Y-23580D01*
X71313Y-23580D01*
X71370Y-23599D01*
X71390Y-23618D01*
X71751Y-23580D02*
X71561Y-23580D01*
X71542Y-23771D01*
X71561Y-23752D01*
X71599Y-23733D01*
X71694Y-23733D01*
X71732Y-23752D01*
X71751Y-23771D01*
X71770Y-23809D01*
X71770Y-23904D01*
X71751Y-23942D01*
X71732Y-23961D01*
X71694Y-23980D01*
X71599Y-23980D01*
X71561Y-23961D01*
X71542Y-23942D01*
X71390Y-26933D02*
X71161Y-26933D01*
X71275Y-26933D02*
X71275Y-26533D01*
X71237Y-26590D01*
X71199Y-26628D01*
X71161Y-26647D01*
X71732Y-26666D02*
X71732Y-26933D01*
X71561Y-26666D02*
X71561Y-26876D01*
X71580Y-26914D01*
X71618Y-26933D01*
X71675Y-26933D01*
X71713Y-26914D01*
X71732Y-26895D01*
X72747Y-25259D02*
X73052Y-25259D01*
G54D14*
M02*
