M48
;DRILL file {Pcbnew (2013-07-07 BZR 4022)-stable} date 27/11/2016 22:57:57
;FORMAT={-:-/ absolute / metric / decimal}
FMAT,2
METRIC,TZ
T1C0.635
T2C0.800
T3C0.813
T4C1.000
T5C1.016
T6C1.143
T7C1.270
T8C1.300
T9C1.500
T10C3.048
T11C3.200
%
G90
G05
M71
T1
X74.295Y61.595
X74.295Y66.04
X74.295Y71.755
X74.295Y75.565
X74.295Y79.375
X74.295Y83.82
X74.295Y86.995
X74.295Y91.44
X74.295Y95.885
X74.295Y99.695
X74.295Y103.505
X74.295Y107.95
X74.295Y112.395
X74.295Y116.84
X76.835Y103.505
X76.835Y107.95
X79.375Y61.595
X80.01Y120.015
X80.01Y126.365
X80.645Y86.995
X80.645Y92.075
X80.645Y99.06
X83.185Y61.595
X83.185Y86.995
X83.185Y92.075
X83.185Y99.06
X84.455Y66.675
X86.2Y119.8
X86.36Y73.025
X86.36Y79.375
X86.36Y81.915
X86.36Y99.06
X86.36Y106.68
X86.36Y109.855
X86.36Y114.3
X89.535Y56.515
X89.535Y60.325
X89.535Y64.135
X89.535Y67.945
X89.535Y89.535
X89.535Y93.345
X89.535Y103.505
X89.535Y106.68
X89.535Y109.855
X90.17Y73.025
X90.805Y85.09
X92.075Y109.855
X92.71Y56.515
X92.71Y60.325
X92.71Y64.135
X93.345Y75.565
X93.345Y79.375
X93.345Y83.82
X93.345Y104.14
X93.4Y122.8
X95.25Y56.5
X95.25Y120.015
X95.885Y85.09
X96.52Y60.325
X96.52Y64.135
X96.52Y130.175
X97.2Y70.29
X97.5Y90.
X98.425Y83.185
X98.425Y124.46
X99.06Y137.16
X100.33Y60.325
X100.33Y85.09
X100.33Y107.95
X102.235Y68.58
X102.235Y72.39
X102.235Y75.565
X102.235Y78.74
X102.87Y107.95
X103.505Y137.16
X104.14Y60.325
X104.14Y64.135
X106.045Y72.39
X106.045Y75.565
X106.045Y107.95
X106.045Y118.11
X107.315Y104.775
X107.95Y60.325
X107.95Y64.135
X107.95Y137.16
X109.22Y107.95
X109.855Y82.55
X109.855Y101.6
X111.76Y60.452
X111.76Y116.205
X111.76Y137.16
X112.395Y120.65
X113.03Y82.55
X114.935Y60.452
X116.078Y82.55
X116.205Y137.16
X120.015Y137.16
X120.65Y82.55
X120.65Y123.825
X123.19Y60.452
X123.19Y82.55
X123.825Y125.095
X123.825Y134.62
X123.825Y137.16
X124.46Y112.395
X125.095Y106.045
X125.73Y120.65
X127.635Y76.2
X127.635Y81.28
X127.635Y86.36
X127.889Y60.452
X127.889Y64.008
X130.175Y105.41
X130.175Y109.22
X130.175Y111.76
X130.81Y81.28
X131.445Y120.65
X131.445Y125.73
X133.35Y99.06
X133.858Y73.66
X133.985Y68.58
X133.985Y71.12
X133.985Y78.74
X135.255Y120.65
X135.255Y125.73
X137.795Y99.06
X137.795Y104.14
X138.43Y81.28
X138.43Y86.995
X138.43Y90.805
X138.43Y125.73
X141.605Y81.28
X141.605Y86.995
X141.605Y90.805
X141.605Y99.06
X141.605Y104.14
X145.415Y81.28
X145.415Y86.995
X145.415Y91.44
X145.415Y99.06
X145.415Y104.14
X147.5Y106.25
X147.5Y113.25
X147.955Y137.16
X150.495Y91.44
X150.495Y99.06
X151.765Y125.73
X151.765Y129.54
X151.765Y133.35
X151.765Y137.16
X154.94Y135.89
X159.385Y96.52
X160.02Y127.
X160.02Y137.16
X162.56Y71.12
X162.56Y103.505
X163.83Y96.625
X164.465Y73.66
X164.465Y127.
X164.465Y137.16
X167.005Y71.12
X167.005Y74.93
X168.275Y96.52
X168.275Y137.16
X168.91Y127.
X169.545Y91.44
X170.815Y67.31
X170.815Y71.12
X170.815Y74.93
X170.815Y78.105
X170.815Y81.28
X170.815Y85.09
X170.815Y88.9
X170.815Y100.965
X172.085Y96.52
X172.72Y60.325
X172.72Y137.16
X173.99Y132.715
X175.895Y64.77
X175.895Y67.31
X175.895Y71.12
X175.895Y74.93
X175.895Y78.105
X175.895Y81.28
X175.895Y85.09
X175.895Y88.9
X175.895Y92.71
X175.895Y96.52
X176.53Y105.41
X176.53Y129.54
X176.53Y137.16
X177.8Y62.865
X177.8Y100.965
X180.34Y100.965
X180.34Y105.41
X180.34Y109.22
X180.34Y113.665
X180.34Y117.475
X180.34Y121.92
X180.34Y137.16
X181.597Y71.679
X181.635Y66.167
X182.245Y100.965
X183.515Y105.41
X183.515Y109.22
X183.515Y113.665
X183.515Y117.475
X183.515Y121.92
X183.515Y137.16
X184.15Y81.28
X186.055Y62.611
X186.055Y69.85
X186.08Y66.18
X186.69Y74.295
X187.325Y106.68
X187.325Y109.22
X187.325Y113.665
X187.325Y117.475
X187.325Y121.92
X187.325Y137.16
X187.96Y81.28
X187.96Y96.52
X188.595Y100.33
X190.5Y54.61
X190.5Y57.785
X190.5Y60.325
X190.5Y137.16
X191.135Y105.41
X191.135Y109.22
X191.135Y113.665
X191.135Y117.475
X191.135Y121.92
X193.04Y86.36
X193.04Y89.535
X193.04Y92.71
X194.31Y100.33
X194.31Y105.41
X194.31Y109.22
X194.31Y113.665
X194.31Y117.475
X194.31Y121.92
X194.31Y137.16
X195.58Y54.61
X195.58Y57.785
X196.215Y86.36
X196.85Y105.41
X198.12Y137.16
X200.66Y54.61
X200.66Y62.23
X200.66Y100.965
X200.66Y109.855
X201.295Y133.35
X201.295Y137.16
X202.565Y66.04
X202.565Y69.85
X202.565Y74.295
X203.2Y81.28
X203.2Y84.455
X203.2Y87.63
X203.2Y92.71
X203.835Y99.06
X203.835Y105.41
X203.835Y109.22
X203.835Y113.665
X203.835Y117.475
X203.835Y121.92
X203.835Y125.73
X203.835Y130.175
X203.835Y137.16
X206.375Y69.85
X206.375Y74.295
X206.375Y92.71
X207.01Y102.235
X207.01Y105.41
X207.01Y109.22
X207.01Y113.665
X207.01Y117.475
X207.01Y121.92
X210.185Y78.105
X210.185Y81.28
X210.185Y84.455
X210.185Y87.63
X210.185Y90.805
X210.185Y105.41
X210.185Y109.22
X210.185Y113.665
X210.185Y117.475
X210.185Y121.92
T2
X83.23Y112.2
X83.23Y114.74
X83.23Y117.28
X83.23Y119.82
X83.23Y122.36
X103.55Y112.2
X103.55Y114.74
X103.55Y117.28
X103.55Y119.82
X103.55Y122.36
X103.55Y124.9
X103.55Y127.44
X127.4Y126.99
X127.4Y129.53
X127.4Y132.07
X127.4Y134.61
X141.6Y126.99
X141.6Y129.53
X141.6Y132.07
X141.6Y134.61
X160.06Y130.81
X165.06Y130.81
X176.3Y109.22
X176.3Y111.76
X176.3Y114.3
X176.3Y116.84
X176.3Y119.38
X210.5Y96.5
X210.5Y98.5
X210.5Y100.5
T3
X76.25Y56.4
X76.25Y69.1
X83.23Y76.64
X83.23Y81.72
X85.77Y58.86
X85.77Y63.94
X86.36Y85.725
X86.36Y95.885
X89.58Y76.64
X89.58Y81.72
X93.345Y87.63
X93.345Y92.71
X97.155Y66.04
X101.854Y93.345
X101.854Y95.885
X102.235Y66.04
X107.315Y93.98
X109.855Y104.14
X109.855Y114.3
X109.982Y118.11
X109.982Y123.19
X110.Y128.26
X110.Y133.34
X114.935Y99.06
X114.935Y104.14
X117.348Y119.38
X117.348Y121.92
X117.348Y129.54
X117.348Y132.08
X117.475Y85.09
X117.475Y87.63
X117.475Y93.98
X117.856Y108.712
X117.856Y111.252
X120.396Y108.712
X123.2Y100.33
X123.2Y102.87
X125.095Y83.82
X125.095Y88.9
X126.619Y92.583
X126.619Y95.123
X127.635Y107.315
X127.635Y109.855
X127.635Y113.03
X127.635Y123.19
X128.905Y83.82
X132.715Y91.44
X132.715Y93.98
X135.255Y91.44
X135.255Y104.14
X135.255Y114.3
X139.065Y83.82
X139.192Y73.66
X139.192Y78.74
X141.605Y83.82
X141.605Y93.98
X141.605Y115.57
X141.605Y120.65
X141.73Y108.73
X141.73Y111.27
X144.27Y108.73
X148.6Y118.13
X148.6Y120.67
X150.7Y104.12
X150.7Y114.28
X156.21Y114.3
X156.21Y124.46
X158.75Y102.87
X158.75Y105.41
X158.75Y107.95
X158.75Y110.49
X164.465Y115.57
X164.465Y123.19
X166.37Y102.87
X166.37Y105.41
X166.37Y107.95
X166.37Y110.49
X170.815Y102.87
X170.815Y107.95
X170.815Y114.3
X170.815Y124.46
X174.625Y102.87
X179.07Y71.755
X180.34Y64.135
X182.88Y64.135
X184.15Y71.755
X184.785Y102.87
X187.325Y102.87
X190.5Y98.806
X192.405Y102.87
X193.72Y72.83
X193.72Y75.37
X196.26Y61.4
X196.26Y66.48
X196.26Y72.83
X196.26Y81.72
X196.26Y89.34
X200.07Y74.1
X200.66Y98.806
X204.978Y52.705
X204.978Y65.405
X206.42Y81.72
X206.42Y89.34
X210.23Y74.1
T4
X104.775Y83.86
X104.775Y88.86
X163.83Y85.765
X163.83Y90.765
X186.15Y126.73
X186.15Y129.27
T5
X76.88Y112.2
X76.88Y114.74
X76.88Y117.28
X76.88Y119.82
X76.88Y122.36
X76.88Y124.9
X83.23Y70.29
X93.39Y70.29
X97.2Y70.29
X97.2Y80.45
X153.035Y83.82
X153.035Y93.98
T6
X147.955Y80.645
X150.495Y80.645
X153.035Y80.645
X161.29Y80.645
X163.83Y80.645
X166.37Y80.645
X179.07Y76.2
X181.61Y76.2
X184.15Y76.2
T7
X77.978Y83.312
X77.978Y101.092
T9
X210.5Y94.4
X210.5Y102.6
T10
X150.495Y64.135
X163.83Y64.135
X181.61Y92.71
T11
X76.5Y48.
X76.5Y135.
X208.5Y48.
X208.5Y135.
T8
X86.964Y51.054G85X89.164Y51.054
G05
X92.044Y51.054G85X94.244Y51.054
G05
X189.994Y51.054G85X192.194Y51.054
G05
X195.074Y51.054G85X197.274Y51.054
G05
T0
M30
